{"glyphs":{"0":{"ha":800,"x_min":54,"x_max":772,"o":"m 478 958 q 230 861 325 958 q 94 621 135 764 q 54 335 54 478 q 130 69 54 161 q 349 -24 206 -24 q 596 75 501 -24 q 731 317 690 174 q 772 603 772 460 q 697 867 772 775 q 478 958 621 958 m 467 796 q 535 763 513 796 q 558 649 558 729 q 538 419 558 538 q 472 220 517 301 q 361 139 428 139 q 292 174 315 139 q 269 290 269 210 q 290 518 269 401 q 356 715 311 635 q 467 796 400 796 z "},"1":{"ha":631,"x_min":68,"x_max":599,"o":"m 599 939 l 468 0 l 257 0 l 358 713 l 142 589 l 68 747 l 407 939 l 599 939 z "},"2":{"ha":704,"x_min":-12,"x_max":690,"o":"m 397 958 q 556 926 490 958 q 656 838 622 894 q 690 711 690 782 q 659 570 690 639 q 533 404 628 501 q 256 167 439 307 l 635 168 l 588 0 l -12 0 l 7 158 q 308 431 215 340 q 434 576 401 522 q 467 689 467 631 q 438 764 467 738 q 363 790 410 790 q 272 767 314 790 q 181 693 231 743 l 61 806 q 215 919 133 881 q 397 958 297 958 z "},"3":{"ha":708,"x_min":-40,"x_max":683,"o":"m 403 958 q 610 895 538 958 q 683 733 683 832 q 632 590 683 653 q 469 494 581 526 q 601 438 550 486 q 651 303 651 389 q 610 152 651 228 q 480 26 568 76 q 260 -24 392 -24 q 82 14 157 -24 q -40 121 7 51 l 92 229 q 170 163 129 183 q 264 143 211 143 q 385 190 338 143 q 432 315 432 236 q 399 391 432 368 q 299 414 367 414 l 219 414 l 265 565 l 317 565 q 433 606 396 565 q 469 704 469 647 q 442 772 469 749 q 365 796 415 796 q 267 775 314 796 q 171 713 219 754 l 76 838 q 231 928 151 899 q 403 958 311 958 z "},"4":{"ha":771,"x_min":13,"x_max":743,"o":"m 743 367 l 719 203 l 617 203 l 588 0 l 376 0 l 404 203 l 13 203 l 33 349 l 375 963 l 554 893 l 269 367 l 429 367 l 485 589 l 671 589 l 639 367 l 743 367 z "},"5":{"ha":731,"x_min":-19,"x_max":725,"o":"m 678 782 l 343 782 l 315 585 q 454 615 381 615 q 620 548 558 615 q 682 357 682 481 q 640 183 682 271 q 506 36 597 96 q 276 -24 415 -24 q 102 14 174 -24 q -19 117 31 51 l 113 229 q 282 142 181 142 q 415 201 368 142 q 463 347 463 261 q 356 465 463 465 q 297 458 325 465 q 235 432 269 450 l 88 432 l 157 939 l 725 939 l 678 782 z "},"6":{"ha":771,"x_min":51,"x_max":736,"o":"m 506 632 q 672 565 608 632 q 735 378 735 497 q 696 199 735 292 q 572 41 657 106 q 360 -24 488 -24 q 127 65 203 -24 q 51 315 51 154 q 110 630 51 482 q 277 868 168 778 q 532 958 386 958 q 736 893 654 958 l 642 767 q 524 801 590 801 q 387 736 446 801 q 300 550 328 671 q 506 632 394 632 m 368 133 q 483 209 447 133 q 518 372 518 285 q 497 456 518 431 q 433 481 475 481 q 355 460 394 481 q 281 404 315 440 q 271 281 271 335 q 294 167 271 201 q 368 133 317 133 z "},"7":{"ha":636,"x_min":33,"x_max":693,"o":"m 693 939 l 672 790 l 224 -22 l 33 44 l 444 774 l 72 774 l 96 939 l 693 939 z "},"8":{"ha":793,"x_min":21,"x_max":768,"o":"m 589 501 q 740 283 740 418 q 692 128 740 199 q 553 17 643 58 q 343 -24 463 -24 q 169 9 242 -24 q 59 99 97 42 q 21 231 21 157 q 71 375 21 308 q 232 486 121 442 q 122 676 122 557 q 162 813 122 749 q 280 918 201 878 q 471 958 358 958 q 685 899 603 958 q 768 736 768 839 q 726 606 768 665 q 589 501 683 547 m 460 810 q 360 772 390 810 q 329 685 329 735 q 352 618 329 644 q 424 569 375 592 l 450 560 q 538 640 515 600 q 560 722 560 681 q 534 787 560 764 q 460 810 508 810 m 363 133 q 481 177 438 133 q 524 286 524 221 q 496 355 524 328 q 401 408 468 382 l 360 424 q 266 342 293 390 q 239 243 239 294 q 272 163 239 192 q 363 133 304 133 z "},"9":{"ha":764,"x_min":67,"x_max":760,"o":"m 447 958 q 678 876 597 958 q 760 657 760 794 q 614 221 760 414 q 94 -40 468 28 l 67 115 q 351 226 251 160 q 499 413 451 293 q 407 347 456 369 q 299 325 358 325 q 182 356 233 325 q 101 446 131 388 q 71 582 71 504 q 111 758 71 672 q 236 901 151 844 q 447 958 321 958 m 376 479 q 458 502 418 479 q 531 568 497 525 q 540 669 540 625 q 515 771 540 740 q 438 801 490 801 q 322 736 357 801 q 286 590 286 671 q 310 506 286 533 q 376 479 335 479 z "},"\r":{"ha":315,"x_min":0,"x_max":0,"o":""}," ":{"ha":315,"x_min":0,"x_max":0,"o":""},"A":{"ha":807,"x_min":-71,"x_max":772,"o":"m 538 0 l 518 207 l 239 207 l 163 0 l -71 0 l 350 963 l 622 963 l 772 0 l 538 0 m 299 372 l 501 372 l 460 810 l 299 372 z "},"Á":{"ha":807,"x_min":-71,"x_max":772,"o":"m 538 0 l 518 207 l 239 207 l 163 0 l -71 0 l 350 963 l 622 963 l 772 0 l 538 0 m 299 372 l 501 372 l 460 810 l 299 372 m 651 1319 l 719 1154 l 379 1038 l 332 1146 l 651 1319 z "},"Ă":{"ha":807,"x_min":-71,"x_max":772,"o":"m 538 0 l 518 207 l 239 207 l 163 0 l -71 0 l 350 963 l 622 963 l 772 0 l 538 0 m 299 372 l 501 372 l 460 810 l 299 372 m 500 1043 q 342 1109 396 1043 q 293 1269 289 1175 l 411 1288 q 443 1220 418 1246 q 511 1194 468 1194 q 590 1222 557 1194 q 643 1292 624 1249 l 763 1265 q 672 1107 742 1171 q 500 1043 601 1043 z "},"Ắ":{"ha":807,"x_min":-71,"x_max":772,"o":"m 767 1439 l 525 1243 l 450 1318 l 663 1554 l 767 1439 m 501 1024 q 344 1090 397 1024 q 294 1250 290 1156 l 413 1268 q 444 1201 419 1226 q 513 1175 469 1175 q 592 1202 558 1175 q 644 1272 625 1229 l 764 1246 q 673 1088 743 1151 q 501 1024 603 1024 m 538 0 l 518 207 l 239 207 l 163 0 l -71 0 l 350 963 l 622 963 l 772 0 l 538 0 m 299 372 l 501 372 l 460 810 l 299 372 z "},"Ặ":{"ha":807,"x_min":-71,"x_max":772,"o":"m 538 0 l 518 207 l 239 207 l 163 0 l -71 0 l 350 963 l 622 963 l 772 0 l 538 0 m 299 372 l 501 372 l 460 810 l 299 372 m 500 1043 q 342 1109 396 1043 q 293 1269 289 1175 l 411 1288 q 443 1220 418 1246 q 511 1194 468 1194 q 590 1222 557 1194 q 643 1292 624 1249 l 763 1265 q 672 1107 742 1171 q 500 1043 601 1043 m 333 -83 q 417 -115 385 -83 q 449 -194 449 -146 q 408 -293 449 -254 q 306 -332 367 -332 q 222 -301 254 -332 q 190 -222 190 -271 q 231 -123 190 -162 q 333 -83 272 -83 z "},"Ằ":{"ha":807,"x_min":-71,"x_max":772,"o":"m 603 1311 l 517 1243 l 326 1444 l 456 1551 l 603 1311 m 500 1024 q 342 1090 396 1024 q 293 1250 289 1156 l 411 1268 q 443 1201 418 1226 q 511 1175 468 1175 q 590 1202 557 1175 q 643 1272 624 1229 l 763 1246 q 672 1088 742 1151 q 500 1024 601 1024 m 538 0 l 518 207 l 239 207 l 163 0 l -71 0 l 350 963 l 622 963 l 772 0 l 538 0 m 299 372 l 501 372 l 460 810 l 299 372 z "},"Ẳ":{"ha":807,"x_min":-71,"x_max":772,"o":"m 538 0 l 518 207 l 239 207 l 163 0 l -71 0 l 350 963 l 622 963 l 772 0 l 538 0 m 299 372 l 501 372 l 460 810 l 299 372 m 501 1024 q 344 1090 397 1024 q 294 1250 290 1156 l 413 1268 q 444 1201 419 1226 q 513 1175 469 1175 q 592 1202 558 1175 q 644 1272 625 1229 l 764 1246 q 673 1088 743 1151 q 501 1024 603 1024 m 472 1375 q 553 1392 526 1378 q 581 1436 581 1406 q 532 1471 581 1471 q 449 1451 492 1471 l 422 1546 q 568 1581 489 1581 q 688 1543 646 1581 q 729 1447 729 1506 q 594 1310 729 1335 l 588 1251 l 458 1251 l 472 1375 z "},"Ẵ":{"ha":807,"x_min":-71,"x_max":810,"o":"m 469 1368 q 428 1353 446 1368 q 386 1308 410 1339 l 288 1363 q 374 1472 324 1429 q 479 1514 424 1514 q 531 1504 508 1514 q 576 1478 553 1494 q 590 1469 579 1476 q 610 1459 601 1463 q 628 1456 619 1456 q 668 1469 650 1456 q 710 1514 686 1483 l 810 1460 q 724 1351 774 1392 q 619 1310 674 1310 q 572 1319 593 1310 q 525 1344 550 1328 q 496 1361 510 1354 q 469 1368 482 1368 m 514 1175 q 593 1202 560 1175 q 646 1272 626 1229 l 765 1246 q 674 1088 744 1151 q 503 1024 604 1024 q 345 1090 399 1024 q 296 1250 292 1156 l 414 1268 q 446 1201 421 1226 q 514 1175 471 1175 m 350 963 l 622 963 l 772 0 l 538 0 l 518 207 l 239 207 l 163 0 l -71 0 l 350 963 m 299 372 l 501 372 l 460 810 l 299 372 z "},"Ǎ":{"ha":807,"x_min":-71,"x_max":781,"o":"m 538 0 l 518 207 l 239 207 l 163 0 l -71 0 l 350 963 l 622 963 l 772 0 l 538 0 m 299 372 l 501 372 l 460 810 l 299 372 m 711 1310 l 781 1221 l 564 1042 l 432 1042 l 263 1221 l 349 1310 l 514 1193 l 711 1310 z "},"Â":{"ha":807,"x_min":-71,"x_max":772,"o":"m 538 0 l 518 207 l 239 207 l 163 0 l -71 0 l 350 963 l 622 963 l 772 0 l 538 0 m 299 372 l 501 372 l 460 810 l 299 372 m 314 1049 l 243 1139 l 461 1318 l 593 1318 l 761 1139 l 676 1049 l 510 1165 l 314 1049 z "},"Ấ":{"ha":807,"x_min":-71,"x_max":964,"o":"m 964 1401 l 722 1206 l 647 1281 l 860 1517 l 964 1401 m 506 1118 l 310 1001 l 239 1092 l 457 1271 l 589 1271 l 757 1092 l 672 1001 l 506 1118 m 350 963 l 622 963 l 772 0 l 538 0 l 518 207 l 239 207 l 163 0 l -71 0 l 350 963 m 299 372 l 501 372 l 460 810 l 299 372 z "},"Ậ":{"ha":807,"x_min":-71,"x_max":772,"o":"m 538 0 l 518 207 l 239 207 l 163 0 l -71 0 l 350 963 l 622 963 l 772 0 l 538 0 m 299 372 l 501 372 l 460 810 l 299 372 m 314 1049 l 243 1139 l 461 1318 l 593 1318 l 761 1139 l 676 1049 l 510 1165 l 314 1049 m 333 -83 q 417 -115 385 -83 q 449 -194 449 -146 q 408 -293 449 -254 q 306 -332 367 -332 q 222 -301 254 -332 q 190 -222 190 -271 q 231 -123 190 -162 q 333 -83 272 -83 z "},"Ầ":{"ha":807,"x_min":-71,"x_max":772,"o":"m 383 1274 l 297 1206 l 107 1407 l 236 1514 l 383 1274 m 307 1001 l 236 1092 l 454 1271 l 586 1271 l 754 1092 l 669 1001 l 503 1118 l 307 1001 m 538 0 l 518 207 l 239 207 l 163 0 l -71 0 l 350 963 l 622 963 l 772 0 l 538 0 m 299 372 l 501 372 l 460 810 l 299 372 z "},"Ẩ":{"ha":807,"x_min":-71,"x_max":942,"o":"m 538 0 l 518 207 l 239 207 l 163 0 l -71 0 l 350 963 l 622 963 l 772 0 l 538 0 m 299 372 l 501 372 l 460 810 l 299 372 m 306 1001 l 235 1092 l 453 1271 l 585 1271 l 753 1092 l 668 1001 l 501 1118 l 306 1001 m 685 1311 q 766 1328 739 1314 q 793 1372 793 1342 q 744 1407 793 1407 q 661 1388 704 1407 l 635 1482 q 781 1517 701 1517 q 900 1479 858 1517 q 942 1383 942 1442 q 807 1246 942 1271 l 800 1188 l 671 1188 l 685 1311 z "},"Ẫ":{"ha":807,"x_min":-71,"x_max":801,"o":"m 461 1367 q 419 1352 438 1367 q 378 1307 401 1338 l 279 1361 q 365 1470 315 1428 q 471 1513 415 1513 q 522 1503 500 1513 q 568 1476 544 1493 q 582 1468 571 1475 q 602 1458 593 1461 q 619 1454 611 1454 q 660 1468 642 1454 q 701 1513 678 1482 l 801 1458 q 715 1349 765 1390 q 611 1308 664 1308 q 563 1317 585 1308 q 517 1343 542 1326 q 488 1360 501 1353 q 461 1367 474 1367 m 500 1118 l 304 1001 l 233 1092 l 451 1271 l 583 1271 l 751 1092 l 667 1001 l 500 1118 m 350 963 l 622 963 l 772 0 l 538 0 l 518 207 l 239 207 l 163 0 l -71 0 l 350 963 m 299 372 l 501 372 l 460 810 l 299 372 z "},"Ȁ":{"ha":807,"x_min":-71,"x_max":772,"o":"m 538 0 l 518 207 l 239 207 l 163 0 l -71 0 l 350 963 l 622 963 l 772 0 l 538 0 m 299 372 l 501 372 l 460 810 l 299 372 m 361 1369 l 457 1096 l 338 1043 l 207 1296 l 361 1369 m 600 1369 l 683 1096 l 565 1050 l 446 1300 l 600 1369 z "},"Ä":{"ha":807,"x_min":-71,"x_max":786,"o":"m 538 0 l 518 207 l 239 207 l 163 0 l -71 0 l 350 963 l 622 963 l 772 0 l 538 0 m 299 372 l 501 372 l 460 810 l 299 372 m 344 1067 q 271 1094 299 1067 q 243 1163 243 1121 q 279 1250 243 1215 q 368 1285 315 1285 q 442 1257 414 1285 q 469 1188 469 1229 q 433 1101 469 1136 q 344 1067 397 1067 m 660 1067 q 587 1094 614 1067 q 560 1163 560 1121 q 596 1250 560 1215 q 685 1285 632 1285 q 758 1257 731 1285 q 786 1188 786 1229 q 749 1101 786 1136 q 660 1067 713 1067 z "},"Ǟ":{"ha":807,"x_min":-71,"x_max":778,"o":"m 538 0 l 518 207 l 239 207 l 163 0 l -71 0 l 350 963 l 622 963 l 772 0 l 538 0 m 299 372 l 501 372 l 460 810 l 299 372 m 336 1036 q 263 1063 290 1036 q 235 1132 235 1090 q 271 1219 235 1185 q 360 1254 307 1254 q 433 1226 406 1254 q 461 1157 461 1199 q 425 1071 461 1106 q 336 1036 389 1036 m 651 1036 q 578 1063 606 1036 q 551 1132 551 1090 q 588 1219 551 1185 q 676 1254 624 1254 q 750 1226 722 1254 q 778 1157 778 1199 q 741 1071 778 1106 q 651 1036 704 1036 m 732 1306 l 314 1306 l 335 1458 l 753 1458 l 732 1306 z "},"Ȧ":{"ha":807,"x_min":-71,"x_max":772,"o":"m 538 0 l 518 207 l 239 207 l 163 0 l -71 0 l 350 963 l 622 963 l 772 0 l 538 0 m 299 372 l 501 372 l 460 810 l 299 372 m 507 1051 q 424 1083 456 1051 q 392 1163 392 1114 q 433 1261 392 1222 q 535 1300 474 1300 q 618 1269 586 1300 q 650 1190 650 1239 q 609 1091 650 1131 q 507 1051 568 1051 z "},"Ạ":{"ha":807,"x_min":-71,"x_max":772,"o":"m 538 0 l 518 207 l 239 207 l 163 0 l -71 0 l 350 963 l 622 963 l 772 0 l 538 0 m 299 372 l 501 372 l 460 810 l 299 372 m 333 -83 q 417 -115 385 -83 q 449 -194 449 -146 q 408 -293 449 -254 q 306 -332 367 -332 q 222 -301 254 -332 q 190 -222 190 -271 q 231 -123 190 -162 q 333 -83 272 -83 z "},"Ǡ":{"ha":807,"x_min":-71,"x_max":772,"o":"m 538 0 l 518 207 l 239 207 l 163 0 l -71 0 l 350 963 l 622 963 l 772 0 l 538 0 m 299 372 l 501 372 l 460 810 l 299 372 m 493 1022 q 410 1053 442 1022 q 378 1133 378 1085 q 419 1232 378 1193 q 521 1271 460 1271 q 604 1240 572 1271 q 636 1161 636 1210 q 595 1062 636 1101 q 493 1022 554 1022 m 740 1306 l 322 1306 l 343 1458 l 761 1458 l 740 1306 z "},"À":{"ha":807,"x_min":-71,"x_max":772,"o":"m 538 0 l 518 207 l 239 207 l 163 0 l -71 0 l 350 963 l 622 963 l 772 0 l 538 0 m 299 372 l 501 372 l 460 810 l 299 372 m 429 1318 l 707 1146 l 649 1039 l 338 1153 l 429 1318 z "},"Ả":{"ha":807,"x_min":-71,"x_max":772,"o":"m 538 0 l 518 207 l 239 207 l 163 0 l -71 0 l 350 963 l 622 963 l 772 0 l 538 0 m 299 372 l 501 372 l 460 810 l 299 372 m 450 1185 q 531 1201 504 1188 q 558 1246 558 1215 q 510 1281 558 1281 q 426 1261 469 1281 l 400 1356 q 546 1390 467 1390 q 665 1353 624 1390 q 707 1257 707 1315 q 572 1119 707 1144 l 565 1061 l 436 1061 l 450 1185 z "},"Ȃ":{"ha":807,"x_min":-71,"x_max":772,"o":"m 538 0 l 518 207 l 239 207 l 163 0 l -71 0 l 350 963 l 622 963 l 772 0 l 538 0 m 299 372 l 501 372 l 460 810 l 299 372 m 265 1085 q 359 1255 288 1189 q 535 1321 431 1321 q 694 1252 640 1321 q 743 1079 749 1183 l 619 1063 q 519 1168 608 1168 q 383 1058 426 1168 l 265 1085 z "},"Ɑ":{"ha":938,"x_min":53,"x_max":926,"o":"m 821 211 q 818 178 818 186 q 826 144 818 157 q 857 122 835 132 l 794 -19 q 614 92 657 -8 q 506 6 565 36 q 372 -24 447 -24 q 138 78 224 -24 q 53 361 53 179 q 110 667 53 524 q 269 899 167 811 q 504 986 372 986 q 622 960 574 986 q 710 885 671 933 l 736 963 l 926 963 l 821 211 m 283 354 q 322 188 283 238 q 432 139 360 139 q 597 213 524 139 l 672 747 q 613 801 646 783 q 533 819 581 819 q 397 751 454 819 q 312 576 340 683 q 283 354 283 468 z "},"Ā":{"ha":807,"x_min":-71,"x_max":772,"o":"m 538 0 l 518 207 l 239 207 l 163 0 l -71 0 l 350 963 l 622 963 l 772 0 l 538 0 m 299 372 l 501 372 l 460 810 l 299 372 m 713 1085 l 294 1085 l 315 1238 l 733 1238 l 713 1085 z "},"Ą":{"ha":807,"x_min":-71,"x_max":772,"o":"m 671 0 q 485 -158 485 -67 q 546 -204 485 -204 q 633 -193 582 -204 l 603 -331 q 507 -340 563 -340 q 374 -301 425 -340 q 324 -196 324 -262 q 535 36 324 -49 l 518 207 l 239 207 l 163 0 l -71 0 l 350 963 l 622 963 l 772 0 l 671 0 m 299 372 l 501 372 l 460 810 l 299 372 z "},"Å":{"ha":807,"x_min":-71,"x_max":772,"o":"m 538 0 l 518 207 l 239 207 l 163 0 l -71 0 l 350 963 l 622 963 l 772 0 l 538 0 m 299 372 l 501 372 l 460 810 l 299 372 m 543 1379 q 667 1333 621 1379 q 713 1215 713 1288 q 685 1117 713 1163 q 610 1043 658 1071 q 499 1015 561 1015 q 376 1061 421 1015 q 331 1179 331 1107 q 358 1277 331 1231 q 433 1351 385 1324 q 543 1379 482 1379 m 533 1268 q 476 1243 497 1268 q 456 1185 456 1218 q 469 1142 456 1157 q 508 1128 483 1128 q 565 1152 544 1128 q 586 1211 586 1176 q 572 1253 586 1239 q 533 1268 558 1268 z "},"Ǻ":{"ha":807,"x_min":-71,"x_max":772,"o":"m 538 0 l 518 207 l 239 207 l 163 0 l -71 0 l 350 963 l 622 963 l 772 0 l 538 0 m 299 372 l 501 372 l 460 810 l 299 372 m 532 1374 q 656 1328 610 1374 q 701 1210 701 1282 q 674 1111 701 1157 q 599 1038 647 1065 q 488 1010 550 1010 q 365 1056 410 1010 q 319 1174 319 1101 q 347 1272 319 1225 q 422 1346 374 1318 q 532 1374 471 1374 m 522 1263 q 465 1238 486 1263 q 444 1179 444 1213 q 458 1137 444 1151 q 497 1122 472 1122 q 554 1147 533 1122 q 575 1206 575 1171 q 561 1248 575 1233 q 522 1263 547 1263 m 658 1653 l 726 1488 l 386 1371 l 339 1479 l 658 1653 z "},"Ⱥ":{"ha":807,"x_min":-71,"x_max":772,"o":"m 560 0 l 536 207 l 374 207 l 249 -103 l 169 -85 l 288 207 l 224 207 l 143 0 l -71 0 l 350 963 l 593 963 l 629 1050 l 708 1031 l 639 858 l 772 0 l 560 0 m 283 363 l 350 363 l 481 683 l 464 829 l 283 363 m 438 363 l 518 363 l 500 517 l 438 363 z "},"Ã":{"ha":807,"x_min":-71,"x_max":781,"o":"m 538 0 l 518 207 l 239 207 l 163 0 l -71 0 l 350 963 l 622 963 l 772 0 l 538 0 m 299 372 l 501 372 l 460 810 l 299 372 m 588 1057 q 540 1066 560 1057 q 490 1094 521 1075 q 460 1113 472 1107 q 436 1119 449 1119 q 393 1104 411 1119 q 351 1056 375 1089 l 251 1114 q 339 1231 289 1186 q 446 1275 389 1275 q 498 1265 476 1275 q 546 1236 519 1254 q 572 1218 561 1224 q 596 1213 583 1213 q 637 1227 618 1213 q 679 1275 656 1242 l 781 1218 q 692 1101 742 1144 q 588 1057 642 1057 z "},"Æ":{"ha":1156,"x_min":-81,"x_max":1144,"o":"m 1099 800 l 728 800 l 743 567 l 1076 567 l 1056 407 l 753 407 l 768 164 l 1083 164 l 1060 0 l 568 0 l 560 207 l 258 207 l 161 0 l -81 0 l 415 963 l 1144 963 l 1099 800 m 336 372 l 553 372 l 535 796 l 336 372 z "},"Ǽ":{"ha":1156,"x_min":-81,"x_max":1144,"o":"m 1099 800 l 728 800 l 743 567 l 1076 567 l 1056 407 l 753 407 l 768 164 l 1083 164 l 1060 0 l 568 0 l 560 207 l 258 207 l 161 0 l -81 0 l 415 963 l 1144 963 l 1099 800 m 336 372 l 553 372 l 535 796 l 336 372 m 911 1319 l 979 1154 l 639 1038 l 592 1146 l 911 1319 z "},"Ǣ":{"ha":1156,"x_min":-81,"x_max":1144,"o":"m 1099 800 l 728 800 l 743 567 l 1076 567 l 1056 407 l 753 407 l 768 164 l 1083 164 l 1060 0 l 568 0 l 560 207 l 258 207 l 161 0 l -81 0 l 415 963 l 1144 963 l 1099 800 m 336 372 l 553 372 l 535 796 l 336 372 m 972 1085 l 554 1085 l 575 1238 l 993 1238 l 972 1085 z "},"B":{"ha":843,"x_min":38,"x_max":818,"o":"m 607 508 q 744 447 692 493 q 797 307 797 400 q 691 84 797 168 q 344 0 585 0 l 38 0 l 172 963 l 454 963 q 818 743 818 963 q 758 589 818 647 q 607 508 699 531 m 425 578 q 548 617 508 578 q 588 719 588 656 q 555 783 588 764 q 457 801 522 801 l 372 801 l 342 578 l 425 578 m 364 165 q 524 207 479 165 q 568 324 568 249 q 422 426 568 426 l 319 426 l 283 165 l 364 165 z "},"Ḃ":{"ha":843,"x_min":38,"x_max":818,"o":"m 607 508 q 744 447 692 493 q 797 307 797 400 q 691 84 797 168 q 344 0 585 0 l 38 0 l 172 963 l 454 963 q 818 743 818 963 q 758 589 818 647 q 607 508 699 531 m 425 578 q 548 617 508 578 q 588 719 588 656 q 555 783 588 764 q 457 801 522 801 l 372 801 l 342 578 l 425 578 m 364 165 q 524 207 479 165 q 568 324 568 249 q 422 426 568 426 l 319 426 l 283 165 l 364 165 m 490 1051 q 407 1083 439 1051 q 375 1163 375 1114 q 416 1261 375 1222 q 518 1300 457 1300 q 601 1269 569 1300 q 633 1190 633 1239 q 592 1091 633 1131 q 490 1051 551 1051 z "},"Ḅ":{"ha":843,"x_min":38,"x_max":818,"o":"m 607 508 q 744 447 692 493 q 797 307 797 400 q 691 84 797 168 q 344 0 585 0 l 38 0 l 172 963 l 454 963 q 818 743 818 963 q 758 589 818 647 q 607 508 699 531 m 425 578 q 548 617 508 578 q 588 719 588 656 q 555 783 588 764 q 457 801 522 801 l 372 801 l 342 578 l 425 578 m 364 165 q 524 207 479 165 q 568 324 568 249 q 422 426 568 426 l 319 426 l 283 165 l 364 165 m 351 -83 q 435 -115 403 -83 q 467 -194 467 -146 q 426 -293 467 -254 q 324 -332 385 -332 q 240 -301 272 -332 q 208 -222 208 -271 q 249 -123 208 -162 q 351 -83 290 -83 z "},"Ꞵ":{"ha":842,"x_min":-4,"x_max":818,"o":"m 610 508 q 799 318 799 472 q 747 145 799 217 q 607 37 696 74 q 407 0 518 0 q 263 17 339 0 l 219 -292 l -4 -292 l 172 963 l 454 963 q 818 743 818 963 q 758 589 818 647 q 610 508 699 531 m 392 426 l 426 578 l 443 578 q 547 613 507 578 q 586 713 586 647 q 554 781 586 761 q 457 801 522 801 l 374 801 l 285 175 q 389 165 333 165 q 521 206 472 165 q 569 325 569 247 q 439 426 569 426 l 392 426 z "},"Ɓ":{"ha":1038,"x_min":58,"x_max":1013,"o":"m 801 508 q 939 447 886 493 q 992 307 992 400 q 885 84 992 168 q 539 0 779 0 l 232 0 l 344 800 l 308 800 q 253 780 272 800 q 233 721 233 760 q 244 650 233 694 l 93 592 q 58 726 58 661 q 131 899 58 835 q 325 963 203 963 l 649 963 q 1013 743 1013 963 q 953 589 1013 647 q 801 508 893 531 m 619 578 q 742 617 703 578 q 782 719 782 656 q 749 783 782 764 q 651 801 717 801 l 567 801 l 536 578 l 619 578 m 558 165 q 718 207 674 165 q 763 324 763 249 q 617 426 763 426 l 514 426 l 478 165 l 558 165 z "},"Ƀ":{"ha":858,"x_min":-3,"x_max":833,"o":"m 622 508 q 760 447 707 493 q 813 307 813 400 q 706 84 813 168 q 360 0 600 0 l 53 0 l 86 243 l -3 243 l 14 354 l 103 354 l 188 963 l 469 963 q 833 743 833 963 q 774 589 833 647 q 622 508 714 531 m 440 578 q 563 617 524 578 q 603 719 603 656 q 570 783 603 764 q 472 801 538 801 l 388 801 l 357 578 l 440 578 m 379 165 q 539 207 494 165 q 583 324 583 249 q 438 426 583 426 l 335 426 l 325 354 l 485 354 l 468 243 l 310 243 l 299 165 l 379 165 z "},"Ƃ":{"ha":815,"x_min":38,"x_max":789,"o":"m 449 619 q 701 554 613 619 q 789 360 789 489 q 747 189 789 271 q 612 53 706 107 q 369 0 518 0 l 38 0 l 172 963 l 764 963 l 718 790 l 372 790 l 349 619 l 449 619 m 371 165 q 509 216 465 165 q 553 347 553 267 q 411 461 553 461 l 326 461 l 285 165 l 371 165 z "},"C":{"ha":785,"x_min":54,"x_max":833,"o":"m 549 986 q 833 872 731 986 l 713 754 q 636 802 674 786 q 551 818 599 818 q 397 747 457 818 q 312 573 338 675 q 286 374 286 471 q 331 207 286 261 q 456 153 375 153 q 552 174 507 153 q 650 233 597 194 l 738 99 q 597 10 676 44 q 421 -24 517 -24 q 153 80 253 -24 q 54 374 54 183 q 106 659 54 518 q 268 893 157 800 q 549 986 379 986 z "},"Ć":{"ha":785,"x_min":54,"x_max":833,"o":"m 549 986 q 833 872 731 986 l 713 754 q 636 802 674 786 q 551 818 599 818 q 397 747 457 818 q 312 573 338 675 q 286 374 286 471 q 331 207 286 261 q 456 153 375 153 q 552 174 507 153 q 650 233 597 194 l 738 99 q 597 10 676 44 q 421 -24 517 -24 q 153 80 253 -24 q 54 374 54 183 q 106 659 54 518 q 268 893 157 800 q 549 986 379 986 m 732 1319 l 800 1154 l 460 1038 l 413 1146 l 732 1319 z "},"Č":{"ha":785,"x_min":54,"x_max":861,"o":"m 549 986 q 833 872 731 986 l 713 754 q 636 802 674 786 q 551 818 599 818 q 397 747 457 818 q 312 573 338 675 q 286 374 286 471 q 331 207 286 261 q 456 153 375 153 q 552 174 507 153 q 650 233 597 194 l 738 99 q 597 10 676 44 q 421 -24 517 -24 q 153 80 253 -24 q 54 374 54 183 q 106 659 54 518 q 268 893 157 800 q 549 986 379 986 m 792 1310 l 861 1221 l 644 1042 l 513 1042 l 343 1221 l 429 1310 l 594 1193 l 792 1310 z "},"Ç":{"ha":785,"x_min":54,"x_max":833,"o":"m 738 99 q 478 -21 621 -3 l 469 -67 q 564 -106 532 -74 q 596 -192 596 -139 q 573 -273 596 -233 q 500 -338 550 -312 q 375 -364 450 -364 q 224 -319 283 -364 l 285 -221 q 369 -244 324 -244 q 420 -233 401 -244 q 440 -199 439 -222 q 413 -165 440 -175 q 321 -156 386 -156 l 356 -19 q 135 102 215 1 q 54 374 54 203 q 106 659 54 518 q 268 893 157 800 q 549 986 379 986 q 833 872 731 986 l 713 754 q 636 802 674 786 q 551 818 599 818 q 397 747 457 818 q 312 573 338 675 q 286 374 286 471 q 331 207 286 261 q 456 153 375 153 q 552 174 507 153 q 650 233 597 194 l 738 99 z "},"Ĉ":{"ha":785,"x_min":54,"x_max":842,"o":"m 549 986 q 833 872 731 986 l 713 754 q 636 802 674 786 q 551 818 599 818 q 397 747 457 818 q 312 573 338 675 q 286 374 286 471 q 331 207 286 261 q 456 153 375 153 q 552 174 507 153 q 650 233 597 194 l 738 99 q 597 10 676 44 q 421 -24 517 -24 q 153 80 253 -24 q 54 374 54 183 q 106 659 54 518 q 268 893 157 800 q 549 986 379 986 m 394 1049 l 324 1139 l 542 1318 l 674 1318 l 842 1139 l 757 1049 l 590 1165 l 394 1049 z "},"Ċ":{"ha":785,"x_min":54,"x_max":833,"o":"m 549 986 q 833 872 731 986 l 713 754 q 636 802 674 786 q 551 818 599 818 q 397 747 457 818 q 312 573 338 675 q 286 374 286 471 q 331 207 286 261 q 456 153 375 153 q 552 174 507 153 q 650 233 597 194 l 738 99 q 597 10 676 44 q 421 -24 517 -24 q 153 80 253 -24 q 54 374 54 183 q 106 659 54 518 q 268 893 157 800 q 549 986 379 986 m 588 1051 q 504 1083 536 1051 q 472 1163 472 1114 q 513 1261 472 1222 q 615 1300 554 1300 q 699 1269 667 1300 q 731 1190 731 1239 q 690 1091 731 1131 q 588 1051 649 1051 z "},"Ꭓ":{"ha":781,"x_min":-90,"x_max":846,"o":"m 846 963 l 521 403 l 703 -224 l 465 -224 l 369 251 l 156 -224 l -90 -224 l 257 403 l 97 963 l 335 963 l 410 544 l 604 963 l 846 963 z "},"Ƈ":{"ha":797,"x_min":53,"x_max":1092,"o":"m 914 1182 q 1092 1129 1014 1182 l 1014 996 q 971 1015 990 1008 q 926 1021 951 1021 q 840 933 853 1021 l 833 872 l 732 767 q 554 818 643 818 q 398 747 458 818 q 311 573 338 675 q 285 374 285 471 q 329 207 285 261 q 454 153 374 153 q 551 174 507 153 q 651 235 596 194 l 738 99 q 596 10 675 44 q 426 -24 517 -24 q 152 79 251 -24 q 53 374 53 182 q 107 656 53 514 q 268 892 161 799 q 526 986 375 986 q 653 963 599 986 q 737 1125 671 1068 q 914 1182 803 1182 z "},"Ȼ":{"ha":785,"x_min":54,"x_max":833,"o":"m 456 153 q 552 174 507 153 q 650 233 597 194 l 738 99 q 597 10 676 44 q 421 -24 517 -24 q 322 -14 376 -24 l 286 -103 l 206 -85 l 246 13 q 104 149 154 57 q 54 374 54 240 q 106 659 54 518 q 268 893 157 800 q 549 986 379 986 q 638 978 596 986 l 667 1050 l 746 1031 l 715 956 q 833 872 783 926 l 713 754 q 650 796 678 782 l 393 163 q 456 153 421 153 m 286 374 q 326 213 286 268 l 572 817 q 551 818 565 818 q 397 747 457 818 q 312 573 338 675 q 286 374 286 471 z "},"D":{"ha":892,"x_min":38,"x_max":869,"o":"m 433 963 q 751 883 632 963 q 869 597 869 803 q 741 167 869 335 q 325 0 613 0 l 38 0 l 172 963 l 433 963 m 374 797 l 285 164 l 358 164 q 576 294 511 164 q 640 597 640 424 q 590 755 640 713 q 447 797 540 797 l 374 797 z "},"Ǳ":{"ha":1599,"x_min":38,"x_max":1639,"o":"m 433 963 q 751 883 632 963 q 869 597 869 803 q 741 167 869 335 q 325 0 613 0 l 38 0 l 172 963 l 433 963 m 374 797 l 285 164 l 358 164 q 576 294 511 164 q 640 597 640 424 q 590 755 640 713 q 447 797 540 797 l 374 797 m 829 0 l 851 171 l 1357 786 l 982 786 l 1007 963 l 1639 963 l 1615 790 l 1115 181 l 1536 182 l 1489 0 l 829 0 z "},"Ǆ":{"ha":1599,"x_min":38,"x_max":1639,"o":"m 433 963 q 751 883 632 963 q 869 597 869 803 q 741 167 869 335 q 325 0 613 0 l 38 0 l 172 963 l 433 963 m 374 797 l 285 164 l 358 164 q 576 294 511 164 q 640 597 640 424 q 590 755 640 713 q 447 797 540 797 l 374 797 m 829 0 l 851 171 l 1357 786 l 982 786 l 1007 963 l 1639 963 l 1615 790 l 1115 181 l 1536 182 l 1489 0 l 829 0 m 1542 1310 l 1611 1221 l 1394 1042 l 1263 1042 l 1093 1221 l 1179 1310 l 1344 1193 l 1542 1310 z "},"Ɖ":{"ha":904,"x_min":22,"x_max":882,"o":"m 446 963 q 763 883 644 963 q 882 597 882 803 q 753 167 882 335 q 338 0 625 0 l 50 0 l 110 422 l 22 422 l 40 558 l 128 558 l 185 963 l 446 963 m 371 164 q 588 294 524 164 q 653 597 653 424 q 603 755 653 713 q 460 797 553 797 l 386 797 l 353 558 l 538 558 l 518 422 l 333 422 l 297 164 l 371 164 z "},"Ð":{"ha":904,"x_min":22,"x_max":882,"o":"m 446 963 q 763 883 644 963 q 882 597 882 803 q 753 167 882 335 q 338 0 625 0 l 50 0 l 110 422 l 22 422 l 40 558 l 128 558 l 185 963 l 446 963 m 371 164 q 588 294 524 164 q 653 597 653 424 q 603 755 653 713 q 460 797 553 797 l 386 797 l 353 558 l 538 558 l 518 422 l 333 422 l 297 164 l 371 164 z "},"Ď":{"ha":892,"x_min":38,"x_max":869,"o":"m 433 963 q 751 883 632 963 q 869 597 869 803 q 741 167 869 335 q 325 0 613 0 l 38 0 l 172 963 l 433 963 m 374 797 l 285 164 l 358 164 q 576 294 511 164 q 640 597 640 424 q 590 755 640 713 q 447 797 540 797 l 374 797 m 713 1310 l 782 1221 l 565 1042 l 433 1042 l 264 1221 l 350 1310 l 515 1193 l 713 1310 z "},"Ḓ":{"ha":892,"x_min":38,"x_max":869,"o":"m 433 963 q 751 883 632 963 q 869 597 869 803 q 741 167 869 335 q 325 0 613 0 l 38 0 l 172 963 l 433 963 m 374 797 l 285 164 l 358 164 q 576 294 511 164 q 640 597 640 424 q 590 755 640 713 q 447 797 540 797 l 374 797 m 118 -368 l 49 -278 l 268 -87 l 399 -87 l 567 -278 l 478 -368 l 315 -240 l 118 -368 z "},"Đ":{"ha":904,"x_min":22,"x_max":882,"o":"m 446 963 q 763 883 644 963 q 882 597 882 803 q 753 167 882 335 q 338 0 625 0 l 50 0 l 110 422 l 22 422 l 40 558 l 128 558 l 185 963 l 446 963 m 371 164 q 588 294 524 164 q 653 597 653 424 q 603 755 653 713 q 460 797 553 797 l 386 797 l 353 558 l 538 558 l 518 422 l 333 422 l 297 164 l 371 164 z "},"Ḋ":{"ha":892,"x_min":38,"x_max":869,"o":"m 433 963 q 751 883 632 963 q 869 597 869 803 q 741 167 869 335 q 325 0 613 0 l 38 0 l 172 963 l 433 963 m 374 797 l 285 164 l 358 164 q 576 294 511 164 q 640 597 640 424 q 590 755 640 713 q 447 797 540 797 l 374 797 m 508 1051 q 425 1083 457 1051 q 393 1163 393 1114 q 434 1261 393 1222 q 536 1300 475 1300 q 619 1269 588 1300 q 651 1190 651 1239 q 610 1091 651 1131 q 508 1051 569 1051 z "},"Ḍ":{"ha":892,"x_min":38,"x_max":869,"o":"m 433 963 q 751 883 632 963 q 869 597 869 803 q 741 167 869 335 q 325 0 613 0 l 38 0 l 172 963 l 433 963 m 374 797 l 285 164 l 358 164 q 576 294 511 164 q 640 597 640 424 q 590 755 640 713 q 447 797 540 797 l 374 797 m 333 -83 q 417 -115 385 -83 q 449 -194 449 -146 q 408 -293 449 -254 q 306 -332 367 -332 q 222 -301 254 -332 q 190 -222 190 -271 q 231 -123 190 -162 q 333 -83 272 -83 z "},"Ɗ":{"ha":1086,"x_min":58,"x_max":1064,"o":"m 628 963 q 945 883 826 963 q 1064 597 1064 803 q 935 167 1064 335 q 519 0 807 0 l 232 0 l 344 800 l 308 800 q 253 780 272 800 q 233 721 233 760 q 244 650 233 694 l 93 592 q 58 726 58 661 q 131 899 58 835 q 325 963 203 963 l 628 963 m 553 164 q 770 294 706 164 q 835 597 835 424 q 785 755 835 713 q 642 797 735 797 l 568 797 l 479 164 l 553 164 z "},"Ḏ":{"ha":892,"x_min":38,"x_max":869,"o":"m 433 963 q 751 883 632 963 q 869 597 869 803 q 741 167 869 335 q 325 0 613 0 l 38 0 l 172 963 l 433 963 m 374 797 l 285 164 l 358 164 q 576 294 511 164 q 640 597 640 424 q 590 755 640 713 q 447 797 540 797 l 374 797 m 135 -112 l 553 -112 l 532 -265 l 114 -265 l 135 -112 z "},"Ƌ":{"ha":818,"x_min":14,"x_max":813,"o":"m 678 0 l 342 0 q 103 71 192 0 q 14 283 14 142 q 128 532 14 444 q 436 619 242 619 l 540 619 l 564 790 l 206 790 l 229 963 l 813 963 l 678 0 m 476 165 l 518 461 l 436 461 q 297 415 343 461 q 250 290 250 368 q 283 194 250 224 q 388 165 317 165 l 476 165 z "},"ǲ":{"ha":1501,"x_min":38,"x_max":1524,"o":"m 433 963 q 751 883 632 963 q 869 597 869 803 q 741 167 869 335 q 325 0 613 0 l 38 0 l 172 963 l 433 963 m 374 797 l 285 164 l 358 164 q 576 294 511 164 q 640 597 640 424 q 590 755 640 713 q 447 797 540 797 l 374 797 m 1524 738 l 1503 583 l 1133 167 l 1451 167 l 1408 0 l 842 0 l 863 156 l 1233 572 l 950 572 l 974 738 l 1524 738 z "},"ǅ":{"ha":1501,"x_min":38,"x_max":1546,"o":"m 433 963 q 751 883 632 963 q 869 597 869 803 q 741 167 869 335 q 325 0 613 0 l 38 0 l 172 963 l 433 963 m 374 797 l 285 164 l 358 164 q 576 294 511 164 q 640 597 640 424 q 590 755 640 713 q 447 797 540 797 l 374 797 m 1524 738 l 1503 583 l 1133 167 l 1451 167 l 1408 0 l 842 0 l 863 156 l 1233 572 l 950 572 l 974 738 l 1524 738 m 1476 1129 l 1546 1039 l 1328 849 l 1196 849 l 1029 1039 l 1113 1129 l 1275 1003 l 1476 1129 z "},"E":{"ha":718,"x_min":38,"x_max":754,"o":"m 754 963 l 707 800 l 374 800 l 340 569 l 632 569 l 611 410 l 319 410 l 285 164 l 642 164 l 619 0 l 38 0 l 172 963 l 754 963 z "},"É":{"ha":718,"x_min":38,"x_max":754,"o":"m 754 963 l 707 800 l 374 800 l 340 569 l 632 569 l 611 410 l 319 410 l 285 164 l 642 164 l 619 0 l 38 0 l 172 963 l 754 963 m 631 1319 l 699 1154 l 358 1038 l 311 1146 l 631 1319 z "},"Ĕ":{"ha":718,"x_min":38,"x_max":754,"o":"m 754 963 l 707 800 l 374 800 l 340 569 l 632 569 l 611 410 l 319 410 l 285 164 l 642 164 l 619 0 l 38 0 l 172 963 l 754 963 m 479 1043 q 322 1109 375 1043 q 272 1269 268 1175 l 390 1288 q 422 1220 397 1246 q 490 1194 447 1194 q 569 1222 536 1194 q 622 1292 603 1249 l 742 1265 q 651 1107 721 1171 q 479 1043 581 1043 z "},"Ě":{"ha":718,"x_min":38,"x_max":760,"o":"m 754 963 l 707 800 l 374 800 l 340 569 l 632 569 l 611 410 l 319 410 l 285 164 l 642 164 l 619 0 l 38 0 l 172 963 l 754 963 m 690 1310 l 760 1221 l 543 1042 l 411 1042 l 242 1221 l 328 1310 l 493 1193 l 690 1310 z "},"Ȩ":{"ha":718,"x_min":38,"x_max":754,"o":"m 374 800 l 340 569 l 632 569 l 611 410 l 319 410 l 285 164 l 642 164 l 619 0 l 390 0 l 379 -67 q 474 -106 442 -74 q 506 -192 506 -139 q 483 -272 506 -232 q 410 -337 460 -311 q 282 -364 360 -364 q 198 -351 236 -364 q 133 -319 160 -339 l 194 -222 q 282 -244 235 -244 q 332 -233 314 -244 q 350 -199 350 -222 q 323 -165 350 -175 q 231 -156 296 -156 l 269 0 l 38 0 l 172 963 l 754 963 l 707 800 l 374 800 z "},"Ê":{"ha":718,"x_min":38,"x_max":754,"o":"m 754 963 l 707 800 l 374 800 l 340 569 l 632 569 l 611 410 l 319 410 l 285 164 l 642 164 l 619 0 l 38 0 l 172 963 l 754 963 m 293 1049 l 222 1139 l 440 1318 l 572 1318 l 740 1139 l 656 1049 l 489 1165 l 293 1049 z "},"Ế":{"ha":718,"x_min":38,"x_max":943,"o":"m 839 1517 l 943 1401 l 701 1206 l 626 1281 l 839 1517 m 289 1001 l 218 1092 l 436 1271 l 568 1271 l 736 1092 l 651 1001 l 485 1118 l 289 1001 m 754 963 l 707 800 l 374 800 l 340 569 l 632 569 l 611 410 l 319 410 l 285 164 l 642 164 l 619 0 l 38 0 l 172 963 l 754 963 z "},"Ệ":{"ha":718,"x_min":38,"x_max":754,"o":"m 754 963 l 707 800 l 374 800 l 340 569 l 632 569 l 611 410 l 319 410 l 285 164 l 642 164 l 619 0 l 38 0 l 172 963 l 754 963 m 293 1049 l 222 1139 l 440 1318 l 572 1318 l 740 1139 l 656 1049 l 489 1165 l 293 1049 m 313 -83 q 396 -115 364 -83 q 428 -194 428 -146 q 387 -293 428 -254 q 285 -332 346 -332 q 201 -301 233 -332 q 169 -222 169 -271 q 210 -123 169 -162 q 313 -83 251 -83 z "},"Ề":{"ha":718,"x_min":38,"x_max":754,"o":"m 215 1514 l 363 1274 l 276 1206 l 86 1407 l 215 1514 m 286 1001 l 215 1092 l 433 1271 l 565 1271 l 733 1092 l 649 1001 l 482 1118 l 286 1001 m 754 963 l 707 800 l 374 800 l 340 569 l 632 569 l 611 410 l 319 410 l 285 164 l 642 164 l 619 0 l 38 0 l 172 963 l 754 963 z "},"Ể":{"ha":718,"x_min":38,"x_max":921,"o":"m 754 963 l 707 800 l 374 800 l 340 569 l 632 569 l 611 410 l 319 410 l 285 164 l 642 164 l 619 0 l 38 0 l 172 963 l 754 963 m 285 1001 l 214 1092 l 432 1271 l 564 1271 l 732 1092 l 647 1001 l 481 1118 l 285 1001 m 664 1311 q 745 1328 718 1314 q 772 1372 772 1342 q 724 1407 772 1407 q 640 1388 683 1407 l 614 1482 q 760 1517 681 1517 q 879 1479 838 1517 q 921 1383 921 1442 q 786 1246 921 1271 l 779 1188 l 650 1188 l 664 1311 z "},"Ễ":{"ha":718,"x_min":38,"x_max":781,"o":"m 590 1308 q 542 1317 564 1308 q 496 1343 521 1326 q 467 1360 481 1353 q 440 1367 453 1367 q 399 1352 417 1367 q 357 1307 381 1338 l 258 1361 q 344 1470 294 1428 q 450 1513 394 1513 q 501 1503 479 1513 q 547 1476 524 1493 q 561 1468 550 1475 q 581 1458 572 1461 q 599 1454 590 1454 q 639 1468 621 1454 q 681 1513 657 1482 l 781 1458 q 694 1349 744 1390 q 590 1308 644 1308 m 283 1001 l 213 1092 l 431 1271 l 563 1271 l 731 1092 l 646 1001 l 479 1118 l 283 1001 m 754 963 l 707 800 l 374 800 l 340 569 l 632 569 l 611 410 l 319 410 l 285 164 l 642 164 l 619 0 l 38 0 l 172 963 l 754 963 z "},"Ȅ":{"ha":718,"x_min":38,"x_max":754,"o":"m 754 963 l 707 800 l 374 800 l 340 569 l 632 569 l 611 410 l 319 410 l 285 164 l 642 164 l 619 0 l 38 0 l 172 963 l 754 963 m 340 1369 l 436 1096 l 317 1043 l 186 1296 l 340 1369 m 579 1369 l 663 1096 l 544 1050 l 425 1300 l 579 1369 z "},"Ë":{"ha":718,"x_min":38,"x_max":765,"o":"m 754 963 l 707 800 l 374 800 l 340 569 l 632 569 l 611 410 l 319 410 l 285 164 l 642 164 l 619 0 l 38 0 l 172 963 l 754 963 m 324 1067 q 250 1094 278 1067 q 222 1163 222 1121 q 258 1250 222 1215 q 347 1285 294 1285 q 421 1257 393 1285 q 449 1188 449 1229 q 413 1101 449 1136 q 324 1067 376 1067 m 639 1067 q 566 1094 593 1067 q 539 1163 539 1121 q 575 1250 539 1215 q 664 1285 611 1285 q 738 1257 710 1285 q 765 1188 765 1229 q 728 1101 765 1136 q 639 1067 692 1067 z "},"Ė":{"ha":718,"x_min":38,"x_max":754,"o":"m 754 963 l 707 800 l 374 800 l 340 569 l 632 569 l 611 410 l 319 410 l 285 164 l 642 164 l 619 0 l 38 0 l 172 963 l 754 963 m 486 1051 q 403 1083 435 1051 q 371 1163 371 1114 q 412 1261 371 1222 q 514 1300 453 1300 q 597 1269 565 1300 q 629 1190 629 1239 q 588 1091 629 1131 q 486 1051 547 1051 z "},"Ẹ":{"ha":718,"x_min":38,"x_max":754,"o":"m 754 963 l 707 800 l 374 800 l 340 569 l 632 569 l 611 410 l 319 410 l 285 164 l 642 164 l 619 0 l 38 0 l 172 963 l 754 963 m 313 -83 q 396 -115 364 -83 q 428 -194 428 -146 q 387 -293 428 -254 q 285 -332 346 -332 q 201 -301 233 -332 q 169 -222 169 -271 q 210 -123 169 -162 q 313 -83 251 -83 z "},"È":{"ha":718,"x_min":38,"x_max":754,"o":"m 754 963 l 707 800 l 374 800 l 340 569 l 632 569 l 611 410 l 319 410 l 285 164 l 642 164 l 619 0 l 38 0 l 172 963 l 754 963 m 408 1318 l 686 1146 l 628 1039 l 317 1153 l 408 1318 z "},"Ẻ":{"ha":718,"x_min":38,"x_max":754,"o":"m 754 963 l 707 800 l 374 800 l 340 569 l 632 569 l 611 410 l 319 410 l 285 164 l 642 164 l 619 0 l 38 0 l 172 963 l 754 963 m 429 1185 q 510 1201 483 1188 q 538 1246 538 1215 q 489 1281 538 1281 q 406 1261 449 1281 l 379 1356 q 525 1390 446 1390 q 644 1353 603 1390 q 686 1257 686 1315 q 551 1119 686 1144 l 544 1061 l 415 1061 l 429 1185 z "},"Ȇ":{"ha":718,"x_min":38,"x_max":754,"o":"m 754 963 l 707 800 l 374 800 l 340 569 l 632 569 l 611 410 l 319 410 l 285 164 l 642 164 l 619 0 l 38 0 l 172 963 l 754 963 m 244 1085 q 338 1255 267 1189 q 514 1321 410 1321 q 674 1252 619 1321 q 722 1079 728 1183 l 599 1063 q 499 1168 588 1168 q 363 1058 406 1168 l 244 1085 z "},"Ē":{"ha":718,"x_min":38,"x_max":754,"o":"m 754 963 l 707 800 l 374 800 l 340 569 l 632 569 l 611 410 l 319 410 l 285 164 l 642 164 l 619 0 l 38 0 l 172 963 l 754 963 m 692 1085 l 274 1085 l 294 1238 l 713 1238 l 692 1085 z "},"Ę":{"ha":718,"x_min":38,"x_max":754,"o":"m 374 800 l 340 569 l 632 569 l 611 410 l 319 410 l 285 164 l 642 164 l 619 0 l 567 0 q 381 -158 381 -67 q 442 -204 381 -204 q 529 -193 478 -204 l 499 -331 q 403 -340 458 -340 q 270 -301 321 -340 q 219 -196 219 -262 q 354 0 219 -78 l 38 0 l 172 963 l 754 963 l 707 800 l 374 800 z "},"Ɛ":{"ha":739,"x_min":18,"x_max":781,"o":"m 471 986 q 647 954 574 986 q 781 857 721 922 l 660 744 q 488 821 583 821 q 377 785 415 821 q 339 690 339 749 q 371 615 339 640 q 464 589 403 589 l 569 589 l 519 425 l 449 425 q 302 384 354 425 q 250 265 250 343 q 392 144 250 144 q 499 167 449 144 q 600 232 549 189 l 706 110 q 357 -24 565 -24 q 179 9 256 -24 q 60 102 103 42 q 18 243 18 163 q 92 430 18 363 q 294 511 165 497 q 158 583 204 532 q 113 707 113 633 q 161 853 113 790 q 292 951 210 917 q 471 986 375 986 z "},"Ǝ":{"ha":715,"x_min":-7,"x_max":708,"o":"m 135 963 l 708 963 l 574 0 l -7 0 l 15 164 l 372 164 l 407 410 l 115 410 l 138 569 l 429 569 l 463 800 l 111 800 l 135 963 z "},"Ʃ":{"ha":688,"x_min":-22,"x_max":742,"o":"m 742 963 l 718 797 l 331 797 l 522 514 l 513 422 l 249 168 l 631 168 l 607 0 l -22 0 l 0 165 l 307 475 l 90 797 l 113 963 l 742 963 z "},"Ɇ":{"ha":718,"x_min":38,"x_max":754,"o":"m 707 800 l 636 800 l 543 569 l 632 569 l 611 410 l 478 410 l 379 164 l 642 164 l 619 0 l 313 0 l 271 -103 l 190 -85 l 225 0 l 38 0 l 172 963 l 615 963 l 651 1050 l 729 1031 l 701 963 l 754 963 l 707 800 m 456 569 l 550 800 l 374 800 l 340 569 l 456 569 m 292 164 l 392 410 l 319 410 l 285 164 l 292 164 z "},"Ẽ":{"ha":718,"x_min":38,"x_max":760,"o":"m 754 963 l 707 800 l 374 800 l 340 569 l 632 569 l 611 410 l 319 410 l 285 164 l 642 164 l 619 0 l 38 0 l 172 963 l 754 963 m 567 1057 q 519 1066 539 1057 q 469 1094 500 1075 q 440 1113 451 1107 q 415 1119 428 1119 q 372 1104 390 1119 q 331 1056 354 1089 l 231 1114 q 318 1231 268 1186 q 425 1275 368 1275 q 477 1265 456 1275 q 525 1236 499 1254 q 551 1218 540 1224 q 575 1213 563 1213 q 616 1227 597 1213 q 658 1275 635 1242 l 760 1218 q 671 1101 721 1144 q 567 1057 621 1057 z "},"Ʒ":{"ha":753,"x_min":-24,"x_max":750,"o":"m 729 803 l 454 560 q 642 493 575 554 q 708 325 708 432 q 653 139 708 218 q 503 18 599 60 q 292 -24 408 -24 q 102 13 178 -24 q -24 121 26 50 l 104 231 q 188 165 146 185 q 290 146 229 146 q 424 192 372 146 q 476 317 476 239 q 438 402 476 376 q 324 428 400 428 l 186 428 l 188 429 l 204 556 l 472 797 l 125 797 l 147 963 l 750 963 l 729 803 z "},"Ǯ":{"ha":753,"x_min":-24,"x_max":750,"o":"m 729 803 l 454 560 q 642 493 575 554 q 708 325 708 432 q 653 139 708 218 q 503 18 599 60 q 292 -24 408 -24 q 102 13 178 -24 q -24 121 26 50 l 104 231 q 188 165 146 185 q 290 146 229 146 q 424 192 372 146 q 476 317 476 239 q 438 402 476 376 q 324 428 400 428 l 186 428 l 188 429 l 204 556 l 472 797 l 125 797 l 147 963 l 750 963 l 729 803 m 674 1310 l 743 1221 l 526 1042 l 394 1042 l 225 1221 l 311 1310 l 476 1193 l 674 1310 z "},"Ƹ":{"ha":756,"x_min":22,"x_max":771,"o":"m 747 797 l 388 797 l 599 553 l 582 428 l 579 429 l 581 428 l 449 428 q 306 383 358 428 q 254 258 254 338 q 288 175 254 204 q 382 146 321 146 q 499 167 447 146 q 606 233 550 188 l 708 117 q 554 13 640 49 q 354 -24 468 -24 q 110 51 197 -24 q 22 251 22 126 q 67 410 22 342 q 190 519 111 479 q 364 560 268 558 l 147 803 l 168 963 l 771 963 l 747 797 z "},"F":{"ha":665,"x_min":38,"x_max":738,"o":"m 738 963 l 692 800 l 374 800 l 338 544 l 615 544 l 593 382 l 315 382 l 261 0 l 38 0 l 172 963 l 738 963 z "},"Ḟ":{"ha":665,"x_min":38,"x_max":738,"o":"m 738 963 l 692 800 l 374 800 l 338 544 l 615 544 l 593 382 l 315 382 l 261 0 l 38 0 l 172 963 l 738 963 m 476 1051 q 393 1083 425 1051 q 361 1163 361 1114 q 402 1261 361 1222 q 504 1300 443 1300 q 588 1269 556 1300 q 619 1190 619 1239 q 578 1091 619 1131 q 476 1051 538 1051 z "},"Ƒ":{"ha":665,"x_min":-240,"x_max":738,"o":"m 374 800 l 338 544 l 615 544 l 593 382 l 315 382 l 261 0 l 254 -47 q 153 -242 233 -176 q -53 -308 72 -308 q -240 -247 -164 -308 l -150 -115 q -106 -137 -124 -131 q -61 -143 -87 -143 q 0 -121 -24 -143 q 29 -56 24 -99 l 38 0 l 172 963 l 738 963 l 692 800 l 374 800 z "},"G":{"ha":881,"x_min":53,"x_max":883,"o":"m 579 986 q 883 864 768 986 l 758 751 q 671 805 711 789 q 576 821 631 821 q 404 748 469 821 q 311 566 339 675 q 283 340 283 457 q 322 189 283 235 q 440 143 361 143 q 575 175 508 143 l 606 393 l 483 393 l 485 554 l 846 554 l 781 78 q 610 3 703 29 q 426 -24 518 -24 q 147 74 242 -24 q 53 360 53 172 q 108 658 53 515 q 281 894 163 801 q 579 986 400 986 z "},"Ǵ":{"ha":881,"x_min":53,"x_max":883,"o":"m 579 986 q 883 864 768 986 l 758 751 q 671 805 711 789 q 576 821 631 821 q 404 748 469 821 q 311 566 339 675 q 283 340 283 457 q 322 189 283 235 q 440 143 361 143 q 575 175 508 143 l 606 393 l 483 393 l 485 554 l 846 554 l 781 78 q 610 3 703 29 q 426 -24 518 -24 q 147 74 242 -24 q 53 360 53 172 q 108 658 53 515 q 281 894 163 801 q 579 986 400 986 m 735 1319 l 803 1154 l 463 1038 l 415 1146 l 735 1319 z "},"Ɣ":{"ha":781,"x_min":64,"x_max":882,"o":"m 469 119 q 516 1 501 50 q 531 -100 531 -47 q 470 -254 531 -200 q 301 -308 410 -308 q 161 -265 208 -308 q 114 -146 114 -221 q 146 -21 114 -85 q 243 128 178 43 l 64 963 l 299 963 l 376 275 l 650 963 l 882 963 l 469 119 m 364 -104 q 342 11 364 -58 q 282 -131 282 -81 q 314 -165 282 -165 q 351 -149 339 -165 q 364 -104 364 -132 z "},"Ğ":{"ha":881,"x_min":53,"x_max":883,"o":"m 579 986 q 883 864 768 986 l 758 751 q 671 805 711 789 q 576 821 631 821 q 404 748 469 821 q 311 566 339 675 q 283 340 283 457 q 322 189 283 235 q 440 143 361 143 q 575 175 508 143 l 606 393 l 483 393 l 485 554 l 846 554 l 781 78 q 610 3 703 29 q 426 -24 518 -24 q 147 74 242 -24 q 53 360 53 172 q 108 658 53 515 q 281 894 163 801 q 579 986 400 986 m 583 1043 q 426 1109 479 1043 q 376 1269 372 1175 l 494 1288 q 526 1220 501 1246 q 594 1194 551 1194 q 674 1222 640 1194 q 726 1292 707 1249 l 846 1265 q 755 1107 825 1171 q 583 1043 685 1043 z "},"Ǧ":{"ha":881,"x_min":53,"x_max":883,"o":"m 579 986 q 883 864 768 986 l 758 751 q 671 805 711 789 q 576 821 631 821 q 404 748 469 821 q 311 566 339 675 q 283 340 283 457 q 322 189 283 235 q 440 143 361 143 q 575 175 508 143 l 606 393 l 483 393 l 485 554 l 846 554 l 781 78 q 610 3 703 29 q 426 -24 518 -24 q 147 74 242 -24 q 53 360 53 172 q 108 658 53 515 q 281 894 163 801 q 579 986 400 986 m 794 1310 l 864 1221 l 647 1042 l 515 1042 l 346 1221 l 432 1310 l 597 1193 l 794 1310 z "},"Ĝ":{"ha":881,"x_min":53,"x_max":883,"o":"m 579 986 q 883 864 768 986 l 758 751 q 671 805 711 789 q 576 821 631 821 q 404 748 469 821 q 311 566 339 675 q 283 340 283 457 q 322 189 283 235 q 440 143 361 143 q 575 175 508 143 l 606 393 l 483 393 l 485 554 l 846 554 l 781 78 q 610 3 703 29 q 426 -24 518 -24 q 147 74 242 -24 q 53 360 53 172 q 108 658 53 515 q 281 894 163 801 q 579 986 400 986 m 397 1049 l 326 1139 l 544 1318 l 676 1318 l 844 1139 l 760 1049 l 593 1165 l 397 1049 z "},"Ģ":{"ha":881,"x_min":53,"x_max":883,"o":"m 579 986 q 883 864 768 986 l 758 751 q 671 805 711 789 q 576 821 631 821 q 404 748 469 821 q 311 566 339 675 q 283 340 283 457 q 322 189 283 235 q 440 143 361 143 q 575 175 508 143 l 606 393 l 483 393 l 485 554 l 846 554 l 781 78 q 610 3 703 29 q 426 -24 518 -24 q 147 74 242 -24 q 53 360 53 172 q 108 658 53 515 q 281 894 163 801 q 579 986 400 986 m 413 -94 q 485 -122 457 -94 q 513 -190 513 -149 q 501 -251 513 -222 q 460 -324 489 -279 l 379 -451 l 271 -451 l 333 -289 q 296 -214 296 -258 q 330 -128 296 -161 q 413 -94 364 -94 z "},"Ġ":{"ha":881,"x_min":53,"x_max":883,"o":"m 579 986 q 883 864 768 986 l 758 751 q 671 805 711 789 q 576 821 631 821 q 404 748 469 821 q 311 566 339 675 q 283 340 283 457 q 322 189 283 235 q 440 143 361 143 q 575 175 508 143 l 606 393 l 483 393 l 485 554 l 846 554 l 781 78 q 610 3 703 29 q 426 -24 518 -24 q 147 74 242 -24 q 53 360 53 172 q 108 658 53 515 q 281 894 163 801 q 579 986 400 986 m 590 1051 q 507 1083 539 1051 q 475 1163 475 1114 q 516 1261 475 1222 q 618 1300 557 1300 q 701 1269 669 1300 q 733 1190 733 1239 q 692 1091 733 1131 q 590 1051 651 1051 z "},"Ɠ":{"ha":849,"x_min":51,"x_max":1143,"o":"m 964 1182 q 1143 1129 1065 1182 l 1064 996 q 1022 1015 1040 1010 q 978 1021 1003 1021 q 892 933 901 1021 l 883 864 l 769 763 q 576 821 678 821 q 403 748 469 821 q 310 566 338 675 q 282 340 282 457 q 321 189 282 235 q 440 143 360 143 q 574 175 507 143 l 606 393 l 482 393 l 485 554 l 844 554 l 779 78 q 610 3 701 29 q 425 -24 518 -24 q 146 74 240 -24 q 51 360 51 172 q 109 656 51 511 q 282 893 167 800 q 560 986 397 986 q 704 958 642 986 q 787 1124 721 1067 q 964 1182 853 1182 z "},"Ɂ":{"ha":707,"x_min":81,"x_max":725,"o":"m 221 458 l 299 481 q 444 560 394 507 q 493 701 493 614 q 463 790 493 760 q 375 821 433 821 q 276 801 324 821 q 178 742 229 782 l 81 861 q 233 955 154 924 q 414 986 313 986 q 642 914 558 986 q 725 717 725 842 q 474 399 725 475 l 436 388 l 381 0 l 157 0 l 221 458 z "},"Ǥ":{"ha":924,"x_min":53,"x_max":914,"o":"m 896 244 l 803 244 l 781 78 q 610 3 703 29 q 426 -24 518 -24 q 147 74 242 -24 q 53 360 53 172 q 108 658 53 515 q 281 894 163 801 q 579 986 400 986 q 883 864 768 986 l 754 749 q 671 804 711 788 q 576 821 631 821 q 404 748 469 821 q 311 566 339 675 q 283 340 283 457 q 322 189 283 235 q 440 143 361 143 q 583 175 517 143 l 593 244 l 460 244 l 478 376 l 611 376 l 619 436 l 488 436 l 488 575 l 849 575 l 821 376 l 914 376 l 896 244 z "},"Ȝ":{"ha":711,"x_min":25,"x_max":697,"o":"m 404 986 q 619 920 542 986 q 697 746 697 854 q 456 496 697 554 q 610 442 553 492 q 667 303 667 392 q 486 9 667 125 q 25 -157 306 -107 l 26 7 q 328 126 224 58 q 432 306 432 194 q 396 386 432 361 q 282 411 360 411 l 181 411 l 228 575 l 304 575 q 424 616 379 575 q 468 726 468 657 q 363 821 468 821 q 160 744 267 821 l 67 861 q 404 986 217 986 z "},"H":{"ha":911,"x_min":38,"x_max":904,"o":"m 261 0 l 38 0 l 172 963 l 396 963 l 343 590 l 628 590 l 681 963 l 904 963 l 769 0 l 546 0 l 603 413 l 319 413 l 261 0 z "},"Ħ":{"ha":936,"x_min":47,"x_max":975,"o":"m 975 822 l 956 694 l 876 694 l 779 0 l 556 0 l 613 413 l 329 413 l 271 0 l 47 0 l 144 694 l 67 694 l 86 822 l 163 822 l 182 963 l 406 963 l 386 822 l 671 822 l 690 963 l 914 963 l 894 822 l 975 822 m 638 590 l 653 694 l 368 694 l 353 590 l 638 590 z "},"Ȟ":{"ha":911,"x_min":38,"x_max":904,"o":"m 261 0 l 38 0 l 172 963 l 396 963 l 343 590 l 628 590 l 681 963 l 904 963 l 769 0 l 546 0 l 603 413 l 319 413 l 261 0 m 764 1310 l 833 1221 l 617 1042 l 485 1042 l 315 1221 l 401 1310 l 567 1193 l 764 1310 z "},"Ĥ":{"ha":911,"x_min":38,"x_max":904,"o":"m 261 0 l 38 0 l 172 963 l 396 963 l 343 590 l 628 590 l 681 963 l 904 963 l 769 0 l 546 0 l 603 413 l 319 413 l 261 0 m 367 1049 l 296 1139 l 514 1318 l 646 1318 l 814 1139 l 729 1049 l 563 1165 l 367 1049 z "},"Ḥ":{"ha":911,"x_min":38,"x_max":904,"o":"m 261 0 l 38 0 l 172 963 l 396 963 l 343 590 l 628 590 l 681 963 l 904 963 l 769 0 l 546 0 l 603 413 l 319 413 l 261 0 m 390 -83 q 474 -115 442 -83 q 506 -194 506 -146 q 465 -293 506 -254 q 363 -332 424 -332 q 279 -301 311 -332 q 247 -222 247 -271 q 288 -123 247 -162 q 390 -83 329 -83 z "},"Ɦ":{"ha":1106,"x_min":58,"x_max":1099,"o":"m 1099 963 l 964 0 l 740 0 l 797 413 l 514 413 l 456 0 l 232 0 l 344 800 l 308 800 q 253 780 272 800 q 233 721 233 760 q 244 650 233 694 l 93 592 q 58 726 58 661 q 131 899 58 835 q 325 963 203 963 l 590 963 l 538 590 l 822 590 l 875 963 l 1099 963 z "},"Ɥ":{"ha":847,"x_min":58,"x_max":840,"o":"m 840 963 l 706 0 l 482 0 l 532 353 q 427 299 479 315 q 313 282 375 282 q 125 352 192 282 q 58 546 58 422 q 64 615 58 568 l 113 963 l 333 963 l 283 614 q 279 567 279 588 q 307 478 279 506 q 394 451 335 451 q 553 507 485 451 l 617 963 l 840 963 z "},"Ƕ":{"ha":1299,"x_min":38,"x_max":1256,"o":"m 849 -24 q 647 42 715 -24 q 578 208 578 108 q 581 246 578 221 l 603 413 l 319 413 l 261 0 l 38 0 l 172 963 l 396 963 l 343 590 l 629 590 l 682 963 l 906 963 l 806 253 q 803 217 803 228 q 868 138 803 138 q 1009 283 971 138 q 1047 611 1047 428 q 1040 738 1047 683 l 1244 738 q 1256 576 1256 660 q 1167 135 1256 294 q 849 -24 1078 -24 z "},"I":{"ha":403,"x_min":38,"x_max":396,"o":"m 396 963 l 261 0 l 38 0 l 172 963 l 396 963 z "},"Ĳ":{"ha":835,"x_min":38,"x_max":832,"o":"m 396 963 l 261 0 l 38 0 l 172 963 l 396 963 m 718 144 q 651 -46 701 29 q 528 -163 600 -121 q 361 -236 457 -206 l 321 -74 q 419 -19 383 -50 q 470 53 454 13 q 494 157 486 94 l 608 963 l 832 963 l 718 144 z "},"Í":{"ha":403,"x_min":38,"x_max":518,"o":"m 396 963 l 261 0 l 38 0 l 172 963 l 396 963 m 450 1319 l 518 1154 l 178 1038 l 131 1146 l 450 1319 z "},"Ĭ":{"ha":403,"x_min":38,"x_max":561,"o":"m 396 963 l 261 0 l 38 0 l 172 963 l 396 963 m 299 1043 q 141 1109 194 1043 q 92 1269 88 1175 l 210 1288 q 242 1220 217 1246 q 310 1194 267 1194 q 389 1222 356 1194 q 442 1292 422 1249 l 561 1265 q 470 1107 540 1171 q 299 1043 400 1043 z "},"Ǐ":{"ha":403,"x_min":38,"x_max":579,"o":"m 396 963 l 261 0 l 38 0 l 172 963 l 396 963 m 510 1310 l 579 1221 l 363 1042 l 231 1042 l 61 1221 l 147 1310 l 313 1193 l 510 1310 z "},"Î":{"ha":403,"x_min":38,"x_max":560,"o":"m 396 963 l 261 0 l 38 0 l 172 963 l 396 963 m 113 1049 l 42 1139 l 260 1318 l 392 1318 l 560 1139 l 475 1049 l 308 1165 l 113 1049 z "},"Ȉ":{"ha":403,"x_min":6,"x_max":482,"o":"m 396 963 l 261 0 l 38 0 l 172 963 l 396 963 m 160 1369 l 256 1096 l 136 1043 l 6 1296 l 160 1369 m 399 1369 l 482 1096 l 364 1050 l 244 1300 l 399 1369 z "},"Ï":{"ha":403,"x_min":38,"x_max":585,"o":"m 396 963 l 261 0 l 38 0 l 172 963 l 396 963 m 143 1067 q 69 1094 97 1067 q 42 1163 42 1121 q 78 1250 42 1215 q 167 1285 114 1285 q 240 1257 213 1285 q 268 1188 268 1229 q 232 1101 268 1136 q 143 1067 196 1067 m 458 1067 q 385 1094 413 1067 q 358 1163 358 1121 q 394 1250 358 1215 q 483 1285 431 1285 q 557 1257 529 1285 q 585 1188 585 1229 q 548 1101 585 1136 q 458 1067 511 1067 z "},"Ḯ":{"ha":403,"x_min":29,"x_max":590,"o":"m 396 963 l 261 0 l 38 0 l 172 963 l 396 963 m 456 1522 l 560 1407 l 318 1211 l 243 1286 l 456 1522 m 131 1040 q 57 1067 85 1040 q 29 1138 29 1094 q 66 1224 29 1189 q 156 1258 103 1258 q 229 1231 201 1258 q 257 1161 257 1204 q 220 1075 257 1110 q 131 1040 183 1040 m 465 1040 q 392 1067 419 1040 q 364 1138 364 1094 q 400 1224 364 1189 q 489 1258 436 1258 q 563 1231 535 1258 q 590 1161 590 1204 q 554 1075 590 1110 q 465 1040 518 1040 z "},"İ":{"ha":403,"x_min":38,"x_max":449,"o":"m 396 963 l 261 0 l 38 0 l 172 963 l 396 963 m 306 1051 q 222 1083 254 1051 q 190 1163 190 1114 q 231 1261 190 1222 q 333 1300 272 1300 q 417 1269 385 1300 q 449 1190 449 1239 q 408 1091 449 1131 q 306 1051 367 1051 z "},"Ị":{"ha":403,"x_min":-11,"x_max":396,"o":"m 396 963 l 261 0 l 38 0 l 172 963 l 396 963 m 132 -83 q 215 -115 183 -83 q 247 -194 247 -146 q 206 -293 247 -254 q 104 -332 165 -332 q 21 -301 53 -332 q -11 -222 -11 -271 q 30 -123 -11 -162 q 132 -83 71 -83 z "},"Ì":{"ha":403,"x_min":38,"x_max":506,"o":"m 396 963 l 261 0 l 38 0 l 172 963 l 396 963 m 228 1318 l 506 1146 l 447 1039 l 136 1153 l 228 1318 z "},"Ỉ":{"ha":403,"x_min":38,"x_max":506,"o":"m 396 963 l 261 0 l 38 0 l 172 963 l 396 963 m 249 1185 q 330 1201 303 1188 q 357 1246 357 1215 q 308 1281 357 1281 q 225 1261 268 1281 l 199 1356 q 344 1390 265 1390 q 464 1353 422 1390 q 506 1257 506 1315 q 371 1119 506 1144 l 364 1061 l 235 1061 l 249 1185 z "},"Ȋ":{"ha":403,"x_min":38,"x_max":542,"o":"m 396 963 l 261 0 l 38 0 l 172 963 l 396 963 m 64 1085 q 158 1255 86 1189 q 333 1321 229 1321 q 493 1252 439 1321 q 542 1079 547 1183 l 418 1063 q 318 1168 407 1168 q 182 1058 225 1168 l 64 1085 z "},"Ī":{"ha":403,"x_min":38,"x_max":532,"o":"m 396 963 l 261 0 l 38 0 l 172 963 l 396 963 m 511 1085 l 93 1085 l 114 1238 l 532 1238 l 511 1085 z "},"Į":{"ha":403,"x_min":-133,"x_max":396,"o":"m 396 963 l 261 0 l 214 0 q 28 -158 28 -67 q 89 -204 28 -204 q 176 -193 125 -204 l 146 -331 q 50 -340 106 -340 q -83 -301 -32 -340 q -133 -196 -133 -262 q 40 19 -133 -61 l 172 963 l 396 963 z "},"Ɩ":{"ha":529,"x_min":54,"x_max":496,"o":"m 496 33 q 299 -24 411 -24 q 119 31 183 -24 q 54 190 54 85 q 58 243 54 217 l 64 285 l 160 963 l 383 963 l 288 285 l 279 224 q 278 201 278 215 q 338 142 278 142 q 388 149 367 142 q 439 169 410 156 l 496 33 z "},"Ɨ":{"ha":458,"x_min":17,"x_max":476,"o":"m 476 583 l 453 417 l 349 417 l 290 0 l 67 0 l 125 417 l 17 417 l 40 583 l 149 583 l 201 963 l 425 963 l 372 583 l 476 583 z "},"Ĩ":{"ha":403,"x_min":38,"x_max":579,"o":"m 396 963 l 261 0 l 38 0 l 172 963 l 396 963 m 386 1057 q 339 1066 358 1057 q 289 1094 319 1075 q 259 1113 271 1107 q 235 1119 247 1119 q 192 1104 210 1119 q 150 1056 174 1089 l 50 1114 q 138 1231 88 1186 q 244 1275 188 1275 q 297 1265 275 1275 q 344 1236 318 1254 q 371 1218 360 1224 q 394 1213 382 1213 q 435 1227 417 1213 q 478 1275 454 1242 l 579 1218 q 490 1101 540 1144 q 386 1057 440 1057 z "},"J":{"ha":432,"x_min":-82,"x_max":429,"o":"m 315 144 q 248 -46 299 29 q 126 -163 197 -121 q -42 -236 54 -206 l -82 -74 q 16 -19 -19 -50 q 67 53 51 13 q 92 157 83 94 l 206 963 l 429 963 l 315 144 z "},"Ĵ":{"ha":432,"x_min":-82,"x_max":592,"o":"m 315 144 q 248 -46 299 29 q 126 -163 197 -121 q -42 -236 54 -206 l -82 -74 q 16 -19 -19 -50 q 67 53 51 13 q 92 157 83 94 l 206 963 l 429 963 l 315 144 m 144 1049 l 74 1139 l 292 1318 l 424 1318 l 592 1139 l 507 1049 l 340 1165 l 144 1049 z "},"Ʝ":{"ha":494,"x_min":-185,"x_max":488,"o":"m 351 -11 q 483 -65 421 -31 l 436 -156 q 325 -114 378 -129 q 215 -260 289 -212 q 19 -308 142 -308 q -131 -266 -78 -308 q -185 -149 -185 -224 q -119 -17 -185 -64 q 47 31 -53 31 q 133 28 97 31 l 264 963 l 488 963 l 356 17 l 351 -11 m 13 -193 q 83 -167 60 -193 q 118 -78 107 -140 q 44 -75 82 -75 q -22 -94 1 -75 q -46 -143 -46 -112 q 13 -193 -46 -193 z "},"Ɉ":{"ha":457,"x_min":-81,"x_max":479,"o":"m 456 392 l 351 392 l 317 144 q 249 -46 300 29 q 127 -163 199 -121 q -40 -236 56 -206 l -81 -74 q 17 -19 -18 -50 q 69 53 53 13 q 93 157 85 94 l 126 392 l 19 392 l 43 561 l 150 561 l 207 963 l 431 963 l 375 561 l 479 561 l 456 392 z "},"K":{"ha":865,"x_min":38,"x_max":942,"o":"m 38 0 l 172 963 l 397 963 l 263 0 l 38 0 m 575 0 l 342 514 l 701 963 l 942 963 l 574 517 l 831 0 l 575 0 z "},"Ǩ":{"ha":865,"x_min":38,"x_max":942,"o":"m 38 0 l 172 963 l 397 963 l 263 0 l 38 0 m 575 0 l 342 514 l 701 963 l 942 963 l 574 517 l 831 0 l 575 0 m 760 1310 l 829 1221 l 613 1042 l 481 1042 l 311 1221 l 397 1310 l 563 1193 l 760 1310 z "},"Ķ":{"ha":865,"x_min":38,"x_max":942,"o":"m 38 0 l 172 963 l 397 963 l 263 0 l 38 0 m 575 0 l 342 514 l 701 963 l 942 963 l 574 517 l 831 0 l 575 0 m 382 -94 q 454 -122 426 -94 q 482 -190 482 -149 q 470 -251 482 -222 q 429 -324 458 -279 l 349 -451 l 240 -451 l 303 -289 q 265 -214 265 -258 q 299 -128 265 -161 q 382 -94 333 -94 z "},"Ƙ":{"ha":897,"x_min":38,"x_max":994,"o":"m 342 514 l 583 831 q 703 952 649 918 q 839 986 757 986 q 928 972 892 986 q 994 929 964 957 l 915 807 q 888 819 900 815 q 858 824 876 824 q 810 809 831 824 q 754 750 789 794 l 575 519 l 831 0 l 574 0 l 342 514 m 38 0 l 172 963 l 397 963 l 263 0 l 38 0 z "},"L":{"ha":703,"x_min":38,"x_max":656,"o":"m 396 963 l 288 181 l 656 181 l 608 0 l 38 0 l 172 963 l 396 963 z "},"Ǉ":{"ha":1103,"x_min":38,"x_max":1100,"o":"m 396 963 l 288 181 l 656 181 l 608 0 l 38 0 l 172 963 l 396 963 m 986 144 q 919 -46 969 29 q 797 -163 868 -121 q 629 -236 725 -206 l 589 -74 q 687 -19 651 -50 q 738 53 722 13 q 763 157 754 94 l 876 963 l 1100 963 l 986 144 z "},"Ĺ":{"ha":703,"x_min":38,"x_max":656,"o":"m 396 963 l 288 181 l 656 181 l 608 0 l 38 0 l 172 963 l 396 963 m 450 1319 l 518 1154 l 178 1038 l 131 1146 l 450 1319 z "},"Ƚ":{"ha":726,"x_min":18,"x_max":679,"o":"m 311 181 l 679 181 l 632 0 l 61 0 l 119 419 l 18 419 l 42 589 l 143 589 l 196 963 l 419 963 l 368 589 l 478 589 l 454 419 l 344 419 l 311 181 z "},"Ɬ":{"ha":846,"x_min":24,"x_max":799,"o":"m 799 181 l 751 0 l 181 0 l 229 350 q 76 399 128 354 q 24 517 24 443 q 79 646 24 597 q 224 694 135 694 q 276 688 253 694 l 315 963 l 539 963 l 472 479 q 588 489 538 483 l 624 493 l 625 374 q 454 354 519 357 l 431 181 l 799 181 m 172 525 q 247 476 172 476 l 261 575 q 226 579 249 579 q 188 565 203 579 q 172 525 172 550 z "},"Ľ":{"ha":703,"x_min":38,"x_max":656,"o":"m 396 963 l 288 181 l 656 181 l 608 0 l 38 0 l 172 963 l 396 963 m 479 982 l 639 963 l 533 664 l 422 675 l 479 982 z "},"Ḽ":{"ha":703,"x_min":22,"x_max":656,"o":"m 396 963 l 288 181 l 656 181 l 608 0 l 38 0 l 172 963 l 396 963 m 92 -368 l 22 -278 l 242 -87 l 372 -87 l 540 -278 l 451 -368 l 289 -240 l 92 -368 z "},"Ļ":{"ha":703,"x_min":38,"x_max":656,"o":"m 396 963 l 288 181 l 656 181 l 608 0 l 38 0 l 172 963 l 396 963 m 313 -94 q 385 -122 357 -94 q 413 -190 413 -149 q 401 -251 413 -222 q 360 -324 389 -279 l 279 -451 l 171 -451 l 233 -289 q 196 -214 196 -258 q 230 -128 196 -161 q 313 -94 264 -94 z "},"Ŀ":{"ha":703,"x_min":38,"x_max":699,"o":"m 396 963 l 288 181 l 656 181 l 608 0 l 38 0 l 172 963 l 396 963 m 556 428 q 472 459 504 428 q 440 539 440 490 q 481 638 440 599 q 583 676 522 676 q 667 646 635 676 q 699 567 699 615 q 658 467 699 507 q 556 428 617 428 z "},"Ḷ":{"ha":703,"x_min":38,"x_max":656,"o":"m 396 963 l 288 181 l 656 181 l 608 0 l 38 0 l 172 963 l 396 963 m 307 -83 q 390 -115 358 -83 q 422 -194 422 -146 q 381 -293 422 -254 q 279 -332 340 -332 q 196 -301 228 -332 q 164 -222 164 -271 q 205 -123 164 -162 q 307 -83 246 -83 z "},"ǈ":{"ha":1065,"x_min":38,"x_max":1092,"o":"m 396 963 l 288 181 l 656 181 l 608 0 l 38 0 l 172 963 l 396 963 m 543 -153 q 669 -71 628 -118 q 725 72 711 -24 l 817 738 l 1032 738 l 940 81 q 879 -109 925 -35 q 765 -228 833 -183 q 597 -308 697 -272 l 543 -153 m 949 876 q 865 908 897 876 q 833 988 833 939 q 874 1086 833 1047 q 976 1125 915 1125 q 1060 1094 1028 1125 q 1092 1015 1092 1064 q 1051 916 1092 956 q 949 876 1010 876 z "},"Ł":{"ha":749,"x_min":11,"x_max":703,"o":"m 335 181 l 703 181 l 656 0 l 85 0 l 128 311 l 68 275 l 11 396 l 151 478 l 219 963 l 443 963 l 396 618 l 586 729 l 644 610 l 372 453 l 335 181 z "},"M":{"ha":1076,"x_min":-7,"x_max":1042,"o":"m 979 0 l 760 0 l 794 379 q 847 788 817 614 l 607 101 l 392 101 l 328 785 q 312 575 324 672 q 279 371 300 478 l 213 0 l -7 0 l 200 963 l 474 963 l 525 294 l 750 963 l 1042 963 l 979 0 z "},"Ḿ":{"ha":1076,"x_min":-7,"x_max":1042,"o":"m 979 0 l 760 0 l 794 379 q 847 788 817 614 l 607 101 l 392 101 l 328 785 q 312 575 324 672 q 279 371 300 478 l 213 0 l -7 0 l 200 963 l 474 963 l 525 294 l 750 963 l 1042 963 l 979 0 m 778 1319 l 846 1154 l 506 1038 l 458 1146 l 778 1319 z "},"Ṁ":{"ha":1076,"x_min":-7,"x_max":1042,"o":"m 979 0 l 760 0 l 794 379 q 847 788 817 614 l 607 101 l 392 101 l 328 785 q 312 575 324 672 q 279 371 300 478 l 213 0 l -7 0 l 200 963 l 474 963 l 525 294 l 750 963 l 1042 963 l 979 0 m 633 1051 q 550 1083 582 1051 q 518 1163 518 1114 q 559 1261 518 1222 q 661 1300 600 1300 q 744 1269 713 1300 q 776 1190 776 1239 q 735 1091 776 1131 q 633 1051 694 1051 z "},"Ɯ":{"ha":1253,"x_min":54,"x_max":1246,"o":"m 1246 963 l 1111 0 l 915 0 l 911 92 q 802 3 856 31 q 685 -24 749 -24 q 568 10 615 -24 q 500 101 521 43 q 383 6 444 36 q 253 -24 322 -24 q 106 35 158 -24 q 54 193 54 94 q 58 249 54 219 l 158 963 l 382 963 l 283 254 q 281 224 281 232 q 297 166 281 186 q 343 146 313 146 q 415 167 382 146 q 489 238 447 189 l 490 249 l 590 963 l 814 963 l 715 254 q 713 224 713 232 q 729 166 713 186 q 776 146 746 146 q 847 168 814 146 q 921 239 881 190 l 1022 963 l 1246 963 z "},"N":{"ha":908,"x_min":38,"x_max":901,"o":"m 767 0 l 483 0 l 306 774 q 308 658 308 699 q 285 342 308 511 l 236 0 l 38 0 l 172 963 l 453 963 l 635 189 q 631 333 631 267 q 649 583 631 456 l 703 963 l 901 963 l 767 0 z "},"Ǌ":{"ha":1340,"x_min":38,"x_max":1338,"o":"m 767 0 l 483 0 l 306 774 q 308 658 308 699 q 285 342 308 511 l 236 0 l 38 0 l 172 963 l 453 963 l 635 189 q 631 333 631 267 q 649 583 631 456 l 703 963 l 901 963 l 767 0 m 1224 144 q 1156 -46 1207 29 q 1034 -163 1106 -121 q 867 -236 963 -206 l 826 -74 q 924 -19 889 -50 q 976 53 960 13 q 1000 157 992 94 l 1114 963 l 1338 963 l 1224 144 z "},"Ń":{"ha":908,"x_min":38,"x_max":901,"o":"m 767 0 l 483 0 l 306 774 q 308 658 308 699 q 285 342 308 511 l 236 0 l 38 0 l 172 963 l 453 963 l 635 189 q 631 333 631 267 q 649 583 631 456 l 703 963 l 901 963 l 767 0 m 708 1319 l 776 1154 l 436 1038 l 389 1146 l 708 1319 z "},"Ň":{"ha":908,"x_min":38,"x_max":901,"o":"m 767 0 l 483 0 l 306 774 q 308 658 308 699 q 285 342 308 511 l 236 0 l 38 0 l 172 963 l 453 963 l 635 189 q 631 333 631 267 q 649 583 631 456 l 703 963 l 901 963 l 767 0 m 768 1310 l 838 1221 l 621 1042 l 489 1042 l 319 1221 l 406 1310 l 571 1193 l 768 1310 z "},"Ṋ":{"ha":908,"x_min":38,"x_max":901,"o":"m 767 0 l 483 0 l 306 774 q 308 658 308 699 q 285 342 308 511 l 236 0 l 38 0 l 172 963 l 453 963 l 635 189 q 631 333 631 267 q 649 583 631 456 l 703 963 l 901 963 l 767 0 m 172 -368 l 103 -278 l 322 -87 l 453 -87 l 621 -278 l 532 -368 l 369 -240 l 172 -368 z "},"Ņ":{"ha":908,"x_min":38,"x_max":901,"o":"m 767 0 l 483 0 l 306 774 q 308 658 308 699 q 285 342 308 511 l 236 0 l 38 0 l 172 963 l 453 963 l 635 189 q 631 333 631 267 q 649 583 631 456 l 703 963 l 901 963 l 767 0 m 393 -94 q 465 -122 438 -94 q 493 -190 493 -149 q 481 -251 493 -222 q 440 -324 469 -279 l 360 -451 l 251 -451 l 314 -289 q 276 -214 276 -258 q 310 -128 276 -161 q 393 -94 344 -94 z "},"Ṅ":{"ha":908,"x_min":38,"x_max":901,"o":"m 767 0 l 483 0 l 306 774 q 308 658 308 699 q 285 342 308 511 l 236 0 l 38 0 l 172 963 l 453 963 l 635 189 q 631 333 631 267 q 649 583 631 456 l 703 963 l 901 963 l 767 0 m 564 1051 q 481 1083 513 1051 q 449 1163 449 1114 q 490 1261 449 1222 q 592 1300 531 1300 q 675 1269 643 1300 q 707 1190 707 1239 q 666 1091 707 1131 q 564 1051 625 1051 z "},"Ṇ":{"ha":908,"x_min":38,"x_max":901,"o":"m 767 0 l 483 0 l 306 774 q 308 658 308 699 q 285 342 308 511 l 236 0 l 38 0 l 172 963 l 453 963 l 635 189 q 631 333 631 267 q 649 583 631 456 l 703 963 l 901 963 l 767 0 m 388 -83 q 471 -115 439 -83 q 503 -194 503 -146 q 462 -293 503 -254 q 360 -332 421 -332 q 276 -301 308 -332 q 244 -222 244 -271 q 285 -123 244 -162 q 388 -83 326 -83 z "},"Ǹ":{"ha":908,"x_min":38,"x_max":901,"o":"m 767 0 l 483 0 l 306 774 q 308 658 308 699 q 285 342 308 511 l 236 0 l 38 0 l 172 963 l 453 963 l 635 189 q 631 333 631 267 q 649 583 631 456 l 703 963 l 901 963 l 767 0 m 486 1318 l 764 1146 l 706 1039 l 394 1153 l 486 1318 z "},"Ŋ":{"ha":908,"x_min":38,"x_max":901,"o":"m 901 963 l 767 0 l 760 -47 q 658 -242 739 -176 q 453 -308 578 -308 q 265 -247 342 -308 l 356 -115 q 400 -137 382 -131 q 444 -143 418 -143 q 506 -121 482 -143 q 535 -56 529 -99 l 543 0 l 483 0 l 306 774 q 308 658 308 699 q 285 342 308 511 l 236 0 l 38 0 l 172 963 l 453 963 l 635 189 q 631 333 631 267 q 649 583 631 456 l 703 963 l 901 963 z "},"Ɲ":{"ha":908,"x_min":-240,"x_max":901,"o":"m 901 963 l 767 0 l 483 0 l 306 774 q 308 658 308 699 q 285 342 308 511 l 236 0 l 229 -49 q 138 -243 210 -178 q -51 -308 65 -308 q -240 -247 -164 -308 l -150 -122 q -108 -144 -126 -137 q -61 -150 -89 -150 q 31 -56 17 -150 l 38 0 l 172 963 l 453 963 l 635 189 q 631 333 631 267 q 649 583 631 456 l 703 963 l 901 963 z "},"ǋ":{"ha":1292,"x_min":38,"x_max":1318,"o":"m 767 0 l 483 0 l 306 774 q 308 658 308 699 q 285 342 308 511 l 236 0 l 38 0 l 172 963 l 453 963 l 635 189 q 631 333 631 267 q 649 583 631 456 l 703 963 l 901 963 l 767 0 m 769 -153 q 896 -71 854 -118 q 951 72 938 -24 l 1043 738 l 1258 738 l 1167 81 q 1106 -109 1151 -35 q 992 -228 1060 -183 q 824 -308 924 -272 l 769 -153 m 1175 876 q 1092 908 1124 876 q 1060 988 1060 939 q 1101 1086 1060 1047 q 1203 1125 1142 1125 q 1286 1094 1254 1125 q 1318 1015 1318 1064 q 1277 916 1318 956 q 1175 876 1236 876 z "},"Ƞ":{"ha":893,"x_min":38,"x_max":864,"o":"m 640 986 q 806 926 749 986 q 864 768 864 867 q 860 718 864 743 l 721 -292 l 497 -292 l 633 694 q 636 731 636 719 q 617 796 636 775 q 556 817 597 817 q 463 794 506 817 q 363 722 419 771 l 261 0 l 38 0 l 172 963 l 368 963 l 372 875 q 500 959 436 932 q 640 986 564 986 z "},"Ñ":{"ha":908,"x_min":38,"x_max":901,"o":"m 767 0 l 483 0 l 306 774 q 308 658 308 699 q 285 342 308 511 l 236 0 l 38 0 l 172 963 l 453 963 l 635 189 q 631 333 631 267 q 649 583 631 456 l 703 963 l 901 963 l 767 0 m 644 1057 q 597 1066 617 1057 q 547 1094 578 1075 q 517 1113 529 1107 q 493 1119 506 1119 q 450 1104 468 1119 q 408 1056 432 1089 l 308 1114 q 396 1231 346 1186 q 503 1275 446 1275 q 555 1265 533 1275 q 603 1236 576 1254 q 629 1218 618 1224 q 653 1213 640 1213 q 694 1227 675 1213 q 736 1275 713 1242 l 838 1218 q 749 1101 799 1144 q 644 1057 699 1057 z "},"O":{"ha":946,"x_min":54,"x_max":924,"o":"m 557 986 q 828 883 732 986 q 924 592 924 781 q 875 306 924 446 q 714 71 826 165 q 422 -24 601 -24 q 150 80 246 -24 q 54 371 54 183 q 103 656 54 515 q 265 891 153 796 q 557 986 378 986 m 540 819 q 387 742 444 819 q 307 558 329 664 q 285 354 285 453 q 323 193 285 243 q 438 143 361 143 q 591 221 533 143 q 671 405 649 299 q 693 611 693 511 q 655 770 693 721 q 540 819 617 819 z "},"Ȣ":{"ha":889,"x_min":33,"x_max":875,"o":"m 846 760 q 683 549 826 614 q 836 336 836 488 q 781 152 836 235 q 624 23 725 69 q 396 -24 524 -24 q 201 14 283 -24 q 76 117 119 51 q 33 264 33 182 q 92 439 33 367 q 256 549 151 511 q 153 725 153 601 q 156 764 153 736 l 183 963 l 408 963 l 378 750 q 375 711 375 736 q 400 642 375 665 q 478 619 425 619 q 621 754 603 619 l 650 963 l 875 963 l 846 760 m 410 143 q 551 195 500 143 q 603 332 603 247 q 567 426 603 392 q 461 460 532 460 q 319 408 372 460 q 267 269 267 356 q 303 176 267 210 q 410 143 340 143 z "},"Ó":{"ha":946,"x_min":54,"x_max":924,"o":"m 557 986 q 828 883 732 986 q 924 592 924 781 q 875 306 924 446 q 714 71 826 165 q 422 -24 601 -24 q 150 80 246 -24 q 54 371 54 183 q 103 656 54 515 q 265 891 153 796 q 557 986 378 986 m 540 819 q 387 742 444 819 q 307 558 329 664 q 285 354 285 453 q 323 193 285 243 q 438 143 361 143 q 591 221 533 143 q 671 405 649 299 q 693 611 693 511 q 655 770 693 721 q 540 819 617 819 m 724 1319 l 792 1154 l 451 1038 l 404 1146 l 724 1319 z "},"Ŏ":{"ha":946,"x_min":54,"x_max":924,"o":"m 557 986 q 828 883 732 986 q 924 592 924 781 q 875 306 924 446 q 714 71 826 165 q 422 -24 601 -24 q 150 80 246 -24 q 54 371 54 183 q 103 656 54 515 q 265 891 153 796 q 557 986 378 986 m 540 819 q 387 742 444 819 q 307 558 329 664 q 285 354 285 453 q 323 193 285 243 q 438 143 361 143 q 591 221 533 143 q 671 405 649 299 q 693 611 693 511 q 655 770 693 721 q 540 819 617 819 m 572 1043 q 415 1109 468 1043 q 365 1269 361 1175 l 483 1288 q 515 1220 490 1246 q 583 1194 540 1194 q 663 1222 629 1194 q 715 1292 696 1249 l 835 1265 q 744 1107 814 1171 q 572 1043 674 1043 z "},"Ǒ":{"ha":946,"x_min":54,"x_max":924,"o":"m 557 986 q 828 883 732 986 q 924 592 924 781 q 875 306 924 446 q 714 71 826 165 q 422 -24 601 -24 q 150 80 246 -24 q 54 371 54 183 q 103 656 54 515 q 265 891 153 796 q 557 986 378 986 m 540 819 q 387 742 444 819 q 307 558 329 664 q 285 354 285 453 q 323 193 285 243 q 438 143 361 143 q 591 221 533 143 q 671 405 649 299 q 693 611 693 511 q 655 770 693 721 q 540 819 617 819 m 783 1310 l 853 1221 l 636 1042 l 504 1042 l 335 1221 l 421 1310 l 586 1193 l 783 1310 z "},"Ɵ":{"ha":946,"x_min":54,"x_max":924,"o":"m 557 986 q 828 883 732 986 q 924 592 924 781 q 875 306 924 446 q 714 71 826 165 q 422 -24 601 -24 q 150 80 246 -24 q 54 371 54 183 q 103 656 54 515 q 265 891 153 796 q 557 986 378 986 m 544 824 q 382 747 442 824 q 296 551 322 671 l 701 551 q 703 607 703 571 q 664 772 703 721 q 544 824 625 824 m 433 139 q 599 219 539 139 q 685 424 660 300 l 278 424 q 275 358 275 376 q 314 191 275 243 q 433 139 353 139 z "},"Ô":{"ha":946,"x_min":54,"x_max":924,"o":"m 557 986 q 828 883 732 986 q 924 592 924 781 q 875 306 924 446 q 714 71 826 165 q 422 -24 601 -24 q 150 80 246 -24 q 54 371 54 183 q 103 656 54 515 q 265 891 153 796 q 557 986 378 986 m 540 819 q 387 742 444 819 q 307 558 329 664 q 285 354 285 453 q 323 193 285 243 q 438 143 361 143 q 591 221 533 143 q 671 405 649 299 q 693 611 693 511 q 655 770 693 721 q 540 819 617 819 m 386 1049 l 315 1139 l 533 1318 l 665 1318 l 833 1139 l 749 1049 l 582 1165 l 386 1049 z "},"Ố":{"ha":946,"x_min":54,"x_max":1036,"o":"m 932 1517 l 1036 1401 l 794 1206 l 719 1281 l 932 1517 m 382 1001 l 311 1092 l 529 1271 l 661 1271 l 829 1092 l 744 1001 l 578 1118 l 382 1001 m 557 986 q 828 883 732 986 q 924 592 924 781 q 875 306 924 446 q 714 71 826 165 q 422 -24 601 -24 q 150 80 246 -24 q 54 371 54 183 q 103 656 54 515 q 265 891 153 796 q 557 986 378 986 m 540 819 q 387 742 444 819 q 307 558 329 664 q 285 354 285 453 q 323 193 285 243 q 438 143 361 143 q 591 221 533 143 q 671 405 649 299 q 693 611 693 511 q 655 770 693 721 q 540 819 617 819 z "},"Ộ":{"ha":946,"x_min":54,"x_max":924,"o":"m 557 986 q 828 883 732 986 q 924 592 924 781 q 875 306 924 446 q 714 71 826 165 q 422 -24 601 -24 q 150 80 246 -24 q 54 371 54 183 q 103 656 54 515 q 265 891 153 796 q 557 986 378 986 m 540 819 q 387 742 444 819 q 307 558 329 664 q 285 354 285 453 q 323 193 285 243 q 438 143 361 143 q 591 221 533 143 q 671 405 649 299 q 693 611 693 511 q 655 770 693 721 q 540 819 617 819 m 386 1049 l 315 1139 l 533 1318 l 665 1318 l 833 1139 l 749 1049 l 582 1165 l 386 1049 m 404 -83 q 488 -115 456 -83 q 519 -194 519 -146 q 478 -293 519 -254 q 376 -332 438 -332 q 293 -301 325 -332 q 261 -222 261 -271 q 302 -123 261 -162 q 404 -83 343 -83 z "},"Ồ":{"ha":946,"x_min":54,"x_max":924,"o":"m 308 1514 l 456 1274 l 369 1206 l 179 1407 l 308 1514 m 379 1001 l 308 1092 l 526 1271 l 658 1271 l 826 1092 l 742 1001 l 575 1118 l 379 1001 m 557 986 q 828 883 732 986 q 924 592 924 781 q 875 306 924 446 q 714 71 826 165 q 422 -24 601 -24 q 150 80 246 -24 q 54 371 54 183 q 103 656 54 515 q 265 891 153 796 q 557 986 378 986 m 540 819 q 387 742 444 819 q 307 558 329 664 q 285 354 285 453 q 323 193 285 243 q 438 143 361 143 q 591 221 533 143 q 671 405 649 299 q 693 611 693 511 q 655 770 693 721 q 540 819 617 819 z "},"Ổ":{"ha":946,"x_min":54,"x_max":1014,"o":"m 557 986 q 828 883 732 986 q 924 592 924 781 q 875 306 924 446 q 714 71 826 165 q 422 -24 601 -24 q 150 80 246 -24 q 54 371 54 183 q 103 656 54 515 q 265 891 153 796 q 557 986 378 986 m 540 819 q 387 742 444 819 q 307 558 329 664 q 285 354 285 453 q 323 193 285 243 q 438 143 361 143 q 591 221 533 143 q 671 405 649 299 q 693 611 693 511 q 655 770 693 721 q 540 819 617 819 m 378 1001 l 307 1092 l 525 1271 l 657 1271 l 825 1092 l 740 1001 l 574 1118 l 378 1001 m 757 1311 q 838 1328 811 1314 q 865 1372 865 1342 q 817 1407 865 1407 q 733 1388 776 1407 l 707 1482 q 853 1517 774 1517 q 972 1479 931 1517 q 1014 1383 1014 1442 q 879 1246 1014 1271 l 872 1188 l 743 1188 l 757 1311 z "},"Ỗ":{"ha":946,"x_min":54,"x_max":924,"o":"m 683 1308 q 635 1317 657 1308 q 589 1343 614 1326 q 560 1360 574 1353 q 533 1367 546 1367 q 492 1352 510 1367 q 450 1307 474 1338 l 351 1361 q 438 1470 388 1428 q 543 1513 488 1513 q 594 1503 572 1513 q 640 1476 617 1493 q 654 1468 643 1475 q 674 1458 665 1461 q 692 1454 683 1454 q 732 1468 714 1454 q 774 1513 750 1482 l 874 1458 q 788 1349 838 1390 q 683 1308 738 1308 m 376 1001 l 306 1092 l 524 1271 l 656 1271 l 824 1092 l 739 1001 l 572 1118 l 376 1001 m 557 986 q 828 883 732 986 q 924 592 924 781 q 875 306 924 446 q 714 71 826 165 q 422 -24 601 -24 q 150 80 246 -24 q 54 371 54 183 q 103 656 54 515 q 265 891 153 796 q 557 986 378 986 m 540 819 q 387 742 444 819 q 307 558 329 664 q 285 354 285 453 q 323 193 285 243 q 438 143 361 143 q 591 221 533 143 q 671 405 649 299 q 693 611 693 511 q 655 770 693 721 q 540 819 617 819 z "},"Ȍ":{"ha":946,"x_min":54,"x_max":924,"o":"m 557 986 q 828 883 732 986 q 924 592 924 781 q 875 306 924 446 q 714 71 826 165 q 422 -24 601 -24 q 150 80 246 -24 q 54 371 54 183 q 103 656 54 515 q 265 891 153 796 q 557 986 378 986 m 540 819 q 387 742 444 819 q 307 558 329 664 q 285 354 285 453 q 323 193 285 243 q 438 143 361 143 q 591 221 533 143 q 671 405 649 299 q 693 611 693 511 q 655 770 693 721 q 540 819 617 819 m 433 1369 l 529 1096 l 410 1043 l 279 1296 l 433 1369 m 672 1369 l 756 1096 l 638 1050 l 518 1300 l 672 1369 z "},"Ö":{"ha":946,"x_min":54,"x_max":924,"o":"m 557 986 q 828 883 732 986 q 924 592 924 781 q 875 306 924 446 q 714 71 826 165 q 422 -24 601 -24 q 150 80 246 -24 q 54 371 54 183 q 103 656 54 515 q 265 891 153 796 q 557 986 378 986 m 540 819 q 387 742 444 819 q 307 558 329 664 q 285 354 285 453 q 323 193 285 243 q 438 143 361 143 q 591 221 533 143 q 671 405 649 299 q 693 611 693 511 q 655 770 693 721 q 540 819 617 819 m 417 1067 q 343 1094 371 1067 q 315 1163 315 1121 q 351 1250 315 1215 q 440 1285 388 1285 q 514 1257 486 1285 q 542 1188 542 1229 q 506 1101 542 1136 q 417 1067 469 1067 m 732 1067 q 659 1094 686 1067 q 632 1163 632 1121 q 668 1250 632 1215 q 757 1285 704 1285 q 831 1257 803 1285 q 858 1188 858 1229 q 822 1101 858 1136 q 732 1067 785 1067 z "},"Ȫ":{"ha":946,"x_min":54,"x_max":924,"o":"m 557 986 q 828 883 732 986 q 924 592 924 781 q 875 306 924 446 q 714 71 826 165 q 422 -24 601 -24 q 150 80 246 -24 q 54 371 54 183 q 103 656 54 515 q 265 891 153 796 q 557 986 378 986 m 540 819 q 387 742 444 819 q 307 558 329 664 q 285 354 285 453 q 323 193 285 243 q 438 143 361 143 q 591 221 533 143 q 671 405 649 299 q 693 611 693 511 q 655 770 693 721 q 540 819 617 819 m 408 1036 q 335 1063 363 1036 q 307 1132 307 1090 q 343 1219 307 1185 q 432 1254 379 1254 q 506 1226 478 1254 q 533 1157 533 1199 q 497 1071 533 1106 q 408 1036 461 1036 m 724 1036 q 651 1063 678 1036 q 624 1132 624 1090 q 660 1219 624 1185 q 749 1254 696 1254 q 822 1226 794 1254 q 850 1157 850 1199 q 813 1071 850 1106 q 724 1036 776 1036 m 804 1306 l 386 1306 l 407 1458 l 825 1458 l 804 1306 z "},"Ȯ":{"ha":946,"x_min":54,"x_max":924,"o":"m 557 986 q 828 883 732 986 q 924 592 924 781 q 875 306 924 446 q 714 71 826 165 q 422 -24 601 -24 q 150 80 246 -24 q 54 371 54 183 q 103 656 54 515 q 265 891 153 796 q 557 986 378 986 m 540 819 q 387 742 444 819 q 307 558 329 664 q 285 354 285 453 q 323 193 285 243 q 438 143 361 143 q 591 221 533 143 q 671 405 649 299 q 693 611 693 511 q 655 770 693 721 q 540 819 617 819 m 579 1051 q 496 1083 528 1051 q 464 1163 464 1114 q 505 1261 464 1222 q 607 1300 546 1300 q 690 1269 658 1300 q 722 1190 722 1239 q 681 1091 722 1131 q 579 1051 640 1051 z "},"Ȱ":{"ha":946,"x_min":54,"x_max":924,"o":"m 557 986 q 828 883 732 986 q 924 592 924 781 q 875 306 924 446 q 714 71 826 165 q 422 -24 601 -24 q 150 80 246 -24 q 54 371 54 183 q 103 656 54 515 q 265 891 153 796 q 557 986 378 986 m 540 819 q 387 742 444 819 q 307 558 329 664 q 285 354 285 453 q 323 193 285 243 q 438 143 361 143 q 591 221 533 143 q 671 405 649 299 q 693 611 693 511 q 655 770 693 721 q 540 819 617 819 m 565 1022 q 482 1053 514 1022 q 450 1133 450 1085 q 491 1232 450 1193 q 593 1271 532 1271 q 676 1240 644 1271 q 708 1161 708 1210 q 667 1062 708 1101 q 565 1022 626 1022 m 813 1306 l 394 1306 l 415 1458 l 833 1458 l 813 1306 z "},"Ọ":{"ha":946,"x_min":54,"x_max":924,"o":"m 557 986 q 828 883 732 986 q 924 592 924 781 q 875 306 924 446 q 714 71 826 165 q 422 -24 601 -24 q 150 80 246 -24 q 54 371 54 183 q 103 656 54 515 q 265 891 153 796 q 557 986 378 986 m 540 819 q 387 742 444 819 q 307 558 329 664 q 285 354 285 453 q 323 193 285 243 q 438 143 361 143 q 591 221 533 143 q 671 405 649 299 q 693 611 693 511 q 655 770 693 721 q 540 819 617 819 m 404 -83 q 488 -115 456 -83 q 519 -194 519 -146 q 478 -293 519 -254 q 376 -332 438 -332 q 293 -301 325 -332 q 261 -222 261 -271 q 302 -123 261 -162 q 404 -83 343 -83 z "},"Ò":{"ha":946,"x_min":54,"x_max":924,"o":"m 557 986 q 828 883 732 986 q 924 592 924 781 q 875 306 924 446 q 714 71 826 165 q 422 -24 601 -24 q 150 80 246 -24 q 54 371 54 183 q 103 656 54 515 q 265 891 153 796 q 557 986 378 986 m 540 819 q 387 742 444 819 q 307 558 329 664 q 285 354 285 453 q 323 193 285 243 q 438 143 361 143 q 591 221 533 143 q 671 405 649 299 q 693 611 693 511 q 655 770 693 721 q 540 819 617 819 m 501 1318 l 779 1146 l 721 1039 l 410 1153 l 501 1318 z "},"Ỏ":{"ha":946,"x_min":54,"x_max":924,"o":"m 557 986 q 828 883 732 986 q 924 592 924 781 q 875 306 924 446 q 714 71 826 165 q 422 -24 601 -24 q 150 80 246 -24 q 54 371 54 183 q 103 656 54 515 q 265 891 153 796 q 557 986 378 986 m 540 819 q 387 742 444 819 q 307 558 329 664 q 285 354 285 453 q 323 193 285 243 q 438 143 361 143 q 591 221 533 143 q 671 405 649 299 q 693 611 693 511 q 655 770 693 721 q 540 819 617 819 m 522 1185 q 603 1201 576 1188 q 631 1246 631 1215 q 582 1281 631 1281 q 499 1261 542 1281 l 472 1356 q 618 1390 539 1390 q 738 1353 696 1390 q 779 1257 779 1315 q 644 1119 779 1144 l 638 1061 l 508 1061 l 522 1185 z "},"Ơ":{"ha":978,"x_min":54,"x_max":1058,"o":"m 1058 990 q 1015 849 1058 903 q 892 781 972 796 q 924 592 924 700 q 875 306 924 446 q 714 71 826 165 q 422 -24 601 -24 q 150 80 246 -24 q 54 371 54 183 q 103 656 54 515 q 265 891 153 796 q 557 986 378 986 q 829 882 733 986 q 892 913 872 888 q 911 988 911 939 q 904 1054 911 1024 l 1046 1072 q 1058 990 1058 1038 m 438 143 q 591 221 533 143 q 671 405 649 299 q 693 611 693 511 q 655 770 693 721 q 540 819 617 819 q 387 742 444 819 q 307 558 329 664 q 285 354 285 453 q 323 193 285 243 q 438 143 361 143 z "},"Ớ":{"ha":978,"x_min":54,"x_max":1058,"o":"m 792 1154 l 451 1038 l 404 1146 l 724 1319 l 792 1154 m 1058 990 q 1015 849 1058 903 q 892 781 972 796 q 924 592 924 700 q 875 306 924 446 q 714 71 826 165 q 422 -24 601 -24 q 150 80 246 -24 q 54 371 54 183 q 103 656 54 515 q 265 891 153 796 q 557 986 378 986 q 829 882 733 986 q 892 913 872 888 q 911 988 911 939 q 904 1054 911 1024 l 1046 1072 q 1058 990 1058 1038 m 438 143 q 591 221 533 143 q 671 405 649 299 q 693 611 693 511 q 655 770 693 721 q 540 819 617 819 q 387 742 444 819 q 307 558 329 664 q 285 354 285 453 q 323 193 285 243 q 438 143 361 143 z "},"Ợ":{"ha":978,"x_min":54,"x_max":1058,"o":"m 1058 990 q 1015 849 1058 903 q 892 781 972 796 q 924 592 924 700 q 875 306 924 446 q 714 71 826 165 q 422 -24 601 -24 q 150 80 246 -24 q 54 371 54 183 q 103 656 54 515 q 265 891 153 796 q 557 986 378 986 q 829 882 733 986 q 892 913 872 888 q 911 988 911 939 q 904 1054 911 1024 l 1046 1072 q 1058 990 1058 1038 m 438 143 q 591 221 533 143 q 671 405 649 299 q 693 611 693 511 q 655 770 693 721 q 540 819 617 819 q 387 742 444 819 q 307 558 329 664 q 285 354 285 453 q 323 193 285 243 q 438 143 361 143 m 404 -83 q 488 -115 456 -83 q 519 -194 519 -146 q 478 -293 519 -254 q 376 -332 438 -332 q 293 -301 325 -332 q 261 -222 261 -271 q 302 -123 261 -162 q 404 -83 343 -83 z "},"Ờ":{"ha":978,"x_min":54,"x_max":1058,"o":"m 779 1146 l 721 1039 l 410 1153 l 501 1318 l 779 1146 m 1058 990 q 1015 849 1058 903 q 892 781 972 796 q 924 592 924 700 q 875 306 924 446 q 714 71 826 165 q 422 -24 601 -24 q 150 80 246 -24 q 54 371 54 183 q 103 656 54 515 q 265 891 153 796 q 557 986 378 986 q 829 882 733 986 q 892 913 872 888 q 911 988 911 939 q 904 1054 911 1024 l 1046 1072 q 1058 990 1058 1038 m 438 143 q 591 221 533 143 q 671 405 649 299 q 693 611 693 511 q 655 770 693 721 q 540 819 617 819 q 387 742 444 819 q 307 558 329 664 q 285 354 285 453 q 323 193 285 243 q 438 143 361 143 z "},"Ở":{"ha":978,"x_min":54,"x_max":1058,"o":"m 582 1281 q 499 1261 542 1281 l 472 1356 q 618 1390 539 1390 q 738 1353 696 1390 q 779 1257 779 1315 q 644 1119 779 1144 l 638 1061 l 508 1061 l 522 1185 q 603 1201 576 1188 q 631 1246 631 1215 q 582 1281 631 1281 m 1058 990 q 1015 849 1058 903 q 892 781 972 796 q 924 592 924 700 q 875 306 924 446 q 714 71 826 165 q 422 -24 601 -24 q 150 80 246 -24 q 54 371 54 183 q 103 656 54 515 q 265 891 153 796 q 557 986 378 986 q 829 882 733 986 q 892 913 872 888 q 911 988 911 939 q 904 1054 911 1024 l 1046 1072 q 1058 990 1058 1038 m 438 143 q 591 221 533 143 q 671 405 649 299 q 693 611 693 511 q 655 770 693 721 q 540 819 617 819 q 387 742 444 819 q 307 558 329 664 q 285 354 285 453 q 323 193 285 243 q 438 143 361 143 z "},"Ỡ":{"ha":978,"x_min":54,"x_max":1058,"o":"m 508 1119 q 465 1104 483 1119 q 424 1056 447 1089 l 324 1114 q 411 1231 361 1186 q 518 1275 461 1275 q 570 1265 549 1275 q 618 1236 592 1254 q 644 1218 633 1224 q 668 1213 656 1213 q 709 1227 690 1213 q 751 1275 728 1242 l 853 1218 q 764 1101 814 1144 q 660 1057 714 1057 q 613 1066 632 1057 q 563 1094 593 1075 q 533 1113 544 1107 q 508 1119 521 1119 m 1058 990 q 1015 849 1058 903 q 892 781 972 796 q 924 592 924 700 q 875 306 924 446 q 714 71 826 165 q 422 -24 601 -24 q 150 80 246 -24 q 54 371 54 183 q 103 656 54 515 q 265 891 153 796 q 557 986 378 986 q 829 882 733 986 q 892 913 872 888 q 911 988 911 939 q 904 1054 911 1024 l 1046 1072 q 1058 990 1058 1038 m 438 143 q 591 221 533 143 q 671 405 649 299 q 693 611 693 511 q 655 770 693 721 q 540 819 617 819 q 387 742 444 819 q 307 558 329 664 q 285 354 285 453 q 323 193 285 243 q 438 143 361 143 z "},"Ő":{"ha":946,"x_min":54,"x_max":924,"o":"m 557 986 q 828 883 732 986 q 924 592 924 781 q 875 306 924 446 q 714 71 826 165 q 422 -24 601 -24 q 150 80 246 -24 q 54 371 54 183 q 103 656 54 515 q 265 891 153 796 q 557 986 378 986 m 540 819 q 387 742 444 819 q 307 558 329 664 q 285 354 285 453 q 323 193 285 243 q 438 143 361 143 q 591 221 533 143 q 671 405 649 299 q 693 611 693 511 q 655 770 693 721 q 540 819 617 819 m 544 1369 l 681 1300 l 493 1050 l 385 1096 l 544 1369 m 783 1369 l 919 1296 l 719 1043 l 614 1096 l 783 1369 z "},"Ƣ":{"ha":1314,"x_min":54,"x_max":1278,"o":"m 1031 988 q 1214 932 1150 988 q 1278 771 1278 876 q 1274 719 1278 747 l 1132 -292 l 907 -292 l 1051 729 q 1054 758 1054 749 q 986 828 1054 828 q 881 801 932 828 q 924 592 924 713 q 875 306 924 446 q 714 71 826 165 q 422 -24 601 -24 q 150 80 246 -24 q 54 371 54 183 q 103 656 54 515 q 265 891 153 796 q 557 986 378 986 q 790 914 699 986 q 1031 988 899 988 m 438 143 q 591 221 533 143 q 671 405 649 299 q 693 611 693 511 q 655 770 693 721 q 540 819 617 819 q 387 742 444 819 q 307 558 329 664 q 285 354 285 453 q 323 193 285 243 q 438 143 361 143 z "},"Ȏ":{"ha":946,"x_min":54,"x_max":924,"o":"m 557 986 q 828 883 732 986 q 924 592 924 781 q 875 306 924 446 q 714 71 826 165 q 422 -24 601 -24 q 150 80 246 -24 q 54 371 54 183 q 103 656 54 515 q 265 891 153 796 q 557 986 378 986 m 540 819 q 387 742 444 819 q 307 558 329 664 q 285 354 285 453 q 323 193 285 243 q 438 143 361 143 q 591 221 533 143 q 671 405 649 299 q 693 611 693 511 q 655 770 693 721 q 540 819 617 819 m 338 1085 q 431 1255 360 1189 q 607 1321 503 1321 q 767 1252 713 1321 q 815 1079 821 1183 l 692 1063 q 592 1168 681 1168 q 456 1058 499 1168 l 338 1085 z "},"Ō":{"ha":946,"x_min":54,"x_max":924,"o":"m 557 986 q 828 883 732 986 q 924 592 924 781 q 875 306 924 446 q 714 71 826 165 q 422 -24 601 -24 q 150 80 246 -24 q 54 371 54 183 q 103 656 54 515 q 265 891 153 796 q 557 986 378 986 m 540 819 q 387 742 444 819 q 307 558 329 664 q 285 354 285 453 q 323 193 285 243 q 438 143 361 143 q 591 221 533 143 q 671 405 649 299 q 693 611 693 511 q 655 770 693 721 q 540 819 617 819 m 785 1085 l 367 1085 l 388 1238 l 806 1238 l 785 1085 z "},"Ṓ":{"ha":946,"x_min":54,"x_max":924,"o":"m 557 986 q 828 883 732 986 q 924 592 924 781 q 875 306 924 446 q 714 71 826 165 q 422 -24 601 -24 q 150 80 246 -24 q 54 371 54 183 q 103 656 54 515 q 265 891 153 796 q 557 986 378 986 m 540 819 q 387 742 444 819 q 307 558 329 664 q 285 354 285 453 q 323 193 285 243 q 438 143 361 143 q 591 221 533 143 q 671 405 649 299 q 693 611 693 511 q 655 770 693 721 q 540 819 617 819 m 788 1057 l 369 1057 l 390 1210 l 808 1210 l 788 1057 m 731 1526 l 799 1361 l 458 1244 l 411 1353 l 731 1526 z "},"Ṑ":{"ha":946,"x_min":54,"x_max":924,"o":"m 557 986 q 828 883 732 986 q 924 592 924 781 q 875 306 924 446 q 714 71 826 165 q 422 -24 601 -24 q 150 80 246 -24 q 54 371 54 183 q 103 656 54 515 q 265 891 153 796 q 557 986 378 986 m 540 819 q 387 742 444 819 q 307 558 329 664 q 285 354 285 453 q 323 193 285 243 q 438 143 361 143 q 591 221 533 143 q 671 405 649 299 q 693 611 693 511 q 655 770 693 721 q 540 819 617 819 m 783 1057 l 365 1057 l 386 1210 l 804 1210 l 783 1057 m 519 1525 l 797 1353 l 739 1246 l 428 1360 l 519 1525 z "},"Ꞷ":{"ha":1211,"x_min":63,"x_max":1169,"o":"m 328 -24 q 129 51 196 -24 q 63 285 63 126 q 114 628 63 453 q 256 963 165 804 l 464 963 q 334 615 383 790 q 285 281 285 439 q 304 175 285 207 q 368 143 324 143 q 482 271 464 143 l 522 554 l 742 554 l 701 265 q 697 221 697 240 q 714 163 697 182 q 768 143 731 143 q 906 297 865 143 q 947 638 947 451 q 937 799 947 725 q 906 963 926 872 l 1121 963 q 1156 808 1143 886 q 1169 633 1169 731 q 1079 161 1169 346 q 785 -24 989 -24 q 574 149 599 -24 q 476 19 539 61 q 328 -24 413 -24 z "},"Ǫ":{"ha":946,"x_min":54,"x_max":924,"o":"m 564 -6 q 392 -158 392 -69 q 453 -204 392 -204 q 540 -193 489 -204 l 510 -331 q 414 -340 469 -340 q 281 -301 332 -340 q 231 -196 231 -262 q 339 -17 231 -89 q 128 106 201 6 q 54 371 54 207 q 103 656 54 515 q 265 891 153 796 q 557 986 378 986 q 828 883 732 986 q 924 592 924 781 q 888 346 924 468 q 772 127 853 224 q 564 -6 692 31 m 285 354 q 323 193 285 243 q 438 143 361 143 q 591 221 533 143 q 671 405 649 299 q 693 611 693 511 q 655 770 693 721 q 540 819 617 819 q 387 742 444 819 q 307 558 329 664 q 285 354 285 453 z "},"Ǭ":{"ha":946,"x_min":54,"x_max":924,"o":"m 806 1238 l 785 1085 l 367 1085 l 388 1238 l 806 1238 m 564 -6 q 392 -158 392 -69 q 453 -204 392 -204 q 540 -193 489 -204 l 510 -331 q 414 -340 469 -340 q 281 -301 332 -340 q 231 -196 231 -262 q 339 -17 231 -89 q 128 106 201 6 q 54 371 54 207 q 103 656 54 515 q 265 891 153 796 q 557 986 378 986 q 828 883 732 986 q 924 592 924 781 q 888 346 924 468 q 772 127 853 224 q 564 -6 692 31 m 285 354 q 323 193 285 243 q 438 143 361 143 q 591 221 533 143 q 671 405 649 299 q 693 611 693 511 q 655 770 693 721 q 540 819 617 819 q 387 742 444 819 q 307 558 329 664 q 285 354 285 453 z "},"Ɔ":{"ha":785,"x_min":-29,"x_max":761,"o":"m 403 986 q 665 882 569 986 q 761 589 761 778 q 701 281 761 421 q 526 59 640 142 q 257 -24 411 -24 q -29 103 83 -24 l 85 229 q 169 172 129 192 q 263 153 210 153 q 413 217 353 153 q 501 381 472 281 q 529 593 529 482 q 375 818 529 818 q 278 800 325 818 q 182 747 232 782 l 89 882 q 234 960 158 933 q 403 986 310 986 z "},"Ø":{"ha":946,"x_min":54,"x_max":924,"o":"m 781 924 q 887 791 850 875 q 924 592 924 707 q 875 306 924 446 q 714 71 826 165 q 422 -24 601 -24 q 351 -19 385 -24 l 278 -186 l 114 -142 l 196 40 q 90 173 126 89 q 54 371 54 257 q 103 656 54 515 q 265 891 153 796 q 557 986 378 986 q 625 982 592 986 l 700 1150 l 863 1104 l 781 924 m 540 819 q 385 742 443 819 q 304 556 328 664 q 281 346 281 447 q 307 200 281 249 l 575 818 q 540 819 564 819 m 438 143 q 592 222 535 143 q 674 409 650 300 q 697 621 697 518 q 671 764 697 719 l 403 144 q 438 143 414 143 z "},"Ǿ":{"ha":946,"x_min":54,"x_max":924,"o":"m 781 924 q 887 791 850 875 q 924 592 924 707 q 875 306 924 446 q 714 71 826 165 q 422 -24 601 -24 q 351 -19 385 -24 l 278 -186 l 114 -142 l 196 40 q 90 173 126 89 q 54 371 54 257 q 103 656 54 515 q 265 891 153 796 q 557 986 378 986 q 625 982 592 986 l 700 1150 l 863 1104 l 781 924 m 540 819 q 385 742 443 819 q 304 556 328 664 q 281 346 281 447 q 307 200 281 249 l 575 818 q 540 819 564 819 m 438 143 q 592 222 535 143 q 674 409 650 300 q 697 621 697 518 q 671 764 697 719 l 403 144 q 438 143 414 143 m 725 1367 l 793 1201 l 453 1085 l 406 1193 l 725 1367 z "},"Õ":{"ha":946,"x_min":54,"x_max":924,"o":"m 557 986 q 828 883 732 986 q 924 592 924 781 q 875 306 924 446 q 714 71 826 165 q 422 -24 601 -24 q 150 80 246 -24 q 54 371 54 183 q 103 656 54 515 q 265 891 153 796 q 557 986 378 986 m 540 819 q 387 742 444 819 q 307 558 329 664 q 285 354 285 453 q 323 193 285 243 q 438 143 361 143 q 591 221 533 143 q 671 405 649 299 q 693 611 693 511 q 655 770 693 721 q 540 819 617 819 m 660 1057 q 613 1066 632 1057 q 563 1094 593 1075 q 533 1113 544 1107 q 508 1119 521 1119 q 465 1104 483 1119 q 424 1056 447 1089 l 324 1114 q 411 1231 361 1186 q 518 1275 461 1275 q 570 1265 549 1275 q 618 1236 592 1254 q 644 1218 633 1224 q 668 1213 656 1213 q 709 1227 690 1213 q 751 1275 728 1242 l 853 1218 q 764 1101 814 1144 q 660 1057 714 1057 z "},"Ṍ":{"ha":946,"x_min":54,"x_max":924,"o":"m 557 986 q 828 883 732 986 q 924 592 924 781 q 875 306 924 446 q 714 71 826 165 q 422 -24 601 -24 q 150 80 246 -24 q 54 371 54 183 q 103 656 54 515 q 265 891 153 796 q 557 986 378 986 m 540 819 q 387 742 444 819 q 307 558 329 664 q 285 354 285 453 q 323 193 285 243 q 438 143 361 143 q 591 221 533 143 q 671 405 649 299 q 693 611 693 511 q 655 770 693 721 q 540 819 617 819 m 654 1050 q 607 1059 626 1050 q 557 1088 588 1068 q 527 1106 539 1100 q 503 1113 515 1113 q 460 1097 478 1113 q 418 1049 442 1082 l 318 1107 q 406 1224 356 1179 q 513 1268 456 1268 q 565 1258 543 1268 q 613 1229 586 1247 q 639 1211 628 1217 q 663 1206 650 1206 q 703 1220 685 1206 q 746 1268 722 1235 l 847 1211 q 758 1094 808 1138 q 654 1050 708 1050 m 725 1569 l 793 1404 l 453 1288 l 406 1396 l 725 1569 z "},"Ȭ":{"ha":946,"x_min":54,"x_max":924,"o":"m 800 1308 l 382 1308 l 403 1461 l 821 1461 l 800 1308 m 650 1050 q 603 1059 622 1050 q 553 1088 583 1068 q 523 1106 535 1100 q 499 1113 511 1113 q 456 1097 474 1113 q 414 1049 438 1082 l 314 1107 q 401 1224 351 1179 q 508 1268 451 1268 q 560 1258 539 1268 q 608 1229 582 1247 q 635 1211 624 1217 q 658 1206 646 1206 q 699 1220 681 1206 q 742 1268 718 1235 l 843 1211 q 754 1094 804 1138 q 650 1050 704 1050 m 557 986 q 828 883 732 986 q 924 592 924 781 q 875 306 924 446 q 714 71 826 165 q 422 -24 601 -24 q 150 80 246 -24 q 54 371 54 183 q 103 656 54 515 q 265 891 153 796 q 557 986 378 986 m 540 819 q 387 742 444 819 q 307 558 329 664 q 285 354 285 453 q 323 193 285 243 q 438 143 361 143 q 591 221 533 143 q 671 405 649 299 q 693 611 693 511 q 655 770 693 721 q 540 819 617 819 z "},"Œ":{"ha":1235,"x_min":54,"x_max":1271,"o":"m 838 800 q 890 569 890 708 l 1150 569 l 1129 410 l 875 410 q 756 164 844 261 l 1160 164 l 1138 0 l 532 0 q 400 -24 468 -24 q 146 79 238 -24 q 54 369 54 182 q 103 653 54 511 q 259 890 151 794 q 533 986 367 986 q 665 963 606 986 l 1271 963 l 1225 800 l 838 800 m 283 344 q 422 143 283 143 q 607 288 550 143 q 664 624 664 433 q 525 819 664 819 q 382 747 436 819 q 306 566 328 674 q 283 344 283 458 z "},"P":{"ha":821,"x_min":38,"x_max":835,"o":"m 478 963 q 742 894 649 963 q 835 694 835 826 q 792 514 835 599 q 653 375 749 429 q 411 321 558 321 l 306 321 l 261 0 l 38 0 l 172 963 l 478 963 m 411 485 q 560 544 517 485 q 603 683 603 603 q 566 772 603 744 q 456 800 529 800 l 374 800 l 329 485 l 411 485 z "},"Ṕ":{"ha":821,"x_min":38,"x_max":835,"o":"m 478 963 q 742 894 649 963 q 835 694 835 826 q 792 514 835 599 q 653 375 749 429 q 411 321 558 321 l 306 321 l 261 0 l 38 0 l 172 963 l 478 963 m 411 485 q 560 544 517 485 q 603 683 603 603 q 566 772 603 744 q 456 800 529 800 l 374 800 l 329 485 l 411 485 m 658 1319 l 726 1154 l 386 1038 l 339 1146 l 658 1319 z "},"Ṗ":{"ha":821,"x_min":38,"x_max":835,"o":"m 478 963 q 742 894 649 963 q 835 694 835 826 q 792 514 835 599 q 653 375 749 429 q 411 321 558 321 l 306 321 l 261 0 l 38 0 l 172 963 l 478 963 m 411 485 q 560 544 517 485 q 603 683 603 603 q 566 772 603 744 q 456 800 529 800 l 374 800 l 329 485 l 411 485 m 514 1051 q 431 1083 463 1051 q 399 1163 399 1114 q 440 1261 399 1222 q 542 1300 481 1300 q 625 1269 593 1300 q 657 1190 657 1239 q 616 1091 657 1131 q 514 1051 575 1051 z "},"Ƥ":{"ha":1014,"x_min":58,"x_max":1028,"o":"m 671 963 q 935 894 842 963 q 1028 694 1028 826 q 985 514 1028 599 q 847 375 942 429 q 604 321 751 321 l 499 321 l 454 0 l 231 0 l 343 800 l 308 800 q 253 780 272 800 q 233 721 233 760 q 244 650 233 694 l 93 592 q 58 726 58 661 q 131 899 58 835 q 325 963 203 963 l 671 963 m 604 485 q 753 544 710 485 q 796 683 796 603 q 759 772 796 744 q 649 800 722 800 l 567 800 l 522 485 l 604 485 z "},"Þ":{"ha":821,"x_min":38,"x_max":814,"o":"m 456 813 q 721 744 628 813 q 814 536 814 675 q 774 358 814 444 q 638 215 733 272 q 388 158 542 158 l 283 158 l 261 0 l 38 0 l 172 963 l 396 963 l 375 813 l 456 813 m 388 322 q 538 385 493 322 q 582 531 582 447 q 435 650 582 650 l 353 650 l 306 322 l 388 322 z "},"Q":{"ha":944,"x_min":54,"x_max":924,"o":"m 924 592 q 858 277 924 425 q 651 60 793 129 q 804 33 743 56 q 915 -31 865 11 l 758 -206 q 618 -71 693 -118 q 422 -24 543 -24 q 150 80 246 -24 q 54 371 54 183 q 103 656 54 515 q 265 891 153 796 q 557 986 378 986 q 828 883 732 986 q 924 592 924 781 m 285 346 q 323 192 285 240 q 438 143 361 143 q 592 221 535 143 q 671 408 649 299 q 693 621 693 517 q 655 772 693 724 q 540 819 617 819 q 386 742 443 819 q 307 556 329 664 q 285 346 285 449 z "},"Ɋ":{"ha":926,"x_min":51,"x_max":989,"o":"m 989 -251 q 792 -308 904 -308 q 612 -254 676 -308 q 547 -94 547 -200 q 551 -42 547 -69 l 557 0 l 565 57 q 358 -24 478 -24 q 134 76 217 -24 q 51 354 51 176 q 106 661 51 515 q 263 897 161 807 q 499 986 365 986 q 699 900 619 986 l 717 963 l 915 963 l 781 0 l 772 -61 q 771 -83 771 -69 q 831 -143 771 -143 q 881 -136 860 -143 q 932 -115 903 -129 l 989 -251 m 426 139 q 586 204 515 139 l 663 760 q 604 804 636 789 q 528 819 572 819 q 392 748 447 819 q 309 567 336 676 q 282 344 282 458 q 319 187 282 235 q 426 139 357 139 z "},"R":{"ha":843,"x_min":38,"x_max":835,"o":"m 835 707 q 786 532 835 608 q 615 404 738 456 l 796 0 l 551 0 l 406 367 l 313 368 l 261 0 l 38 0 l 172 963 l 482 963 q 744 896 654 963 q 835 707 835 829 m 335 525 l 433 525 q 563 576 522 525 q 603 696 603 626 q 567 777 603 751 q 458 803 532 803 l 374 803 l 335 525 z "},"Ŕ":{"ha":843,"x_min":38,"x_max":835,"o":"m 835 707 q 786 532 835 608 q 615 404 738 456 l 796 0 l 551 0 l 406 367 l 313 368 l 261 0 l 38 0 l 172 963 l 482 963 q 744 896 654 963 q 835 707 835 829 m 335 525 l 433 525 q 563 576 522 525 q 603 696 603 626 q 567 777 603 751 q 458 803 532 803 l 374 803 l 335 525 m 669 1319 l 738 1154 l 397 1038 l 350 1146 l 669 1319 z "},"Ř":{"ha":843,"x_min":38,"x_max":835,"o":"m 835 707 q 786 532 835 608 q 615 404 738 456 l 796 0 l 551 0 l 406 367 l 313 368 l 261 0 l 38 0 l 172 963 l 482 963 q 744 896 654 963 q 835 707 835 829 m 335 525 l 433 525 q 563 576 522 525 q 603 696 603 626 q 567 777 603 751 q 458 803 532 803 l 374 803 l 335 525 m 729 1310 l 799 1221 l 582 1042 l 450 1042 l 281 1221 l 367 1310 l 532 1193 l 729 1310 z "},"Ŗ":{"ha":843,"x_min":38,"x_max":835,"o":"m 835 707 q 786 532 835 608 q 615 404 738 456 l 796 0 l 551 0 l 406 367 l 313 368 l 261 0 l 38 0 l 172 963 l 482 963 q 744 896 654 963 q 835 707 835 829 m 335 525 l 433 525 q 563 576 522 525 q 603 696 603 626 q 567 777 603 751 q 458 803 532 803 l 374 803 l 335 525 m 364 -94 q 436 -122 408 -94 q 464 -190 464 -149 q 452 -251 464 -222 q 411 -324 440 -279 l 331 -451 l 222 -451 l 285 -289 q 247 -214 247 -258 q 281 -128 247 -161 q 364 -94 315 -94 z "},"Ȑ":{"ha":843,"x_min":38,"x_max":835,"o":"m 835 707 q 786 532 835 608 q 615 404 738 456 l 796 0 l 551 0 l 406 367 l 313 368 l 261 0 l 38 0 l 172 963 l 482 963 q 744 896 654 963 q 835 707 835 829 m 335 525 l 433 525 q 563 576 522 525 q 603 696 603 626 q 567 777 603 751 q 458 803 532 803 l 374 803 l 335 525 m 379 1369 l 475 1096 l 356 1043 l 225 1296 l 379 1369 m 618 1369 l 701 1096 l 583 1050 l 464 1300 l 618 1369 z "},"Ṛ":{"ha":843,"x_min":38,"x_max":835,"o":"m 835 707 q 786 532 835 608 q 615 404 738 456 l 796 0 l 551 0 l 406 367 l 313 368 l 261 0 l 38 0 l 172 963 l 482 963 q 744 896 654 963 q 835 707 835 829 m 335 525 l 433 525 q 563 576 522 525 q 603 696 603 626 q 567 777 603 751 q 458 803 532 803 l 374 803 l 335 525 m 358 -83 q 442 -115 410 -83 q 474 -194 474 -146 q 433 -293 474 -254 q 331 -332 392 -332 q 247 -301 279 -332 q 215 -222 215 -271 q 256 -123 215 -162 q 358 -83 297 -83 z "},"Ȓ":{"ha":843,"x_min":38,"x_max":835,"o":"m 835 707 q 786 532 835 608 q 615 404 738 456 l 796 0 l 551 0 l 406 367 l 313 368 l 261 0 l 38 0 l 172 963 l 482 963 q 744 896 654 963 q 835 707 835 829 m 335 525 l 433 525 q 563 576 522 525 q 603 696 603 626 q 567 777 603 751 q 458 803 532 803 l 374 803 l 335 525 m 283 1085 q 377 1255 306 1189 q 553 1321 449 1321 q 713 1252 658 1321 q 761 1079 767 1183 l 638 1063 q 538 1168 626 1168 q 401 1058 444 1168 l 283 1085 z "},"Ɍ":{"ha":858,"x_min":15,"x_max":850,"o":"m 850 707 q 801 532 850 608 q 631 404 753 456 l 811 0 l 567 0 l 421 367 l 328 368 l 276 0 l 53 0 l 104 368 l 15 368 l 36 525 l 126 525 l 188 963 l 497 963 q 760 896 669 963 q 850 707 850 829 m 389 803 l 350 525 l 449 525 q 578 576 538 525 q 618 696 618 626 q 583 777 618 751 q 474 803 547 803 l 389 803 z "},"Ɽ":{"ha":843,"x_min":28,"x_max":835,"o":"m 835 707 q 786 532 835 608 q 615 404 738 456 l 796 0 l 551 0 l 406 367 l 313 368 l 261 0 l 253 -61 q 251 -83 251 -69 q 311 -143 251 -143 q 362 -136 340 -143 q 413 -115 383 -129 l 469 -251 q 272 -308 385 -308 q 92 -254 157 -308 q 28 -94 28 -200 q 32 -42 28 -69 l 38 0 l 172 963 l 482 963 q 744 896 654 963 q 835 707 835 829 m 335 525 l 433 525 q 563 576 522 525 q 603 696 603 626 q 567 777 603 751 q 458 803 532 803 l 374 803 l 335 525 z "},"S":{"ha":781,"x_min":-22,"x_max":790,"o":"m 469 986 q 790 860 667 986 l 671 740 q 476 819 588 819 q 370 791 410 819 q 331 713 331 763 q 364 646 331 671 q 492 589 397 621 q 677 485 615 549 q 739 315 739 421 q 697 152 739 229 q 562 26 654 75 q 328 -24 469 -24 q 124 15 211 -24 q -22 117 38 53 l 107 244 q 333 150 199 150 q 458 185 413 150 q 503 281 503 219 q 470 357 503 328 q 351 417 438 386 q 156 526 215 463 q 96 686 96 590 q 138 831 96 763 q 263 943 179 900 q 469 986 347 986 z "},"Ś":{"ha":781,"x_min":-22,"x_max":790,"o":"m 469 986 q 790 860 667 986 l 671 740 q 476 819 588 819 q 370 791 410 819 q 331 713 331 763 q 364 646 331 671 q 492 589 397 621 q 677 485 615 549 q 739 315 739 421 q 697 152 739 229 q 562 26 654 75 q 328 -24 469 -24 q 124 15 211 -24 q -22 117 38 53 l 107 244 q 333 150 199 150 q 458 185 413 150 q 503 281 503 219 q 470 357 503 328 q 351 417 438 386 q 156 526 215 463 q 96 686 96 590 q 138 831 96 763 q 263 943 179 900 q 469 986 347 986 m 651 1319 l 719 1154 l 379 1038 l 332 1146 l 651 1319 z "},"Ꞌ":{"ha":331,"x_min":101,"x_max":353,"o":"m 101 464 l 144 963 l 353 963 l 254 464 l 101 464 z "},"Š":{"ha":781,"x_min":-22,"x_max":790,"o":"m 469 986 q 790 860 667 986 l 671 740 q 476 819 588 819 q 370 791 410 819 q 331 713 331 763 q 364 646 331 671 q 492 589 397 621 q 677 485 615 549 q 739 315 739 421 q 697 152 739 229 q 562 26 654 75 q 328 -24 469 -24 q 124 15 211 -24 q -22 117 38 53 l 107 244 q 333 150 199 150 q 458 185 413 150 q 503 281 503 219 q 470 357 503 328 q 351 417 438 386 q 156 526 215 463 q 96 686 96 590 q 138 831 96 763 q 263 943 179 900 q 469 986 347 986 m 711 1310 l 781 1221 l 564 1042 l 432 1042 l 263 1221 l 349 1310 l 514 1193 l 711 1310 z "},"Ş":{"ha":781,"x_min":-22,"x_max":790,"o":"m 492 589 q 677 485 615 549 q 739 315 739 421 q 703 165 739 236 q 592 42 668 93 q 397 -21 515 -8 l 389 -67 q 483 -106 451 -74 q 515 -192 515 -139 q 492 -273 515 -233 q 419 -338 469 -312 q 294 -364 369 -364 q 143 -319 203 -364 l 204 -221 q 289 -244 243 -244 q 340 -233 321 -244 q 360 -199 358 -222 q 333 -165 360 -175 q 240 -156 306 -156 l 274 -21 q -22 117 90 -6 l 107 244 q 333 150 199 150 q 458 185 413 150 q 503 281 503 219 q 470 357 503 328 q 351 417 438 386 q 156 526 215 463 q 96 686 96 590 q 138 831 96 763 q 263 943 179 900 q 469 986 347 986 q 790 860 667 986 l 671 740 q 476 819 588 819 q 370 791 410 819 q 331 713 331 763 q 364 646 331 671 q 492 589 397 621 z "},"Ŝ":{"ha":781,"x_min":-22,"x_max":790,"o":"m 469 986 q 790 860 667 986 l 671 740 q 476 819 588 819 q 370 791 410 819 q 331 713 331 763 q 364 646 331 671 q 492 589 397 621 q 677 485 615 549 q 739 315 739 421 q 697 152 739 229 q 562 26 654 75 q 328 -24 469 -24 q 124 15 211 -24 q -22 117 38 53 l 107 244 q 333 150 199 150 q 458 185 413 150 q 503 281 503 219 q 470 357 503 328 q 351 417 438 386 q 156 526 215 463 q 96 686 96 590 q 138 831 96 763 q 263 943 179 900 q 469 986 347 986 m 314 1049 l 243 1139 l 461 1318 l 593 1318 l 761 1139 l 676 1049 l 510 1165 l 314 1049 z "},"Ș":{"ha":781,"x_min":-22,"x_max":790,"o":"m 469 986 q 790 860 667 986 l 671 740 q 476 819 588 819 q 370 791 410 819 q 331 713 331 763 q 364 646 331 671 q 492 589 397 621 q 677 485 615 549 q 739 315 739 421 q 697 152 739 229 q 562 26 654 75 q 328 -24 469 -24 q 124 15 211 -24 q -22 117 38 53 l 107 244 q 333 150 199 150 q 458 185 413 150 q 503 281 503 219 q 470 357 503 328 q 351 417 438 386 q 156 526 215 463 q 96 686 96 590 q 138 831 96 763 q 263 943 179 900 q 469 986 347 986 m 324 -94 q 396 -122 368 -94 q 424 -190 424 -149 q 412 -251 424 -222 q 371 -324 400 -279 l 290 -451 l 182 -451 l 244 -289 q 207 -214 207 -258 q 241 -128 207 -161 q 324 -94 275 -94 z "},"Ṡ":{"ha":781,"x_min":-22,"x_max":790,"o":"m 469 986 q 790 860 667 986 l 671 740 q 476 819 588 819 q 370 791 410 819 q 331 713 331 763 q 364 646 331 671 q 492 589 397 621 q 677 485 615 549 q 739 315 739 421 q 697 152 739 229 q 562 26 654 75 q 328 -24 469 -24 q 124 15 211 -24 q -22 117 38 53 l 107 244 q 333 150 199 150 q 458 185 413 150 q 503 281 503 219 q 470 357 503 328 q 351 417 438 386 q 156 526 215 463 q 96 686 96 590 q 138 831 96 763 q 263 943 179 900 q 469 986 347 986 m 507 1051 q 424 1083 456 1051 q 392 1163 392 1114 q 433 1261 392 1222 q 535 1300 474 1300 q 618 1269 586 1300 q 650 1190 650 1239 q 609 1091 650 1131 q 507 1051 568 1051 z "},"Ṣ":{"ha":781,"x_min":-22,"x_max":790,"o":"m 469 986 q 790 860 667 986 l 671 740 q 476 819 588 819 q 370 791 410 819 q 331 713 331 763 q 364 646 331 671 q 492 589 397 621 q 677 485 615 549 q 739 315 739 421 q 697 152 739 229 q 562 26 654 75 q 328 -24 469 -24 q 124 15 211 -24 q -22 117 38 53 l 107 244 q 333 150 199 150 q 458 185 413 150 q 503 281 503 219 q 470 357 503 328 q 351 417 438 386 q 156 526 215 463 q 96 686 96 590 q 138 831 96 763 q 263 943 179 900 q 469 986 347 986 m 318 -83 q 401 -115 369 -83 q 433 -194 433 -146 q 392 -293 433 -254 q 290 -332 351 -332 q 207 -301 239 -332 q 175 -222 175 -271 q 216 -123 175 -162 q 318 -83 257 -83 z "},"ẞ":{"ha":914,"x_min":38,"x_max":890,"o":"m 506 986 q 708 957 615 986 q 890 878 800 928 l 878 776 l 647 546 q 810 472 750 528 q 869 314 869 415 q 821 137 869 214 q 688 18 772 60 q 499 -24 604 -24 q 322 15 393 -24 l 404 163 q 486 147 439 147 q 595 192 556 147 q 635 306 635 236 q 586 401 635 369 q 432 436 538 432 l 446 557 l 672 790 q 504 819 585 819 q 403 784 439 819 q 357 676 367 749 l 261 0 l 38 0 l 132 675 q 248 905 153 824 q 506 986 343 986 z "},"Ə":{"ha":876,"x_min":38,"x_max":856,"o":"m 499 986 q 761 890 667 986 q 856 608 856 793 q 802 288 856 431 q 642 60 749 144 q 382 -24 535 -24 q 126 74 214 -24 q 38 346 38 171 q 67 564 38 463 l 629 564 q 633 629 633 600 q 592 774 633 729 q 471 819 551 819 q 350 797 404 819 q 243 735 296 774 l 153 865 q 317 956 233 926 q 499 986 400 986 m 388 143 q 526 205 471 143 q 606 404 582 267 l 253 403 q 247 319 247 363 q 283 185 247 226 q 388 143 319 143 z "},"T":{"ha":736,"x_min":69,"x_max":821,"o":"m 821 963 l 772 788 l 539 788 l 428 0 l 204 0 l 315 788 l 69 788 l 94 963 l 821 963 z "},"Ŧ":{"ha":736,"x_min":69,"x_max":821,"o":"m 772 788 l 539 788 l 504 542 l 660 542 l 643 414 l 486 414 l 428 0 l 204 0 l 263 414 l 108 414 l 125 542 l 281 542 l 315 788 l 69 788 l 94 963 l 821 963 l 772 788 z "},"Ť":{"ha":736,"x_min":69,"x_max":821,"o":"m 821 963 l 772 788 l 539 788 l 428 0 l 204 0 l 315 788 l 69 788 l 94 963 l 821 963 m 676 1310 l 746 1221 l 529 1042 l 397 1042 l 228 1221 l 314 1310 l 479 1193 l 676 1310 z "},"Ţ":{"ha":736,"x_min":69,"x_max":821,"o":"m 539 788 l 428 0 l 429 0 l 418 -67 q 512 -106 481 -74 q 543 -190 543 -137 q 520 -270 543 -231 q 447 -337 497 -310 q 319 -364 397 -364 q 169 -319 232 -364 l 232 -221 q 313 -244 268 -244 q 367 -233 346 -244 q 388 -197 388 -221 q 360 -165 388 -175 q 268 -156 333 -156 l 307 0 l 204 0 l 315 788 l 69 788 l 94 963 l 821 963 l 772 788 l 539 788 z "},"Ṱ":{"ha":736,"x_min":15,"x_max":821,"o":"m 821 963 l 772 788 l 539 788 l 428 0 l 204 0 l 315 788 l 69 788 l 94 963 l 821 963 m 85 -368 l 15 -278 l 235 -87 l 365 -87 l 533 -278 l 444 -368 l 282 -240 l 85 -368 z "},"Ț":{"ha":736,"x_min":69,"x_max":821,"o":"m 821 963 l 772 788 l 539 788 l 428 0 l 204 0 l 315 788 l 69 788 l 94 963 l 821 963 m 306 -94 q 378 -122 350 -94 q 406 -190 406 -149 q 394 -251 406 -222 q 353 -324 382 -279 l 272 -451 l 164 -451 l 226 -289 q 189 -214 189 -258 q 223 -128 189 -161 q 306 -94 257 -94 z "},"Ⱦ":{"ha":736,"x_min":71,"x_max":821,"o":"m 774 796 l 651 796 l 483 492 l 415 0 l 218 0 l 219 14 l 156 -103 l 93 -74 l 247 206 l 331 796 l 71 796 l 94 963 l 664 963 l 713 1050 l 775 1019 l 743 963 l 821 963 l 774 796 m 511 685 l 572 796 l 526 796 l 511 685 z "},"Ṫ":{"ha":736,"x_min":69,"x_max":821,"o":"m 821 963 l 772 788 l 539 788 l 428 0 l 204 0 l 315 788 l 69 788 l 94 963 l 821 963 m 472 1051 q 389 1083 421 1051 q 357 1163 357 1114 q 398 1261 357 1222 q 500 1300 439 1300 q 583 1269 551 1300 q 615 1190 615 1239 q 574 1091 615 1131 q 472 1051 533 1051 z "},"Ṭ":{"ha":736,"x_min":69,"x_max":821,"o":"m 821 963 l 772 788 l 539 788 l 428 0 l 204 0 l 315 788 l 69 788 l 94 963 l 821 963 m 300 -83 q 383 -115 351 -83 q 415 -194 415 -146 q 374 -293 415 -254 q 272 -332 333 -332 q 189 -301 221 -332 q 157 -222 157 -271 q 198 -123 157 -162 q 300 -83 239 -83 z "},"Ƭ":{"ha":813,"x_min":58,"x_max":896,"o":"m 849 788 l 615 788 l 504 0 l 281 0 l 392 788 l 301 788 q 251 769 268 788 q 233 717 233 750 q 244 650 233 694 l 93 592 q 58 726 58 661 q 128 899 58 835 q 311 963 199 963 l 896 963 l 849 788 z "},"Ṯ":{"ha":736,"x_min":69,"x_max":821,"o":"m 821 963 l 772 788 l 539 788 l 428 0 l 204 0 l 315 788 l 69 788 l 94 963 l 821 963 m 101 -112 l 519 -112 l 499 -265 l 81 -265 l 101 -112 z "},"Ƽ":{"ha":739,"x_min":-19,"x_max":735,"o":"m 276 -24 q -19 119 88 -24 l 114 226 q 188 164 143 186 q 286 142 232 142 q 427 208 383 142 q 471 363 471 275 q 364 481 471 481 q 305 472 333 481 q 238 444 276 464 l 89 447 l 161 963 l 735 963 l 689 806 l 346 806 l 317 599 q 461 631 385 631 q 629 563 565 631 q 693 374 693 494 q 651 189 693 279 q 517 38 610 99 q 276 -24 424 -24 z "},"Ƅ":{"ha":831,"x_min":56,"x_max":808,"o":"m 468 635 q 719 566 631 635 q 808 365 808 497 q 765 188 808 271 q 628 53 722 106 q 388 0 533 0 l 56 0 l 151 682 l 57 753 q 228 963 150 836 l 414 963 l 368 635 l 468 635 m 389 165 q 531 221 489 165 q 572 351 572 276 q 432 476 572 476 l 346 476 l 303 165 l 389 165 z "},"Ƨ":{"ha":768,"x_min":17,"x_max":782,"o":"m 482 986 q 700 922 618 986 q 782 747 782 857 q 698 544 782 618 q 447 418 614 469 q 292 345 336 385 q 247 246 247 306 q 280 174 247 200 q 372 147 313 147 q 619 242 494 147 l 718 113 q 552 13 647 50 q 342 -24 457 -24 q 168 9 242 -24 q 56 101 94 42 q 17 239 17 161 q 97 453 17 374 q 338 583 176 533 q 465 628 419 607 q 531 675 510 649 q 551 740 551 701 q 447 819 551 819 q 330 799 385 819 q 218 739 275 779 l 129 864 q 292 956 207 925 q 482 986 378 986 z "},"Ʈ":{"ha":736,"x_min":69,"x_max":821,"o":"m 539 788 l 428 0 l 429 0 l 421 -61 q 419 -83 419 -69 q 479 -143 419 -143 q 530 -136 508 -143 q 581 -115 551 -129 l 638 -251 q 440 -308 553 -308 q 260 -254 325 -308 q 196 -94 196 -200 q 200 -42 196 -69 l 206 0 l 204 0 l 315 788 l 69 788 l 94 963 l 821 963 l 772 788 l 539 788 z "},"U":{"ha":890,"x_min":64,"x_max":899,"o":"m 808 318 q 742 141 794 218 q 601 20 690 64 q 393 -24 513 -24 q 147 53 231 -24 q 64 261 64 129 q 68 322 64 292 l 158 963 l 382 963 l 293 326 q 289 271 289 296 q 318 176 289 207 q 410 146 347 146 q 530 192 488 146 q 585 331 572 238 l 675 963 l 899 963 l 808 318 z "},"Ú":{"ha":890,"x_min":64,"x_max":899,"o":"m 808 318 q 742 141 794 218 q 601 20 690 64 q 393 -24 513 -24 q 147 53 231 -24 q 64 261 64 129 q 68 322 64 292 l 158 963 l 382 963 l 293 326 q 289 271 289 296 q 318 176 289 207 q 410 146 347 146 q 530 192 488 146 q 585 331 572 238 l 675 963 l 899 963 l 808 318 m 694 1319 l 763 1154 l 422 1038 l 375 1146 l 694 1319 z "},"Ʉ":{"ha":944,"x_min":68,"x_max":982,"o":"m 965 694 l 886 694 l 833 318 q 767 141 819 218 q 626 20 715 64 q 418 -24 538 -24 q 172 53 256 -24 q 89 261 89 129 q 93 322 89 292 l 146 694 l 68 694 l 86 822 l 164 822 l 183 963 l 407 963 l 388 822 l 681 822 l 700 963 l 924 963 l 904 822 l 982 822 l 965 694 m 661 694 l 369 694 l 318 326 q 314 271 314 296 q 343 176 314 207 q 435 146 372 146 q 555 192 513 146 q 610 331 597 238 l 661 694 z "},"Ŭ":{"ha":890,"x_min":64,"x_max":899,"o":"m 808 318 q 742 141 794 218 q 601 20 690 64 q 393 -24 513 -24 q 147 53 231 -24 q 64 261 64 129 q 68 322 64 292 l 158 963 l 382 963 l 293 326 q 289 271 289 296 q 318 176 289 207 q 410 146 347 146 q 530 192 488 146 q 585 331 572 238 l 675 963 l 899 963 l 808 318 m 543 1043 q 385 1109 439 1043 q 336 1269 332 1175 l 454 1288 q 486 1220 461 1246 q 554 1194 511 1194 q 633 1222 600 1194 q 686 1292 667 1249 l 806 1265 q 715 1107 785 1171 q 543 1043 644 1043 z "},"Ǔ":{"ha":890,"x_min":64,"x_max":899,"o":"m 808 318 q 742 141 794 218 q 601 20 690 64 q 393 -24 513 -24 q 147 53 231 -24 q 64 261 64 129 q 68 322 64 292 l 158 963 l 382 963 l 293 326 q 289 271 289 296 q 318 176 289 207 q 410 146 347 146 q 530 192 488 146 q 585 331 572 238 l 675 963 l 899 963 l 808 318 m 754 1310 l 824 1221 l 607 1042 l 475 1042 l 306 1221 l 392 1310 l 557 1193 l 754 1310 z "},"Û":{"ha":890,"x_min":64,"x_max":899,"o":"m 808 318 q 742 141 794 218 q 601 20 690 64 q 393 -24 513 -24 q 147 53 231 -24 q 64 261 64 129 q 68 322 64 292 l 158 963 l 382 963 l 293 326 q 289 271 289 296 q 318 176 289 207 q 410 146 347 146 q 530 192 488 146 q 585 331 572 238 l 675 963 l 899 963 l 808 318 m 357 1049 l 286 1139 l 504 1318 l 636 1318 l 804 1139 l 719 1049 l 553 1165 l 357 1049 z "},"Ȕ":{"ha":890,"x_min":64,"x_max":899,"o":"m 808 318 q 742 141 794 218 q 601 20 690 64 q 393 -24 513 -24 q 147 53 231 -24 q 64 261 64 129 q 68 322 64 292 l 158 963 l 382 963 l 293 326 q 289 271 289 296 q 318 176 289 207 q 410 146 347 146 q 530 192 488 146 q 585 331 572 238 l 675 963 l 899 963 l 808 318 m 404 1369 l 500 1096 l 381 1043 l 250 1296 l 404 1369 m 643 1369 l 726 1096 l 608 1050 l 489 1300 l 643 1369 z "},"Ü":{"ha":890,"x_min":64,"x_max":899,"o":"m 808 318 q 742 141 794 218 q 601 20 690 64 q 393 -24 513 -24 q 147 53 231 -24 q 64 261 64 129 q 68 322 64 292 l 158 963 l 382 963 l 293 326 q 289 271 289 296 q 318 176 289 207 q 410 146 347 146 q 530 192 488 146 q 585 331 572 238 l 675 963 l 899 963 l 808 318 m 388 1067 q 314 1094 342 1067 q 286 1163 286 1121 q 322 1250 286 1215 q 411 1285 358 1285 q 485 1257 457 1285 q 513 1188 513 1229 q 476 1101 513 1136 q 388 1067 440 1067 m 703 1067 q 630 1094 657 1067 q 603 1163 603 1121 q 639 1250 603 1215 q 728 1285 675 1285 q 801 1257 774 1285 q 829 1188 829 1229 q 792 1101 829 1136 q 703 1067 756 1067 z "},"Ǘ":{"ha":890,"x_min":64,"x_max":899,"o":"m 808 318 q 742 141 794 218 q 601 20 690 64 q 393 -24 513 -24 q 147 53 231 -24 q 64 261 64 129 q 68 322 64 292 l 158 963 l 382 963 l 293 326 q 289 271 289 296 q 318 176 289 207 q 410 146 347 146 q 530 192 488 146 q 585 331 572 238 l 675 963 l 899 963 l 808 318 m 700 1522 l 804 1407 l 563 1211 l 488 1286 l 700 1522 m 375 1040 q 301 1067 329 1040 q 274 1138 274 1094 q 310 1224 274 1189 q 400 1258 347 1258 q 474 1231 446 1258 q 501 1161 501 1204 q 465 1075 501 1110 q 375 1040 428 1040 m 710 1040 q 636 1067 664 1040 q 608 1138 608 1094 q 644 1224 608 1189 q 733 1258 681 1258 q 807 1231 779 1258 q 835 1161 835 1204 q 799 1075 835 1110 q 710 1040 763 1040 z "},"Ǚ":{"ha":890,"x_min":64,"x_max":899,"o":"m 808 318 q 742 141 794 218 q 601 20 690 64 q 393 -24 513 -24 q 147 53 231 -24 q 64 261 64 129 q 68 322 64 292 l 158 963 l 382 963 l 293 326 q 289 271 289 296 q 318 176 289 207 q 410 146 347 146 q 530 192 488 146 q 585 331 572 238 l 675 963 l 899 963 l 808 318 m 775 1525 l 844 1436 l 628 1257 l 496 1257 l 326 1436 l 413 1525 l 578 1408 l 775 1525 m 372 1040 q 299 1067 326 1040 q 271 1138 271 1094 q 307 1224 271 1189 q 396 1258 343 1258 q 469 1231 442 1258 q 497 1161 497 1204 q 461 1075 497 1110 q 372 1040 425 1040 m 706 1040 q 632 1067 660 1040 q 604 1138 604 1094 q 641 1224 604 1189 q 731 1258 678 1258 q 804 1231 776 1258 q 832 1161 832 1204 q 795 1075 832 1110 q 706 1040 758 1040 z "},"Ǜ":{"ha":890,"x_min":64,"x_max":899,"o":"m 808 318 q 742 141 794 218 q 601 20 690 64 q 393 -24 513 -24 q 147 53 231 -24 q 64 261 64 129 q 68 322 64 292 l 158 963 l 382 963 l 293 326 q 289 271 289 296 q 318 176 289 207 q 410 146 347 146 q 530 192 488 146 q 585 331 572 238 l 675 963 l 899 963 l 808 318 m 494 1519 l 642 1279 l 556 1211 l 365 1413 l 494 1519 m 371 1040 q 297 1067 325 1040 q 269 1138 269 1094 q 306 1224 269 1189 q 396 1258 343 1258 q 469 1231 442 1258 q 497 1161 497 1204 q 460 1075 497 1110 q 371 1040 424 1040 m 706 1040 q 632 1067 660 1040 q 604 1138 604 1094 q 640 1224 604 1189 q 729 1258 676 1258 q 803 1231 775 1258 q 831 1161 831 1204 q 794 1075 831 1110 q 706 1040 758 1040 z "},"Ǖ":{"ha":890,"x_min":64,"x_max":899,"o":"m 808 318 q 742 141 794 218 q 601 20 690 64 q 393 -24 513 -24 q 147 53 231 -24 q 64 261 64 129 q 68 322 64 292 l 158 963 l 382 963 l 293 326 q 289 271 289 296 q 318 176 289 207 q 410 146 347 146 q 530 192 488 146 q 585 331 572 238 l 675 963 l 899 963 l 808 318 m 379 1036 q 306 1063 333 1036 q 278 1132 278 1090 q 314 1219 278 1185 q 403 1254 350 1254 q 476 1226 449 1254 q 504 1157 504 1199 q 468 1071 504 1106 q 379 1036 432 1036 m 694 1036 q 622 1063 649 1036 q 594 1132 594 1090 q 631 1219 594 1185 q 719 1254 667 1254 q 793 1226 765 1254 q 821 1157 821 1199 q 784 1071 821 1106 q 694 1036 747 1036 m 775 1306 l 357 1306 l 378 1458 l 796 1458 l 775 1306 z "},"Ụ":{"ha":890,"x_min":64,"x_max":899,"o":"m 808 318 q 742 141 794 218 q 601 20 690 64 q 393 -24 513 -24 q 147 53 231 -24 q 64 261 64 129 q 68 322 64 292 l 158 963 l 382 963 l 293 326 q 289 271 289 296 q 318 176 289 207 q 410 146 347 146 q 530 192 488 146 q 585 331 572 238 l 675 963 l 899 963 l 808 318 m 378 -83 q 461 -115 429 -83 q 493 -194 493 -146 q 452 -293 493 -254 q 350 -332 411 -332 q 267 -301 299 -332 q 235 -222 235 -271 q 276 -123 235 -162 q 378 -83 317 -83 z "},"Ù":{"ha":890,"x_min":64,"x_max":899,"o":"m 808 318 q 742 141 794 218 q 601 20 690 64 q 393 -24 513 -24 q 147 53 231 -24 q 64 261 64 129 q 68 322 64 292 l 158 963 l 382 963 l 293 326 q 289 271 289 296 q 318 176 289 207 q 410 146 347 146 q 530 192 488 146 q 585 331 572 238 l 675 963 l 899 963 l 808 318 m 472 1318 l 750 1146 l 692 1039 l 381 1153 l 472 1318 z "},"Ủ":{"ha":890,"x_min":64,"x_max":899,"o":"m 808 318 q 742 141 794 218 q 601 20 690 64 q 393 -24 513 -24 q 147 53 231 -24 q 64 261 64 129 q 68 322 64 292 l 158 963 l 382 963 l 293 326 q 289 271 289 296 q 318 176 289 207 q 410 146 347 146 q 530 192 488 146 q 585 331 572 238 l 675 963 l 899 963 l 808 318 m 493 1185 q 574 1201 547 1188 q 601 1246 601 1215 q 553 1281 601 1281 q 469 1261 513 1281 l 443 1356 q 589 1390 510 1390 q 708 1353 667 1390 q 750 1257 750 1315 q 615 1119 750 1144 l 608 1061 l 479 1061 l 493 1185 z "},"Ư":{"ha":986,"x_min":64,"x_max":1099,"o":"m 1099 990 q 1040 833 1099 888 q 872 775 982 778 l 808 318 q 742 141 794 218 q 601 20 690 64 q 393 -24 513 -24 q 147 53 231 -24 q 64 261 64 129 q 68 322 64 292 l 158 963 l 382 963 l 293 326 q 289 271 289 296 q 318 176 289 207 q 410 146 347 146 q 530 192 488 146 q 585 331 572 238 l 675 963 l 899 963 l 888 886 q 936 919 921 894 q 951 988 951 944 q 944 1054 951 1024 l 1086 1072 q 1099 990 1099 1038 z "},"Ứ":{"ha":986,"x_min":64,"x_max":1099,"o":"m 763 1154 l 422 1038 l 375 1146 l 694 1319 l 763 1154 m 1099 990 q 1040 833 1099 888 q 872 775 982 778 l 808 318 q 742 141 794 218 q 601 20 690 64 q 393 -24 513 -24 q 147 53 231 -24 q 64 261 64 129 q 68 322 64 292 l 158 963 l 382 963 l 293 326 q 289 271 289 296 q 318 176 289 207 q 410 146 347 146 q 530 192 488 146 q 585 331 572 238 l 675 963 l 899 963 l 888 886 q 936 919 921 894 q 951 988 951 944 q 944 1054 951 1024 l 1086 1072 q 1099 990 1099 1038 z "},"Ự":{"ha":986,"x_min":64,"x_max":1099,"o":"m 1099 990 q 1040 833 1099 888 q 872 775 982 778 l 808 318 q 742 141 794 218 q 601 20 690 64 q 393 -24 513 -24 q 147 53 231 -24 q 64 261 64 129 q 68 322 64 292 l 158 963 l 382 963 l 293 326 q 289 271 289 296 q 318 176 289 207 q 410 146 347 146 q 530 192 488 146 q 585 331 572 238 l 675 963 l 899 963 l 888 886 q 936 919 921 894 q 951 988 951 944 q 944 1054 951 1024 l 1086 1072 q 1099 990 1099 1038 m 378 -83 q 461 -115 429 -83 q 493 -194 493 -146 q 452 -293 493 -254 q 350 -332 411 -332 q 267 -301 299 -332 q 235 -222 235 -271 q 276 -123 235 -162 q 378 -83 317 -83 z "},"Ừ":{"ha":986,"x_min":64,"x_max":1099,"o":"m 750 1146 l 692 1039 l 381 1153 l 472 1318 l 750 1146 m 1099 990 q 1040 833 1099 888 q 872 775 982 778 l 808 318 q 742 141 794 218 q 601 20 690 64 q 393 -24 513 -24 q 147 53 231 -24 q 64 261 64 129 q 68 322 64 292 l 158 963 l 382 963 l 293 326 q 289 271 289 296 q 318 176 289 207 q 410 146 347 146 q 530 192 488 146 q 585 331 572 238 l 675 963 l 899 963 l 888 886 q 936 919 921 894 q 951 988 951 944 q 944 1054 951 1024 l 1086 1072 q 1099 990 1099 1038 z "},"Ử":{"ha":986,"x_min":64,"x_max":1099,"o":"m 553 1281 q 469 1261 513 1281 l 443 1356 q 589 1390 510 1390 q 708 1353 667 1390 q 750 1257 750 1315 q 615 1119 750 1144 l 608 1061 l 479 1061 l 493 1185 q 574 1201 547 1188 q 601 1246 601 1215 q 553 1281 601 1281 m 1099 990 q 1040 833 1099 888 q 872 775 982 778 l 808 318 q 742 141 794 218 q 601 20 690 64 q 393 -24 513 -24 q 147 53 231 -24 q 64 261 64 129 q 68 322 64 292 l 158 963 l 382 963 l 293 326 q 289 271 289 296 q 318 176 289 207 q 410 146 347 146 q 530 192 488 146 q 585 331 572 238 l 675 963 l 899 963 l 888 886 q 936 919 921 894 q 951 988 951 944 q 944 1054 951 1024 l 1086 1072 q 1099 990 1099 1038 z "},"Ữ":{"ha":986,"x_min":64,"x_max":1099,"o":"m 479 1119 q 436 1104 454 1119 q 394 1056 418 1089 l 294 1114 q 382 1231 332 1186 q 489 1275 432 1275 q 541 1265 519 1275 q 589 1236 563 1254 q 615 1218 604 1224 q 639 1213 626 1213 q 680 1227 661 1213 q 722 1275 699 1242 l 824 1218 q 735 1101 785 1144 q 631 1057 685 1057 q 583 1066 603 1057 q 533 1094 564 1075 q 503 1113 515 1107 q 479 1119 492 1119 m 1099 990 q 1040 833 1099 888 q 872 775 982 778 l 808 318 q 742 141 794 218 q 601 20 690 64 q 393 -24 513 -24 q 147 53 231 -24 q 64 261 64 129 q 68 322 64 292 l 158 963 l 382 963 l 293 326 q 289 271 289 296 q 318 176 289 207 q 410 146 347 146 q 530 192 488 146 q 585 331 572 238 l 675 963 l 899 963 l 888 886 q 936 919 921 894 q 951 988 951 944 q 944 1054 951 1024 l 1086 1072 q 1099 990 1099 1038 z "},"Ű":{"ha":890,"x_min":64,"x_max":899,"o":"m 808 318 q 742 141 794 218 q 601 20 690 64 q 393 -24 513 -24 q 147 53 231 -24 q 64 261 64 129 q 68 322 64 292 l 158 963 l 382 963 l 293 326 q 289 271 289 296 q 318 176 289 207 q 410 146 347 146 q 530 192 488 146 q 585 331 572 238 l 675 963 l 899 963 l 808 318 m 515 1369 l 651 1300 l 464 1050 l 356 1096 l 515 1369 m 754 1369 l 890 1296 l 690 1043 l 585 1096 l 754 1369 z "},"Ȗ":{"ha":890,"x_min":64,"x_max":899,"o":"m 808 318 q 742 141 794 218 q 601 20 690 64 q 393 -24 513 -24 q 147 53 231 -24 q 64 261 64 129 q 68 322 64 292 l 158 963 l 382 963 l 293 326 q 289 271 289 296 q 318 176 289 207 q 410 146 347 146 q 530 192 488 146 q 585 331 572 238 l 675 963 l 899 963 l 808 318 m 308 1085 q 402 1255 331 1189 q 578 1321 474 1321 q 738 1252 683 1321 q 786 1079 792 1183 l 663 1063 q 563 1168 651 1168 q 426 1058 469 1168 l 308 1085 z "},"Ū":{"ha":890,"x_min":64,"x_max":899,"o":"m 808 318 q 742 141 794 218 q 601 20 690 64 q 393 -24 513 -24 q 147 53 231 -24 q 64 261 64 129 q 68 322 64 292 l 158 963 l 382 963 l 293 326 q 289 271 289 296 q 318 176 289 207 q 410 146 347 146 q 530 192 488 146 q 585 331 572 238 l 675 963 l 899 963 l 808 318 m 756 1085 l 338 1085 l 358 1238 l 776 1238 l 756 1085 z "},"Ų":{"ha":890,"x_min":64,"x_max":899,"o":"m 899 963 l 808 318 q 722 114 792 200 q 536 -4 653 28 q 371 -151 371 -68 q 438 -206 371 -206 q 525 -194 474 -206 l 497 -331 q 400 -342 450 -342 q 262 -301 315 -342 q 208 -193 208 -261 q 340 -21 208 -81 q 134 66 204 -8 q 64 260 64 140 q 68 322 64 289 l 158 963 l 382 963 l 293 326 q 289 271 289 296 q 318 176 289 207 q 410 146 347 146 q 530 192 488 146 q 585 331 572 238 l 675 963 l 899 963 z "},"Ʊ":{"ha":946,"x_min":47,"x_max":953,"o":"m 422 -24 q 220 24 304 -24 q 92 154 136 71 q 47 344 47 238 q 109 607 47 492 q 294 801 171 722 l 136 801 l 158 963 l 481 963 l 460 806 q 326 594 371 715 q 281 343 281 472 q 438 143 281 143 q 624 261 564 143 q 685 546 685 379 q 667 698 685 639 q 611 810 649 757 l 632 963 l 953 963 l 931 797 l 779 797 q 914 507 914 694 q 852 235 914 356 q 678 45 790 114 q 422 -24 567 -24 z "},"Ů":{"ha":890,"x_min":64,"x_max":899,"o":"m 808 318 q 742 141 794 218 q 601 20 690 64 q 393 -24 513 -24 q 147 53 231 -24 q 64 261 64 129 q 68 322 64 292 l 158 963 l 382 963 l 293 326 q 289 271 289 296 q 318 176 289 207 q 410 146 347 146 q 530 192 488 146 q 585 331 572 238 l 675 963 l 899 963 l 808 318 m 586 1379 q 710 1333 664 1379 q 756 1215 756 1288 q 728 1117 756 1163 q 653 1043 701 1071 q 542 1015 604 1015 q 419 1061 464 1015 q 374 1179 374 1107 q 401 1277 374 1231 q 476 1351 428 1324 q 586 1379 525 1379 m 576 1268 q 519 1243 540 1268 q 499 1185 499 1218 q 513 1142 499 1157 q 551 1128 526 1128 q 608 1152 588 1128 q 629 1211 629 1176 q 615 1253 629 1239 q 576 1268 601 1268 z "},"Ũ":{"ha":890,"x_min":64,"x_max":899,"o":"m 808 318 q 742 141 794 218 q 601 20 690 64 q 393 -24 513 -24 q 147 53 231 -24 q 64 261 64 129 q 68 322 64 292 l 158 963 l 382 963 l 293 326 q 289 271 289 296 q 318 176 289 207 q 410 146 347 146 q 530 192 488 146 q 585 331 572 238 l 675 963 l 899 963 l 808 318 m 631 1057 q 583 1066 603 1057 q 533 1094 564 1075 q 503 1113 515 1107 q 479 1119 492 1119 q 436 1104 454 1119 q 394 1056 418 1089 l 294 1114 q 382 1231 332 1186 q 489 1275 432 1275 q 541 1265 519 1275 q 589 1236 563 1254 q 615 1218 604 1224 q 639 1213 626 1213 q 680 1227 661 1213 q 722 1275 699 1242 l 824 1218 q 735 1101 785 1144 q 631 1057 685 1057 z "},"Ṹ":{"ha":890,"x_min":64,"x_max":899,"o":"m 808 318 q 742 141 794 218 q 601 20 690 64 q 393 -24 513 -24 q 147 53 231 -24 q 64 261 64 129 q 68 322 64 292 l 158 963 l 382 963 l 293 326 q 289 271 289 296 q 318 176 289 207 q 410 146 347 146 q 530 192 488 146 q 585 331 572 238 l 675 963 l 899 963 l 808 318 m 625 1050 q 578 1059 597 1050 q 528 1088 558 1068 q 498 1106 510 1100 q 474 1113 486 1113 q 431 1097 449 1113 q 389 1049 413 1082 l 289 1107 q 376 1224 326 1179 q 483 1268 426 1268 q 535 1258 514 1268 q 583 1229 557 1247 q 610 1211 599 1217 q 633 1206 621 1206 q 674 1220 656 1206 q 717 1268 693 1235 l 818 1211 q 729 1094 779 1138 q 625 1050 679 1050 m 696 1569 l 764 1404 l 424 1288 l 376 1396 l 696 1569 z "},"V":{"ha":779,"x_min":64,"x_max":881,"o":"m 881 963 l 482 0 l 204 0 l 64 963 l 299 963 l 368 178 l 649 963 l 881 963 z "},"Ʋ":{"ha":876,"x_min":63,"x_max":872,"o":"m 686 986 q 872 806 872 986 q 868 744 872 778 l 821 403 q 674 87 793 197 q 369 -24 554 -24 q 144 52 225 -24 q 63 250 63 128 q 65 300 63 283 l 160 963 l 383 963 l 290 296 q 288 256 288 268 q 388 146 288 146 q 523 210 468 146 q 596 406 578 274 l 647 771 l 649 786 q 617 821 649 821 q 578 815 606 821 l 558 963 q 686 986 618 986 z "},"Ʌ":{"ha":807,"x_min":-71,"x_max":772,"o":"m 622 963 l 772 0 l 542 0 l 464 797 l 167 0 l -71 0 l 350 963 l 622 963 z "},"W":{"ha":1163,"x_min":99,"x_max":1231,"o":"m 1231 963 l 938 0 l 647 0 l 632 735 l 403 0 l 119 0 l 99 963 l 318 963 l 303 172 l 546 963 l 782 963 l 794 172 l 1015 963 l 1231 963 z "},"Ẃ":{"ha":1163,"x_min":99,"x_max":1231,"o":"m 1231 963 l 938 0 l 647 0 l 632 735 l 403 0 l 119 0 l 99 963 l 318 963 l 303 172 l 546 963 l 782 963 l 794 172 l 1015 963 l 1231 963 m 832 1319 l 900 1154 l 560 1038 l 513 1146 l 832 1319 z "},"Ŵ":{"ha":1163,"x_min":99,"x_max":1231,"o":"m 1231 963 l 938 0 l 647 0 l 632 735 l 403 0 l 119 0 l 99 963 l 318 963 l 303 172 l 546 963 l 782 963 l 794 172 l 1015 963 l 1231 963 m 494 1049 l 424 1139 l 642 1318 l 774 1318 l 942 1139 l 857 1049 l 690 1165 l 494 1049 z "},"Ẅ":{"ha":1163,"x_min":99,"x_max":1231,"o":"m 1231 963 l 938 0 l 647 0 l 632 735 l 403 0 l 119 0 l 99 963 l 318 963 l 303 172 l 546 963 l 782 963 l 794 172 l 1015 963 l 1231 963 m 525 1067 q 451 1094 479 1067 q 424 1163 424 1121 q 460 1250 424 1215 q 549 1285 496 1285 q 622 1257 594 1285 q 650 1188 650 1229 q 614 1101 650 1136 q 525 1067 578 1067 m 840 1067 q 767 1094 794 1067 q 740 1163 740 1121 q 776 1250 740 1215 q 865 1285 813 1285 q 939 1257 911 1285 q 967 1188 967 1229 q 930 1101 967 1136 q 840 1067 893 1067 z "},"Ẁ":{"ha":1163,"x_min":99,"x_max":1231,"o":"m 1231 963 l 938 0 l 647 0 l 632 735 l 403 0 l 119 0 l 99 963 l 318 963 l 303 172 l 546 963 l 782 963 l 794 172 l 1015 963 l 1231 963 m 610 1318 l 888 1146 l 829 1039 l 518 1153 l 610 1318 z "},"Ⱳ":{"ha":1236,"x_min":99,"x_max":1368,"o":"m 403 0 l 632 735 l 647 0 l 932 0 l 1143 751 q 1174 808 1156 792 q 1224 825 1193 825 q 1290 804 1258 825 l 1368 933 q 1201 986 1296 986 q 1041 936 1101 986 q 950 763 981 886 l 794 172 l 782 963 l 546 963 l 303 172 l 318 963 l 99 963 l 119 0 l 403 0 z "},"Ƿ":{"ha":821,"x_min":38,"x_max":843,"o":"m 610 986 q 778 924 713 986 q 843 751 843 861 q 788 556 843 638 q 639 421 732 475 q 413 319 546 367 l 300 279 l 261 0 l 38 0 l 172 963 l 396 963 l 388 906 q 610 986 481 986 m 382 465 q 610 728 610 568 q 586 799 610 775 q 519 822 563 822 q 368 764 440 822 l 322 440 l 382 465 z "},"X":{"ha":793,"x_min":-58,"x_max":858,"o":"m 858 963 l 546 518 l 747 0 l 507 0 l 394 375 l 183 0 l -58 0 l 279 511 l 97 963 l 338 963 l 428 646 l 618 963 l 858 963 z "},"Y":{"ha":811,"x_min":74,"x_max":906,"o":"m 906 963 l 517 361 l 467 0 l 242 0 l 293 360 l 74 963 l 313 963 l 429 539 l 664 963 l 906 963 z "},"Ý":{"ha":811,"x_min":74,"x_max":906,"o":"m 906 963 l 517 361 l 467 0 l 242 0 l 293 360 l 74 963 l 313 963 l 429 539 l 664 963 l 906 963 m 656 1319 l 724 1154 l 383 1038 l 336 1146 l 656 1319 z "},"Ŷ":{"ha":811,"x_min":74,"x_max":906,"o":"m 906 963 l 517 361 l 467 0 l 242 0 l 293 360 l 74 963 l 313 963 l 429 539 l 664 963 l 906 963 m 318 1049 l 247 1139 l 465 1318 l 597 1318 l 765 1139 l 681 1049 l 514 1165 l 318 1049 z "},"Ÿ":{"ha":811,"x_min":74,"x_max":906,"o":"m 906 963 l 517 361 l 467 0 l 242 0 l 293 360 l 74 963 l 313 963 l 429 539 l 664 963 l 906 963 m 349 1067 q 275 1094 303 1067 q 247 1163 247 1121 q 283 1250 247 1215 q 372 1285 319 1285 q 446 1257 418 1285 q 474 1188 474 1229 q 438 1101 474 1136 q 349 1067 401 1067 m 664 1067 q 591 1094 618 1067 q 564 1163 564 1121 q 600 1250 564 1215 q 689 1285 636 1285 q 763 1257 735 1285 q 790 1188 790 1229 q 753 1101 790 1136 q 664 1067 717 1067 z "},"Ỵ":{"ha":811,"x_min":74,"x_max":906,"o":"m 906 963 l 517 361 l 467 0 l 242 0 l 293 360 l 74 963 l 313 963 l 429 539 l 664 963 l 906 963 m 338 -83 q 421 -115 389 -83 q 453 -194 453 -146 q 412 -293 453 -254 q 310 -332 371 -332 q 226 -301 258 -332 q 194 -222 194 -271 q 235 -123 194 -162 q 338 -83 276 -83 z "},"Ỳ":{"ha":811,"x_min":74,"x_max":906,"o":"m 906 963 l 517 361 l 467 0 l 242 0 l 293 360 l 74 963 l 313 963 l 429 539 l 664 963 l 906 963 m 433 1318 l 711 1146 l 653 1039 l 342 1153 l 433 1318 z "},"Ƴ":{"ha":860,"x_min":74,"x_max":990,"o":"m 293 360 l 74 963 l 313 963 l 429 539 l 565 796 q 674 944 618 901 q 825 986 731 986 q 918 972 879 986 q 990 933 957 958 l 913 804 q 846 825 881 825 q 797 810 817 825 q 753 751 778 794 l 517 361 l 465 0 l 242 0 l 293 360 z "},"Ỷ":{"ha":811,"x_min":74,"x_max":906,"o":"m 906 963 l 517 361 l 467 0 l 242 0 l 293 360 l 74 963 l 313 963 l 429 539 l 664 963 l 906 963 m 454 1185 q 535 1201 508 1188 q 563 1246 563 1215 q 514 1281 563 1281 q 431 1261 474 1281 l 404 1356 q 550 1390 471 1390 q 669 1353 628 1390 q 711 1257 711 1315 q 576 1119 711 1144 l 569 1061 l 440 1061 l 454 1185 z "},"Ȳ":{"ha":811,"x_min":74,"x_max":906,"o":"m 906 963 l 517 361 l 467 0 l 242 0 l 293 360 l 74 963 l 313 963 l 429 539 l 664 963 l 906 963 m 717 1085 l 299 1085 l 319 1238 l 738 1238 l 717 1085 z "},"Ʀ":{"ha":843,"x_min":38,"x_max":813,"o":"m 813 558 q 765 377 813 456 q 593 246 717 299 l 774 -160 l 533 -160 l 385 207 l 290 208 l 261 0 l 38 0 l 172 963 l 396 963 l 374 804 l 460 804 q 813 558 813 804 m 313 367 l 411 367 q 542 419 503 367 q 581 540 581 471 q 545 619 581 594 q 436 643 510 643 l 351 643 l 313 367 z "},"Ɏ":{"ha":813,"x_min":43,"x_max":907,"o":"m 907 963 l 838 854 l 890 854 l 874 726 l 754 726 l 518 361 l 468 0 l 243 0 l 294 360 l 161 726 l 43 726 l 60 854 l 114 854 l 75 963 l 297 963 l 329 854 l 621 854 l 683 963 l 907 963 m 429 521 l 547 726 l 368 726 l 429 521 z "},"Ỹ":{"ha":811,"x_min":74,"x_max":906,"o":"m 906 963 l 517 361 l 467 0 l 242 0 l 293 360 l 74 963 l 313 963 l 429 539 l 664 963 l 906 963 m 592 1057 q 544 1066 564 1057 q 494 1094 525 1075 q 465 1113 476 1107 q 440 1119 453 1119 q 397 1104 415 1119 q 356 1056 379 1089 l 256 1114 q 343 1231 293 1186 q 450 1275 393 1275 q 502 1265 481 1275 q 550 1236 524 1254 q 576 1218 565 1224 q 600 1213 588 1213 q 641 1227 622 1213 q 683 1275 660 1242 l 785 1218 q 696 1101 746 1144 q 592 1057 646 1057 z "},"Z":{"ha":742,"x_min":-28,"x_max":782,"o":"m -28 0 l -6 171 l 500 786 l 125 786 l 150 963 l 782 963 l 758 790 l 258 181 l 679 182 l 632 0 l -28 0 z "},"Ź":{"ha":742,"x_min":-28,"x_max":782,"o":"m -28 0 l -6 171 l 500 786 l 125 786 l 150 963 l 782 963 l 758 790 l 258 181 l 679 182 l 632 0 l -28 0 m 625 1319 l 693 1154 l 353 1038 l 306 1146 l 625 1319 z "},"Ž":{"ha":742,"x_min":-28,"x_max":782,"o":"m -28 0 l -6 171 l 500 786 l 125 786 l 150 963 l 782 963 l 758 790 l 258 181 l 679 182 l 632 0 l -28 0 m 685 1310 l 754 1221 l 538 1042 l 406 1042 l 236 1221 l 322 1310 l 488 1193 l 685 1310 z "},"Ż":{"ha":742,"x_min":-28,"x_max":782,"o":"m -28 0 l -6 171 l 500 786 l 125 786 l 150 963 l 782 963 l 758 790 l 258 181 l 679 182 l 632 0 l -28 0 m 481 1051 q 397 1083 429 1051 q 365 1163 365 1114 q 406 1261 365 1222 q 508 1300 447 1300 q 592 1269 560 1300 q 624 1190 624 1239 q 583 1091 624 1131 q 481 1051 542 1051 z "},"Ẓ":{"ha":742,"x_min":-28,"x_max":782,"o":"m -28 0 l -6 171 l 500 786 l 125 786 l 150 963 l 782 963 l 758 790 l 258 181 l 679 182 l 632 0 l -28 0 m 285 -83 q 368 -115 336 -83 q 400 -194 400 -146 q 359 -293 400 -254 q 257 -332 318 -332 q 174 -301 206 -332 q 142 -222 142 -271 q 183 -123 142 -162 q 285 -83 224 -83 z "},"Ȥ":{"ha":733,"x_min":-28,"x_max":782,"o":"m 758 790 l 263 181 l 668 182 l 642 0 l 633 -54 q 536 -244 613 -179 q 338 -308 460 -308 q 150 -247 226 -308 l 238 -119 q 283 -140 263 -133 q 329 -147 303 -147 q 419 -56 406 -147 l 428 0 l -28 0 l -6 171 l 500 786 l 125 786 l 150 963 l 782 963 l 758 790 z "},"Ƶ":{"ha":742,"x_min":-28,"x_max":782,"o":"m 782 963 l 758 790 l 558 553 l 660 553 l 639 411 l 439 411 l 244 181 l 679 182 l 632 0 l -28 0 l -6 171 l 199 411 l 86 411 l 108 553 l 319 553 l 518 786 l 125 786 l 150 963 l 782 963 z "},"ʙ":{"ha":744,"x_min":33,"x_max":713,"o":"m 713 585 q 668 468 713 514 q 536 404 624 422 q 699 254 699 386 q 602 63 699 125 q 343 0 506 0 l 33 0 l 135 731 q 422 761 300 761 q 635 715 558 761 q 713 585 713 669 m 385 449 q 467 477 436 449 q 497 556 497 506 q 408 621 497 621 q 338 617 375 621 l 314 449 l 385 449 m 344 144 q 442 174 404 144 q 479 265 479 204 q 455 318 479 303 q 383 333 431 333 l 297 333 l 269 144 l 344 144 z "},"ɢ":{"ha":767,"x_min":38,"x_max":740,"o":"m 469 761 q 624 734 561 761 q 740 658 688 707 l 624 547 q 550 592 586 578 q 471 606 514 606 q 313 510 365 606 q 260 279 260 415 q 288 167 260 200 q 372 135 317 135 q 476 154 425 135 l 494 288 l 401 288 l 401 432 l 717 432 l 667 65 q 354 -21 525 -21 q 117 56 197 -21 q 38 281 38 132 q 92 528 38 418 q 244 699 146 638 q 469 761 343 761 z "},"ʛ":{"ha":778,"x_min":36,"x_max":1011,"o":"m 832 1054 q 1011 1000 938 1054 l 933 867 q 890 885 910 879 q 846 892 871 892 q 761 804 771 892 l 740 658 l 636 561 q 469 606 550 606 q 311 509 363 606 q 260 274 260 413 q 288 167 260 199 q 372 135 317 135 q 476 154 422 135 l 493 288 l 401 288 l 400 432 l 717 432 l 667 65 q 353 -21 525 -21 q 116 56 196 -21 q 36 281 36 132 q 92 526 36 417 q 241 699 147 636 q 446 761 335 761 q 561 744 511 761 l 572 819 q 653 994 588 933 q 832 1054 719 1054 z "},"ʜ":{"ha":800,"x_min":33,"x_max":767,"o":"m 449 0 l 490 293 l 290 293 l 249 0 l 33 0 l 136 738 l 351 738 l 313 456 l 513 456 l 551 738 l 767 738 l 664 0 l 449 0 z "},"ɪ":{"ha":456,"x_min":-33,"x_max":489,"o":"m 467 585 l 365 585 l 304 153 l 407 153 l 385 0 l -33 0 l -12 153 l 89 153 l 149 585 l 49 585 l 69 738 l 489 738 l 467 585 z "},"ʟ":{"ha":619,"x_min":33,"x_max":576,"o":"m 351 738 l 272 168 l 576 168 l 529 0 l 33 0 l 136 738 l 351 738 z "},"ɴ":{"ha":803,"x_min":33,"x_max":769,"o":"m 667 0 l 408 0 l 268 546 q 269 447 269 515 q 253 207 269 322 l 225 0 l 33 0 l 136 738 l 392 738 l 535 193 l 533 233 q 531 306 531 281 q 546 497 531 389 l 579 738 l 769 738 l 667 0 z "},"ɶ":{"ha":1050,"x_min":39,"x_max":1071,"o":"m 707 586 q 749 447 742 524 l 974 447 l 953 300 l 735 300 q 651 153 708 214 l 986 153 l 964 0 l 478 0 q 344 -24 415 -24 q 119 60 200 -24 q 39 290 39 143 q 79 512 39 404 q 211 690 119 619 q 447 761 303 761 q 581 738 517 761 l 1071 738 l 1026 586 l 707 586 m 260 276 q 285 171 260 204 q 363 138 310 138 q 497 240 458 138 q 538 461 536 342 q 512 567 538 533 q 435 600 486 600 q 299 497 339 600 q 260 276 260 394 z "},"ʀ":{"ha":740,"x_min":33,"x_max":685,"o":"m 685 525 q 526 289 685 360 l 667 0 l 444 0 l 340 254 l 276 254 l 240 0 l 33 0 l 136 738 l 396 738 q 611 684 538 738 q 685 525 685 631 m 296 400 l 349 400 q 441 431 410 400 q 472 514 472 463 q 449 572 472 556 q 374 588 425 588 l 322 588 l 296 400 z "},"ʁ":{"ha":739,"x_min":33,"x_max":771,"o":"m 550 447 q 650 274 650 392 q 555 69 650 138 q 296 0 460 0 l 33 0 l 136 738 l 343 738 l 307 483 l 371 483 l 549 738 l 771 738 l 550 447 m 308 151 q 436 264 436 151 q 413 320 436 303 q 342 338 389 338 l 288 338 l 261 151 l 308 151 z "},"ʏ":{"ha":696,"x_min":43,"x_max":757,"o":"m 757 738 l 442 267 l 404 0 l 189 0 l 226 265 l 43 738 l 271 738 l 353 417 l 525 738 l 757 738 z "},"a":{"ha":794,"x_min":36,"x_max":760,"o":"m 458 761 q 760 683 618 761 l 692 211 q 689 179 689 186 q 697 144 689 157 q 728 122 706 131 l 665 -19 q 556 16 601 -14 q 494 103 510 46 q 275 -24 406 -24 q 98 55 160 -24 q 36 269 36 133 q 79 499 36 386 q 217 686 122 611 q 458 761 313 761 m 453 606 q 342 554 386 606 q 279 426 299 503 q 260 271 260 350 q 281 167 260 197 q 343 138 303 138 q 483 240 417 138 l 535 592 q 453 606 494 606 z "},"á":{"ha":794,"x_min":36,"x_max":760,"o":"m 458 761 q 760 683 618 761 l 692 211 q 689 179 689 186 q 697 144 689 157 q 728 122 706 131 l 665 -19 q 556 16 601 -14 q 494 103 510 46 q 275 -24 406 -24 q 98 55 160 -24 q 36 269 36 133 q 79 499 36 386 q 217 686 122 611 q 458 761 313 761 m 453 606 q 342 554 386 606 q 279 426 299 503 q 260 271 260 350 q 281 167 260 197 q 343 138 303 138 q 483 240 417 138 l 535 592 q 453 606 494 606 m 642 1160 l 708 996 l 368 864 l 319 976 l 642 1160 z "},"ă":{"ha":794,"x_min":36,"x_max":760,"o":"m 458 761 q 760 683 618 761 l 692 211 q 689 179 689 186 q 697 144 689 157 q 728 122 706 131 l 665 -19 q 556 16 601 -14 q 494 103 510 46 q 275 -24 406 -24 q 98 55 160 -24 q 36 269 36 133 q 79 499 36 386 q 217 686 122 611 q 458 761 313 761 m 453 606 q 342 554 386 606 q 279 426 299 503 q 260 271 260 350 q 281 167 260 197 q 343 138 303 138 q 483 240 417 138 l 535 592 q 453 606 494 606 m 492 878 q 334 947 388 878 q 286 1119 281 1015 l 407 1138 q 504 1031 415 1031 q 586 1060 551 1031 q 640 1140 621 1089 l 756 1115 q 664 944 733 1011 q 492 878 594 878 z "},"ắ":{"ha":794,"x_min":36,"x_max":760,"o":"m 650 1365 l 754 1250 l 513 1054 l 438 1129 l 650 1365 m 497 836 q 340 902 393 836 q 290 1063 286 968 l 408 1081 q 440 1013 415 1039 q 508 988 465 988 q 588 1015 554 988 q 640 1085 621 1042 l 760 1058 q 669 900 739 964 q 497 836 599 836 m 458 761 q 760 683 618 761 l 692 211 q 689 179 689 186 q 697 144 689 157 q 728 122 706 131 l 665 -19 q 556 16 601 -14 q 494 103 510 46 q 275 -24 406 -24 q 98 55 160 -24 q 36 269 36 133 q 79 499 36 386 q 217 686 122 611 q 458 761 313 761 m 453 606 q 342 554 386 606 q 279 426 299 503 q 260 271 260 350 q 281 167 260 197 q 343 138 303 138 q 483 240 417 138 l 535 592 q 453 606 494 606 z "},"ặ":{"ha":794,"x_min":36,"x_max":760,"o":"m 458 761 q 760 683 618 761 l 692 211 q 689 179 689 186 q 697 144 689 157 q 728 122 706 131 l 665 -19 q 556 16 601 -14 q 494 103 510 46 q 275 -24 406 -24 q 98 55 160 -24 q 36 269 36 133 q 79 499 36 386 q 217 686 122 611 q 458 761 313 761 m 453 606 q 342 554 386 606 q 279 426 299 503 q 260 271 260 350 q 281 167 260 197 q 343 138 303 138 q 483 240 417 138 l 535 592 q 453 606 494 606 m 492 878 q 334 947 388 878 q 286 1119 281 1015 l 407 1138 q 504 1031 415 1031 q 586 1060 551 1031 q 640 1140 621 1089 l 756 1115 q 664 944 733 1011 q 492 878 594 878 m 368 -83 q 451 -115 419 -83 q 483 -194 483 -146 q 442 -293 483 -254 q 340 -332 401 -332 q 257 -301 289 -332 q 225 -222 225 -271 q 266 -123 225 -162 q 368 -83 307 -83 z "},"ằ":{"ha":794,"x_min":36,"x_max":760,"o":"m 451 1363 l 599 1122 l 513 1054 l 322 1256 l 451 1363 m 497 836 q 340 902 393 836 q 290 1063 286 968 l 408 1081 q 440 1013 415 1039 q 508 988 465 988 q 588 1015 554 988 q 640 1085 621 1042 l 760 1058 q 669 900 739 964 q 497 836 599 836 m 458 761 q 760 683 618 761 l 692 211 q 689 179 689 186 q 697 144 689 157 q 728 122 706 131 l 665 -19 q 556 16 601 -14 q 494 103 510 46 q 275 -24 406 -24 q 98 55 160 -24 q 36 269 36 133 q 79 499 36 386 q 217 686 122 611 q 458 761 313 761 m 453 606 q 342 554 386 606 q 279 426 299 503 q 260 271 260 350 q 281 167 260 197 q 343 138 303 138 q 483 240 417 138 l 535 592 q 453 606 494 606 z "},"ẳ":{"ha":794,"x_min":36,"x_max":763,"o":"m 458 761 q 760 683 618 761 l 692 211 q 689 179 689 186 q 697 144 689 157 q 728 122 706 131 l 665 -19 q 556 16 601 -14 q 494 103 510 46 q 275 -24 406 -24 q 98 55 160 -24 q 36 269 36 133 q 79 499 36 386 q 217 686 122 611 q 458 761 313 761 m 453 606 q 342 554 386 606 q 279 426 299 503 q 260 271 260 350 q 281 167 260 197 q 343 138 303 138 q 483 240 417 138 l 535 592 q 453 606 494 606 m 500 836 q 342 902 396 836 q 293 1063 289 968 l 411 1081 q 443 1013 418 1039 q 511 988 468 988 q 590 1015 557 988 q 643 1085 624 1042 l 763 1058 q 672 900 742 964 q 500 836 601 836 m 474 1193 q 555 1210 528 1196 q 582 1254 582 1224 q 533 1289 582 1289 q 450 1269 493 1289 l 424 1364 q 569 1399 490 1399 q 689 1361 647 1399 q 731 1265 731 1324 q 596 1128 731 1153 l 586 1056 l 458 1056 l 474 1193 z "},"ẵ":{"ha":794,"x_min":36,"x_max":811,"o":"m 621 1113 q 573 1122 594 1113 q 526 1147 551 1131 q 497 1164 511 1157 q 471 1171 483 1171 q 429 1156 447 1171 q 388 1111 411 1142 l 289 1165 q 375 1274 325 1232 q 481 1317 425 1317 q 532 1307 510 1317 q 578 1281 554 1297 q 592 1272 581 1279 q 612 1262 603 1265 q 629 1258 621 1258 q 669 1272 651 1258 q 711 1317 688 1286 l 811 1263 q 725 1153 775 1194 q 621 1113 675 1113 m 503 836 q 345 902 399 836 q 296 1063 292 968 l 414 1081 q 446 1013 421 1039 q 514 988 471 988 q 593 1015 560 988 q 646 1085 626 1042 l 765 1058 q 674 900 744 964 q 503 836 604 836 m 458 761 q 760 683 618 761 l 692 211 q 689 179 689 186 q 697 144 689 157 q 728 122 706 131 l 665 -19 q 556 16 601 -14 q 494 103 510 46 q 275 -24 406 -24 q 98 55 160 -24 q 36 269 36 133 q 79 499 36 386 q 217 686 122 611 q 458 761 313 761 m 453 606 q 342 554 386 606 q 279 426 299 503 q 260 271 260 350 q 281 167 260 197 q 343 138 303 138 q 483 240 417 138 l 535 592 q 453 606 494 606 z "},"ǎ":{"ha":794,"x_min":36,"x_max":775,"o":"m 458 761 q 760 683 618 761 l 692 211 q 689 179 689 186 q 697 144 689 157 q 728 122 706 131 l 665 -19 q 556 16 601 -14 q 494 103 510 46 q 275 -24 406 -24 q 98 55 160 -24 q 36 269 36 133 q 79 499 36 386 q 217 686 122 611 q 458 761 313 761 m 453 606 q 342 554 386 606 q 279 426 299 503 q 260 271 260 350 q 281 167 260 197 q 343 138 303 138 q 483 240 417 138 l 535 592 q 453 606 494 606 m 706 1129 l 775 1039 l 557 849 l 425 849 l 258 1039 l 342 1129 l 504 1003 l 706 1129 z "},"â":{"ha":794,"x_min":36,"x_max":763,"o":"m 458 761 q 760 683 618 761 l 692 211 q 689 179 689 186 q 697 144 689 157 q 728 122 706 131 l 665 -19 q 556 16 601 -14 q 494 103 510 46 q 275 -24 406 -24 q 98 55 160 -24 q 36 269 36 133 q 79 499 36 386 q 217 686 122 611 q 458 761 313 761 m 453 606 q 342 554 386 606 q 279 426 299 503 q 260 271 260 350 q 281 167 260 197 q 343 138 303 138 q 483 240 417 138 l 535 592 q 453 606 494 606 m 315 861 l 246 951 l 464 1142 l 596 1142 l 763 951 l 675 861 l 513 989 l 315 861 z "},"ấ":{"ha":794,"x_min":36,"x_max":960,"o":"m 856 1328 l 960 1213 l 718 1017 l 643 1092 l 856 1328 m 306 813 l 235 903 l 453 1082 l 585 1082 l 753 903 l 668 813 l 501 929 l 306 813 m 458 761 q 760 683 618 761 l 692 211 q 689 179 689 186 q 697 144 689 157 q 728 122 706 131 l 665 -19 q 556 16 601 -14 q 494 103 510 46 q 275 -24 406 -24 q 98 55 160 -24 q 36 269 36 133 q 79 499 36 386 q 217 686 122 611 q 458 761 313 761 m 453 606 q 342 554 386 606 q 279 426 299 503 q 260 271 260 350 q 281 167 260 197 q 343 138 303 138 q 483 240 417 138 l 535 592 q 453 606 494 606 z "},"ậ":{"ha":794,"x_min":36,"x_max":763,"o":"m 458 761 q 760 683 618 761 l 692 211 q 689 179 689 186 q 697 144 689 157 q 728 122 706 131 l 665 -19 q 556 16 601 -14 q 494 103 510 46 q 275 -24 406 -24 q 98 55 160 -24 q 36 269 36 133 q 79 499 36 386 q 217 686 122 611 q 458 761 313 761 m 453 606 q 342 554 386 606 q 279 426 299 503 q 260 271 260 350 q 281 167 260 197 q 343 138 303 138 q 483 240 417 138 l 535 592 q 453 606 494 606 m 315 861 l 246 951 l 464 1142 l 596 1142 l 763 951 l 675 861 l 513 989 l 315 861 m 368 -83 q 451 -115 419 -83 q 483 -194 483 -146 q 442 -293 483 -254 q 340 -332 401 -332 q 257 -301 289 -332 q 225 -222 225 -271 q 266 -123 225 -162 q 368 -83 307 -83 z "},"ầ":{"ha":794,"x_min":36,"x_max":760,"o":"m 236 1325 l 383 1085 l 297 1017 l 107 1218 l 236 1325 m 307 813 l 236 903 l 454 1082 l 586 1082 l 754 903 l 669 813 l 503 929 l 307 813 m 458 761 q 760 683 618 761 l 692 211 q 689 179 689 186 q 697 144 689 157 q 728 122 706 131 l 665 -19 q 556 16 601 -14 q 494 103 510 46 q 275 -24 406 -24 q 98 55 160 -24 q 36 269 36 133 q 79 499 36 386 q 217 686 122 611 q 458 761 313 761 m 453 606 q 342 554 386 606 q 279 426 299 503 q 260 271 260 350 q 281 167 260 197 q 343 138 303 138 q 483 240 417 138 l 535 592 q 453 606 494 606 z "},"ẩ":{"ha":794,"x_min":36,"x_max":931,"o":"m 458 761 q 760 683 618 761 l 692 211 q 689 179 689 186 q 697 144 689 157 q 728 122 706 131 l 665 -19 q 556 16 601 -14 q 494 103 510 46 q 275 -24 406 -24 q 98 55 160 -24 q 36 269 36 133 q 79 499 36 386 q 217 686 122 611 q 458 761 313 761 m 453 606 q 342 554 386 606 q 279 426 299 503 q 260 271 260 350 q 281 167 260 197 q 343 138 303 138 q 483 240 417 138 l 535 592 q 453 606 494 606 m 299 813 l 228 903 l 446 1082 l 578 1082 l 746 903 l 661 813 l 494 929 l 299 813 m 674 1183 q 755 1200 728 1186 q 782 1244 782 1214 q 733 1279 782 1279 q 650 1260 693 1279 l 624 1354 q 769 1389 690 1389 q 889 1351 847 1389 q 931 1256 931 1314 q 796 1118 931 1143 l 786 1046 l 658 1046 l 674 1183 z "},"ẫ":{"ha":794,"x_min":36,"x_max":803,"o":"m 613 1114 q 565 1123 586 1114 q 518 1149 543 1132 q 489 1165 503 1158 q 463 1172 475 1172 q 421 1158 439 1172 q 379 1113 403 1143 l 281 1167 q 367 1276 317 1233 q 472 1318 417 1318 q 524 1308 501 1318 q 569 1282 546 1299 q 583 1274 572 1281 q 603 1263 594 1267 q 621 1260 613 1260 q 661 1274 643 1260 q 703 1318 679 1288 l 803 1264 q 717 1155 767 1196 q 613 1114 667 1114 m 303 807 l 232 897 l 450 1076 l 582 1076 l 750 897 l 665 807 l 499 924 l 303 807 m 458 761 q 760 683 618 761 l 692 211 q 689 179 689 186 q 697 144 689 157 q 728 122 706 131 l 665 -19 q 556 16 601 -14 q 494 103 510 46 q 275 -24 406 -24 q 98 55 160 -24 q 36 269 36 133 q 79 499 36 386 q 217 686 122 611 q 458 761 313 761 m 453 606 q 342 554 386 606 q 279 426 299 503 q 260 271 260 350 q 281 167 260 197 q 343 138 303 138 q 483 240 417 138 l 535 592 q 453 606 494 606 z "},"ȁ":{"ha":794,"x_min":36,"x_max":760,"o":"m 458 761 q 760 683 618 761 l 692 211 q 689 179 689 186 q 697 144 689 157 q 728 122 706 131 l 665 -19 q 556 16 601 -14 q 494 103 510 46 q 275 -24 406 -24 q 98 55 160 -24 q 36 269 36 133 q 79 499 36 386 q 217 686 122 611 q 458 761 313 761 m 453 606 q 342 554 386 606 q 279 426 299 503 q 260 271 260 350 q 281 167 260 197 q 343 138 303 138 q 483 240 417 138 l 535 592 q 453 606 494 606 m 364 1194 l 460 921 l 340 868 l 210 1121 l 364 1194 m 603 1194 l 686 921 l 568 875 l 449 1125 l 603 1194 z "},"ä":{"ha":794,"x_min":36,"x_max":786,"o":"m 458 761 q 760 683 618 761 l 692 211 q 689 179 689 186 q 697 144 689 157 q 728 122 706 131 l 665 -19 q 556 16 601 -14 q 494 103 510 46 q 275 -24 406 -24 q 98 55 160 -24 q 36 269 36 133 q 79 499 36 386 q 217 686 122 611 q 458 761 313 761 m 453 606 q 342 554 386 606 q 279 426 299 503 q 260 271 260 350 q 281 167 260 197 q 343 138 303 138 q 483 240 417 138 l 535 592 q 453 606 494 606 m 344 892 q 271 919 299 892 q 243 988 243 946 q 279 1075 243 1040 q 368 1110 315 1110 q 442 1082 414 1110 q 469 1013 469 1054 q 433 926 469 961 q 344 892 397 892 m 660 892 q 587 919 614 892 q 560 988 560 946 q 596 1075 560 1040 q 685 1110 632 1110 q 758 1082 731 1110 q 786 1013 786 1054 q 749 926 786 961 q 660 892 713 892 z "},"ǟ":{"ha":794,"x_min":36,"x_max":781,"o":"m 458 761 q 760 683 618 761 l 692 211 q 689 179 689 186 q 697 144 689 157 q 728 122 706 131 l 665 -19 q 556 16 601 -14 q 494 103 510 46 q 275 -24 406 -24 q 98 55 160 -24 q 36 269 36 133 q 79 499 36 386 q 217 686 122 611 q 458 761 313 761 m 453 606 q 342 554 386 606 q 279 426 299 503 q 260 271 260 350 q 281 167 260 197 q 343 138 303 138 q 483 240 417 138 l 535 592 q 453 606 494 606 m 339 838 q 265 865 293 838 q 238 933 238 892 q 274 1021 238 986 q 363 1056 310 1056 q 436 1028 408 1056 q 464 958 464 1000 q 428 872 464 907 q 339 838 392 838 m 654 838 q 581 865 608 838 q 554 933 554 892 q 590 1021 554 986 q 679 1056 626 1056 q 753 1028 725 1056 q 781 958 781 1000 q 744 872 781 907 q 654 838 707 838 m 736 1113 l 318 1113 l 339 1265 l 757 1265 l 736 1113 z "},"ȧ":{"ha":794,"x_min":36,"x_max":760,"o":"m 458 761 q 760 683 618 761 l 692 211 q 689 179 689 186 q 697 144 689 157 q 728 122 706 131 l 665 -19 q 556 16 601 -14 q 494 103 510 46 q 275 -24 406 -24 q 98 55 160 -24 q 36 269 36 133 q 79 499 36 386 q 217 686 122 611 q 458 761 313 761 m 453 606 q 342 554 386 606 q 279 426 299 503 q 260 271 260 350 q 281 167 260 197 q 343 138 303 138 q 483 240 417 138 l 535 592 q 453 606 494 606 m 501 876 q 418 908 450 876 q 386 988 386 939 q 427 1086 386 1047 q 529 1125 468 1125 q 613 1094 581 1125 q 644 1015 644 1064 q 603 916 644 956 q 501 876 563 876 z "},"ạ":{"ha":794,"x_min":36,"x_max":760,"o":"m 458 761 q 760 683 618 761 l 692 211 q 689 179 689 186 q 697 144 689 157 q 728 122 706 131 l 665 -19 q 556 16 601 -14 q 494 103 510 46 q 275 -24 406 -24 q 98 55 160 -24 q 36 269 36 133 q 79 499 36 386 q 217 686 122 611 q 458 761 313 761 m 453 606 q 342 554 386 606 q 279 426 299 503 q 260 271 260 350 q 281 167 260 197 q 343 138 303 138 q 483 240 417 138 l 535 592 q 453 606 494 606 m 368 -83 q 451 -115 419 -83 q 483 -194 483 -146 q 442 -293 483 -254 q 340 -332 401 -332 q 257 -301 289 -332 q 225 -222 225 -271 q 266 -123 225 -162 q 368 -83 307 -83 z "},"ǡ":{"ha":794,"x_min":36,"x_max":760,"o":"m 458 761 q 760 683 618 761 l 692 211 q 689 179 689 186 q 697 144 689 157 q 728 122 706 131 l 665 -19 q 556 16 601 -14 q 494 103 510 46 q 275 -24 406 -24 q 98 55 160 -24 q 36 269 36 133 q 79 499 36 386 q 217 686 122 611 q 458 761 313 761 m 453 606 q 342 554 386 606 q 279 426 299 503 q 260 271 260 350 q 281 167 260 197 q 343 138 303 138 q 483 240 417 138 l 535 592 q 453 606 494 606 m 490 824 q 407 855 439 824 q 375 935 375 886 q 416 1033 375 994 q 518 1072 457 1072 q 601 1042 569 1072 q 633 963 633 1011 q 592 863 633 903 q 490 824 551 824 m 736 1115 l 318 1115 l 339 1268 l 757 1268 l 736 1115 z "},"à":{"ha":794,"x_min":36,"x_max":760,"o":"m 458 761 q 760 683 618 761 l 692 211 q 689 179 689 186 q 697 144 689 157 q 728 122 706 131 l 665 -19 q 556 16 601 -14 q 494 103 510 46 q 275 -24 406 -24 q 98 55 160 -24 q 36 269 36 133 q 79 499 36 386 q 217 686 122 611 q 458 761 313 761 m 453 606 q 342 554 386 606 q 279 426 299 503 q 260 271 260 350 q 281 167 260 197 q 343 138 303 138 q 483 240 417 138 l 535 592 q 453 606 494 606 m 435 1160 l 714 974 l 653 867 l 342 996 l 435 1160 z "},"ả":{"ha":794,"x_min":36,"x_max":760,"o":"m 458 761 q 760 683 618 761 l 692 211 q 689 179 689 186 q 697 144 689 157 q 728 122 706 131 l 665 -19 q 556 16 601 -14 q 494 103 510 46 q 275 -24 406 -24 q 98 55 160 -24 q 36 269 36 133 q 79 499 36 386 q 217 686 122 611 q 458 761 313 761 m 453 606 q 342 554 386 606 q 279 426 299 503 q 260 271 260 350 q 281 167 260 197 q 343 138 303 138 q 483 240 417 138 l 535 592 q 453 606 494 606 m 444 978 q 526 994 499 981 q 553 1039 553 1008 q 504 1074 553 1074 q 421 1054 464 1074 l 394 1149 q 540 1183 461 1183 q 660 1146 618 1183 q 701 1050 701 1108 q 567 913 701 938 l 557 840 l 429 840 l 444 978 z "},"ȃ":{"ha":794,"x_min":36,"x_max":760,"o":"m 458 761 q 760 683 618 761 l 692 211 q 689 179 689 186 q 697 144 689 157 q 728 122 706 131 l 665 -19 q 556 16 601 -14 q 494 103 510 46 q 275 -24 406 -24 q 98 55 160 -24 q 36 269 36 133 q 79 499 36 386 q 217 686 122 611 q 458 761 313 761 m 453 606 q 342 554 386 606 q 279 426 299 503 q 260 271 260 350 q 281 167 260 197 q 343 138 303 138 q 483 240 417 138 l 535 592 q 453 606 494 606 m 257 860 q 351 1030 279 964 q 526 1096 422 1096 q 686 1027 632 1096 q 735 854 740 958 l 611 838 q 511 943 600 943 q 375 833 418 943 l 257 860 z "},"ɑ":{"ha":794,"x_min":36,"x_max":768,"o":"m 692 211 q 689 179 689 186 q 697 144 689 157 q 728 122 706 131 l 665 -19 q 556 16 601 -14 q 494 103 510 46 q 276 -24 408 -24 q 97 55 158 -24 q 36 271 36 133 q 82 506 36 392 q 213 690 128 619 q 410 761 299 761 q 579 663 531 761 l 614 738 l 768 738 l 692 211 m 526 529 q 425 606 496 606 q 302 506 344 606 q 260 271 260 407 q 282 167 260 197 q 344 138 304 138 q 483 240 417 138 l 526 529 z "},"ɒ":{"ha":794,"x_min":26,"x_max":758,"o":"m 518 761 q 697 683 636 761 q 758 467 758 604 q 713 232 758 346 q 581 47 667 118 q 385 -24 496 -24 q 215 75 264 -24 l 181 0 l 26 0 l 103 526 q 106 558 106 551 q 97 594 106 581 q 67 615 89 607 l 129 757 q 239 722 193 751 q 300 635 285 692 q 518 761 386 761 m 369 132 q 492 231 450 132 q 535 467 535 331 q 513 570 535 540 q 450 600 490 600 q 311 497 378 600 l 268 208 q 369 132 299 132 z "},"ā":{"ha":794,"x_min":36,"x_max":760,"o":"m 458 761 q 760 683 618 761 l 692 211 q 689 179 689 186 q 697 144 689 157 q 728 122 706 131 l 665 -19 q 556 16 601 -14 q 494 103 510 46 q 275 -24 406 -24 q 98 55 160 -24 q 36 269 36 133 q 79 499 36 386 q 217 686 122 611 q 458 761 313 761 m 453 606 q 342 554 386 606 q 279 426 299 503 q 260 271 260 350 q 281 167 260 197 q 343 138 303 138 q 483 240 417 138 l 535 592 q 453 606 494 606 m 711 910 l 293 910 l 314 1063 l 732 1063 l 711 910 z "},"ą":{"ha":794,"x_min":36,"x_max":760,"o":"m 692 211 q 689 179 689 186 q 697 144 689 157 q 728 122 706 131 l 665 -19 q 479 -178 479 -86 q 540 -224 479 -224 q 628 -212 576 -224 l 597 -350 q 501 -360 557 -360 q 369 -321 419 -360 q 318 -215 318 -282 q 546 24 318 -61 q 494 103 508 56 q 275 -24 406 -24 q 98 55 160 -24 q 36 269 36 133 q 79 499 36 386 q 217 686 122 611 q 458 761 313 761 q 760 683 618 761 l 692 211 m 535 592 q 453 606 494 606 q 342 554 386 606 q 279 426 299 503 q 260 271 260 350 q 281 167 260 197 q 343 138 303 138 q 483 240 417 138 l 535 592 z "},"å":{"ha":794,"x_min":36,"x_max":760,"o":"m 458 761 q 760 683 618 761 l 692 211 q 689 179 689 186 q 697 144 689 157 q 728 122 706 131 l 665 -19 q 556 16 601 -14 q 494 103 510 46 q 275 -24 406 -24 q 98 55 160 -24 q 36 269 36 133 q 79 499 36 386 q 217 686 122 611 q 458 761 313 761 m 453 606 q 342 554 386 606 q 279 426 299 503 q 260 271 260 350 q 281 167 260 197 q 343 138 303 138 q 483 240 417 138 l 535 592 q 453 606 494 606 m 539 1204 q 663 1158 617 1204 q 708 1040 708 1113 q 681 942 708 988 q 606 868 654 896 q 494 840 557 840 q 372 886 417 840 q 326 1004 326 932 q 353 1102 326 1056 q 429 1176 381 1149 q 539 1204 478 1204 m 529 1093 q 472 1068 493 1093 q 451 1010 451 1043 q 465 967 451 982 q 504 953 479 953 q 561 977 540 953 q 582 1036 582 1001 q 568 1078 582 1064 q 529 1093 554 1093 z "},"ǻ":{"ha":794,"x_min":36,"x_max":760,"o":"m 458 761 q 760 683 618 761 l 692 211 q 689 179 689 186 q 697 144 689 157 q 728 122 706 131 l 665 -19 q 556 16 601 -14 q 494 103 510 46 q 275 -24 406 -24 q 98 55 160 -24 q 36 269 36 133 q 79 499 36 386 q 217 686 122 611 q 458 761 313 761 m 453 606 q 342 554 386 606 q 279 426 299 503 q 260 271 260 350 q 281 167 260 197 q 343 138 303 138 q 483 240 417 138 l 535 592 q 453 606 494 606 m 532 1165 q 656 1119 610 1165 q 701 1001 701 1074 q 674 903 701 949 q 599 829 647 857 q 488 801 550 801 q 365 847 410 801 q 319 965 319 893 q 347 1063 319 1017 q 422 1138 374 1110 q 532 1165 471 1165 m 522 1054 q 465 1029 486 1054 q 444 971 444 1004 q 458 928 444 943 q 497 914 472 914 q 554 938 533 914 q 575 997 575 963 q 561 1040 575 1025 q 522 1054 547 1054 m 661 1447 l 729 1282 l 389 1165 l 342 1274 l 661 1447 z "},"ⱥ":{"ha":794,"x_min":36,"x_max":760,"o":"m 692 211 q 689 179 689 186 q 697 144 689 157 q 728 122 706 131 l 665 -19 q 556 16 601 -14 q 494 103 510 46 q 276 -24 408 -24 l 269 -24 l 238 -103 l 163 -85 l 193 -11 q 76 88 117 14 q 36 269 36 161 q 79 499 36 386 q 217 686 122 611 q 458 761 313 761 q 508 760 492 761 l 539 835 l 611 815 l 583 749 q 760 683 672 731 l 692 211 m 250 271 q 267 171 250 204 l 449 614 q 298 508 346 611 q 250 271 250 404 m 544 600 q 526 606 540 603 l 332 129 l 339 129 q 490 232 422 129 l 544 600 z "},"ã":{"ha":794,"x_min":36,"x_max":779,"o":"m 458 761 q 760 683 618 761 l 692 211 q 689 179 689 186 q 697 144 689 157 q 728 122 706 131 l 665 -19 q 556 16 601 -14 q 494 103 510 46 q 275 -24 406 -24 q 98 55 160 -24 q 36 269 36 133 q 79 499 36 386 q 217 686 122 611 q 458 761 313 761 m 453 606 q 342 554 386 606 q 279 426 299 503 q 260 271 260 350 q 281 167 260 197 q 343 138 303 138 q 483 240 417 138 l 535 592 q 453 606 494 606 m 586 882 q 539 891 558 882 q 489 919 519 900 q 459 938 471 932 q 435 944 447 944 q 392 929 410 944 q 350 881 374 914 l 250 939 q 338 1056 288 1011 q 444 1100 388 1100 q 497 1090 475 1100 q 544 1061 518 1079 q 571 1043 560 1049 q 594 1038 582 1038 q 635 1052 617 1038 q 678 1100 654 1067 l 779 1043 q 690 926 740 969 q 586 882 640 882 z "},"ɐ":{"ha":744,"x_min":58,"x_max":732,"o":"m 276 247 q 274 214 274 222 q 296 153 274 171 q 374 136 318 136 q 568 174 458 136 l 608 31 q 329 -24 471 -24 q 58 186 58 -24 q 63 240 58 211 l 103 526 q 106 557 106 549 q 97 594 106 581 q 67 617 88 608 l 129 758 q 234 728 194 751 q 290 654 274 704 q 519 761 375 761 q 676 706 619 761 q 732 558 732 651 q 629 352 732 422 q 357 282 526 282 l 282 282 l 276 247 m 444 606 q 374 586 407 606 q 317 532 342 567 l 299 403 l 349 403 q 472 436 429 403 q 514 536 514 469 q 496 588 514 569 q 444 606 478 606 z "},"æ":{"ha":1157,"x_min":13,"x_max":1146,"o":"m 400 761 q 538 736 485 761 q 624 663 590 711 q 731 734 665 707 q 874 761 797 761 q 1022 735 960 761 q 1115 663 1083 708 q 1146 560 1146 617 q 1014 354 1146 418 q 671 269 882 290 q 708 167 674 197 q 803 138 743 138 q 894 154 850 138 q 992 206 938 171 l 1069 75 q 776 -24 933 -24 q 614 8 681 -24 q 510 99 547 39 q 384 4 450 32 q 239 -24 318 -24 q 74 31 135 -24 q 13 176 13 86 q 100 369 13 292 q 396 447 188 447 l 478 447 q 492 497 485 478 q 501 521 500 517 q 460 579 496 558 q 369 600 424 600 q 171 564 281 600 l 138 710 q 400 761 275 761 m 853 615 q 738 554 781 615 q 681 403 696 493 q 869 454 810 414 q 928 547 928 494 q 910 596 928 576 q 853 615 893 615 m 400 321 q 282 292 324 321 q 240 204 240 264 q 314 133 240 133 q 389 155 354 133 q 463 219 424 176 q 460 321 457 250 l 400 321 z "},"ǽ":{"ha":1157,"x_min":13,"x_max":1146,"o":"m 400 761 q 538 736 485 761 q 624 663 590 711 q 731 734 665 707 q 874 761 797 761 q 1022 735 960 761 q 1115 663 1083 708 q 1146 560 1146 617 q 1014 354 1146 418 q 671 269 882 290 q 708 167 674 197 q 803 138 743 138 q 894 154 850 138 q 992 206 938 171 l 1069 75 q 776 -24 933 -24 q 614 8 681 -24 q 510 99 547 39 q 384 4 450 32 q 239 -24 318 -24 q 74 31 135 -24 q 13 176 13 86 q 100 369 13 292 q 396 447 188 447 l 478 447 q 492 497 485 478 q 501 521 500 517 q 460 579 496 558 q 369 600 424 600 q 171 564 281 600 l 138 710 q 400 761 275 761 m 853 615 q 738 554 781 615 q 681 403 696 493 q 869 454 810 414 q 928 547 928 494 q 910 596 928 576 q 853 615 893 615 m 400 321 q 282 292 324 321 q 240 204 240 264 q 314 133 240 133 q 389 155 354 133 q 463 219 424 176 q 460 321 457 250 l 400 321 m 799 1160 l 865 996 l 525 864 l 476 976 l 799 1160 z "},"ǣ":{"ha":1157,"x_min":13,"x_max":1146,"o":"m 400 761 q 538 736 485 761 q 624 663 590 711 q 731 734 665 707 q 874 761 797 761 q 1022 735 960 761 q 1115 663 1083 708 q 1146 560 1146 617 q 1014 354 1146 418 q 671 269 882 290 q 708 167 674 197 q 803 138 743 138 q 894 154 850 138 q 992 206 938 171 l 1069 75 q 776 -24 933 -24 q 614 8 681 -24 q 510 99 547 39 q 384 4 450 32 q 239 -24 318 -24 q 74 31 135 -24 q 13 176 13 86 q 100 369 13 292 q 396 447 188 447 l 478 447 q 492 497 485 478 q 501 521 500 517 q 460 579 496 558 q 369 600 424 600 q 171 564 281 600 l 138 710 q 400 761 275 761 m 853 615 q 738 554 781 615 q 681 403 696 493 q 869 454 810 414 q 928 547 928 494 q 910 596 928 576 q 853 615 893 615 m 400 321 q 282 292 324 321 q 240 204 240 264 q 314 133 240 133 q 389 155 354 133 q 463 219 424 176 q 460 321 457 250 l 400 321 m 868 910 l 450 910 l 471 1063 l 889 1063 l 868 910 z "},"b":{"ha":807,"x_min":38,"x_max":771,"o":"m 544 761 q 713 686 654 761 q 771 474 771 611 q 731 240 771 353 q 596 52 692 128 q 340 -24 500 -24 q 189 -8 263 -24 q 38 38 115 7 l 176 1031 l 394 1054 l 342 675 q 436 738 383 715 q 544 761 489 761 m 461 600 q 319 515 386 600 l 269 154 q 363 136 317 136 q 469 188 426 136 q 530 316 511 239 q 549 469 549 393 q 525 571 549 542 q 461 600 501 600 z "},"ḃ":{"ha":807,"x_min":38,"x_max":771,"o":"m 544 761 q 713 686 654 761 q 771 474 771 611 q 731 240 771 353 q 596 52 692 128 q 340 -24 500 -24 q 189 -8 263 -24 q 38 38 115 7 l 176 1031 l 394 1054 l 342 675 q 436 738 383 715 q 544 761 489 761 m 461 600 q 319 515 386 600 l 269 154 q 363 136 317 136 q 469 188 426 136 q 530 316 511 239 q 549 469 549 393 q 525 571 549 542 q 461 600 501 600 m 551 1119 q 468 1151 500 1119 q 436 1231 436 1182 q 477 1329 436 1290 q 579 1368 518 1368 q 663 1338 631 1368 q 694 1258 694 1307 q 653 1159 694 1199 q 551 1119 613 1119 z "},"ḅ":{"ha":807,"x_min":38,"x_max":771,"o":"m 544 761 q 713 686 654 761 q 771 474 771 611 q 731 240 771 353 q 596 52 692 128 q 340 -24 500 -24 q 189 -8 263 -24 q 38 38 115 7 l 176 1031 l 394 1054 l 342 675 q 436 738 383 715 q 544 761 489 761 m 461 600 q 319 515 386 600 l 269 154 q 363 136 317 136 q 469 188 426 136 q 530 316 511 239 q 549 469 549 393 q 525 571 549 542 q 461 600 501 600 m 335 -83 q 418 -115 386 -83 q 450 -194 450 -146 q 409 -293 450 -254 q 307 -332 368 -332 q 224 -301 256 -332 q 192 -222 192 -271 q 233 -123 192 -162 q 335 -83 274 -83 z "},"ꞵ":{"ha":831,"x_min":-11,"x_max":788,"o":"m 139 761 q 254 976 158 899 q 492 1054 350 1054 q 644 1024 579 1054 q 744 940 710 993 q 779 818 779 886 q 726 658 779 732 q 556 560 672 585 q 718 499 649 554 q 788 332 788 443 q 750 170 788 253 q 633 32 713 88 q 436 -24 554 -24 q 247 39 321 -24 l 201 -281 l -11 -310 l 139 761 m 393 144 q 528 204 485 144 q 571 342 571 264 q 418 478 571 478 l 363 478 l 397 626 l 429 626 q 533 683 499 626 q 568 803 568 739 q 544 876 568 851 q 478 900 521 900 q 390 864 424 900 q 347 757 357 828 l 267 182 q 393 144 318 144 z "},"ɓ":{"ha":807,"x_min":38,"x_max":771,"o":"m 543 761 q 713 687 654 761 q 771 474 771 613 q 731 240 771 353 q 596 52 692 128 q 340 -24 500 -24 q 189 -8 263 -24 q 38 38 115 7 l 136 736 l 146 806 q 241 985 161 915 q 453 1054 321 1054 q 558 1041 507 1054 q 649 1006 608 1028 l 572 865 q 464 892 524 892 q 392 868 417 892 q 360 792 368 844 l 351 736 l 343 675 q 437 738 383 715 q 543 761 490 761 m 363 136 q 469 188 426 136 q 530 316 511 239 q 549 469 549 393 q 525 571 549 542 q 460 600 501 600 q 319 515 386 600 l 269 154 q 363 136 317 136 z "},"ʭ":{"ha":507,"x_min":-7,"x_max":519,"o":"m 488 554 l 358 554 l 375 669 l 217 669 l 199 554 l 71 554 l 101 782 l 519 782 l 488 554 m 410 -1 l 281 -1 l 297 114 l 139 114 l 121 -1 l -7 -1 l 24 226 l 442 226 l 410 -1 z "},"ʘ":{"ha":1092,"x_min":56,"x_max":1069,"o":"m 629 986 q 863 935 764 986 q 1016 791 963 885 q 1069 568 1069 697 q 997 266 1069 401 q 794 53 925 131 q 496 -24 664 -24 q 263 27 363 -24 q 109 173 163 78 q 56 397 56 268 q 128 699 56 565 q 332 910 201 833 q 629 986 463 986 m 617 833 q 422 774 501 833 q 305 613 343 714 q 267 388 267 513 q 331 192 267 256 q 510 129 394 129 q 703 189 625 129 q 820 349 782 249 q 858 572 858 449 q 794 769 858 706 q 617 833 731 833 m 556 374 q 482 401 510 374 q 454 471 454 428 q 490 556 454 522 q 581 590 526 590 q 653 563 625 590 q 681 494 681 536 q 644 408 681 443 q 556 374 608 374 z "},"ʬ":{"ha":651,"x_min":47,"x_max":683,"o":"m 683 926 l 547 556 l 406 556 l 394 825 l 304 556 l 163 556 l 125 926 l 232 926 l 247 640 l 344 926 l 475 926 l 488 639 l 581 926 l 683 926 m 606 371 l 469 0 l 328 0 l 317 269 l 226 0 l 85 0 l 47 371 l 154 371 l 169 85 l 267 371 l 397 371 l 410 83 l 503 371 l 606 371 z "},"ƀ":{"ha":822,"x_min":53,"x_max":786,"o":"m 560 761 q 728 686 669 761 q 786 474 786 611 q 747 240 786 353 q 611 52 707 128 q 356 -24 515 -24 q 204 -8 278 -24 q 53 38 131 7 l 164 828 l 78 828 l 96 956 l 181 956 l 192 1031 l 410 1054 l 396 956 l 586 956 l 550 828 l 378 828 l 357 675 q 451 738 399 715 q 560 761 504 761 m 378 136 q 484 188 442 136 q 545 316 526 239 q 564 469 564 393 q 540 571 564 542 q 476 600 517 600 q 335 515 401 600 l 285 154 q 378 136 332 136 z "},"ƃ":{"ha":810,"x_min":38,"x_max":771,"o":"m 546 744 q 713 669 656 744 q 771 456 771 594 q 731 234 771 343 q 595 51 692 125 q 340 -24 499 -24 q 189 -8 263 -24 q 38 38 115 7 l 176 1031 l 694 1031 l 649 874 l 369 874 l 339 658 q 435 722 381 699 q 546 744 490 744 m 363 136 q 468 187 426 136 q 529 310 510 238 q 549 451 549 383 q 525 554 549 525 q 460 583 501 583 q 318 497 383 583 l 269 154 q 363 136 317 136 z "},"c":{"ha":653,"x_min":38,"x_max":686,"o":"m 450 761 q 686 667 594 761 l 579 542 q 451 593 524 593 q 307 499 350 593 q 264 286 264 406 q 294 181 264 213 q 379 150 324 150 q 449 162 417 150 q 525 201 481 174 l 606 61 q 351 -24 490 -24 q 121 62 204 -24 q 38 294 38 147 q 81 508 38 400 q 217 688 124 615 q 450 761 310 761 z "},"ć":{"ha":653,"x_min":38,"x_max":686,"o":"m 450 761 q 686 667 594 761 l 579 542 q 451 593 524 593 q 307 499 350 593 q 264 286 264 406 q 294 181 264 213 q 379 150 324 150 q 449 162 417 150 q 525 201 481 174 l 606 61 q 351 -24 490 -24 q 121 62 204 -24 q 38 294 38 147 q 81 508 38 400 q 217 688 124 615 q 450 761 310 761 m 613 1160 l 679 996 l 339 864 l 290 976 l 613 1160 z "},"č":{"ha":653,"x_min":38,"x_max":746,"o":"m 450 761 q 686 667 594 761 l 579 542 q 451 593 524 593 q 307 499 350 593 q 264 286 264 406 q 294 181 264 213 q 379 150 324 150 q 449 162 417 150 q 525 201 481 174 l 606 61 q 351 -24 490 -24 q 121 62 204 -24 q 38 294 38 147 q 81 508 38 400 q 217 688 124 615 q 450 761 310 761 m 676 1129 l 746 1039 l 528 849 l 396 849 l 229 1039 l 313 1129 l 475 1003 l 676 1129 z "},"ç":{"ha":653,"x_min":38,"x_max":686,"o":"m 606 61 q 385 -22 501 -15 l 378 -67 q 472 -106 440 -74 q 504 -192 504 -139 q 481 -273 504 -233 q 408 -338 458 -312 q 283 -364 358 -364 q 132 -319 192 -364 l 193 -221 q 278 -244 232 -244 q 328 -233 310 -244 q 349 -199 347 -222 q 322 -165 349 -175 q 229 -156 294 -156 l 264 -15 q 97 90 156 8 q 38 294 38 171 q 81 508 38 400 q 217 688 124 615 q 450 761 310 761 q 686 667 594 761 l 579 542 q 451 593 524 593 q 307 499 350 593 q 264 286 264 406 q 294 181 264 213 q 379 150 324 150 q 449 162 417 150 q 525 201 481 174 l 606 61 z "},"ĉ":{"ha":653,"x_min":38,"x_max":733,"o":"m 450 761 q 686 667 594 761 l 579 542 q 451 593 524 593 q 307 499 350 593 q 264 286 264 406 q 294 181 264 213 q 379 150 324 150 q 449 162 417 150 q 525 201 481 174 l 606 61 q 351 -24 490 -24 q 121 62 204 -24 q 38 294 38 147 q 81 508 38 400 q 217 688 124 615 q 450 761 310 761 m 286 861 l 217 951 l 435 1142 l 567 1142 l 733 951 l 646 861 l 483 989 l 286 861 z "},"ɕ":{"ha":690,"x_min":39,"x_max":686,"o":"m 492 354 q 608 315 564 354 q 651 203 651 275 q 571 35 651 94 q 365 -24 490 -24 q 267 -14 311 -24 l 207 -117 l 108 -74 l 168 26 q 72 133 106 65 q 39 296 39 201 q 83 509 39 401 q 219 689 126 617 q 451 761 313 761 q 686 667 594 761 l 581 542 q 453 593 525 593 q 308 500 351 593 q 264 286 264 407 q 275 204 264 235 q 370 319 318 283 q 492 354 422 354 m 406 133 q 476 151 450 133 q 501 203 501 169 q 467 235 501 235 q 413 213 439 235 q 354 139 386 190 q 406 133 376 133 z "},"ċ":{"ha":653,"x_min":38,"x_max":686,"o":"m 450 761 q 686 667 594 761 l 579 542 q 451 593 524 593 q 307 499 350 593 q 264 286 264 406 q 294 181 264 213 q 379 150 324 150 q 449 162 417 150 q 525 201 481 174 l 606 61 q 351 -24 490 -24 q 121 62 204 -24 q 38 294 38 147 q 81 508 38 400 q 217 688 124 615 q 450 761 310 761 m 472 876 q 389 908 421 876 q 357 988 357 939 q 398 1086 357 1047 q 500 1125 439 1125 q 583 1094 551 1125 q 615 1015 615 1064 q 574 916 615 956 q 472 876 533 876 z "},"ƈ":{"ha":654,"x_min":38,"x_max":956,"o":"m 776 1054 q 956 1000 882 1054 l 878 867 q 790 892 835 892 q 704 804 718 892 l 686 667 l 594 557 q 451 593 525 593 q 307 499 350 593 q 264 286 264 406 q 294 181 264 213 q 379 150 324 150 q 449 162 417 150 q 525 201 481 174 l 606 61 q 351 -24 490 -24 q 121 62 204 -24 q 38 294 38 147 q 81 506 38 397 q 212 688 125 615 q 421 761 299 761 q 507 749 460 761 l 517 819 q 598 994 532 933 q 776 1054 664 1054 z "},"ʗ":{"ha":668,"x_min":26,"x_max":703,"o":"m 481 761 q 703 668 617 761 l 600 547 q 479 593 546 593 q 350 510 401 593 q 275 308 299 428 q 251 74 251 189 q 279 -86 251 -39 q 361 -133 307 -133 q 429 -121 397 -133 q 501 -82 461 -108 l 581 -221 q 336 -307 467 -307 q 108 -207 188 -307 q 26 76 28 -107 q 79 410 26 253 q 235 664 132 567 q 481 761 338 761 z "},"ȼ":{"ha":653,"x_min":38,"x_max":686,"o":"m 379 150 q 449 162 417 150 q 525 201 481 174 l 606 61 q 351 -24 490 -24 q 289 -19 318 -24 l 254 -103 l 181 -85 l 215 0 q 83 110 129 33 q 38 294 38 186 q 81 508 38 400 q 217 688 124 615 q 450 761 310 761 q 522 754 485 761 l 556 835 l 629 815 l 594 731 q 686 667 647 707 l 579 542 q 531 575 557 564 l 358 151 q 379 150 365 150 m 264 286 q 290 185 264 218 l 457 593 l 451 593 q 307 499 350 593 q 264 286 264 406 z "},"d":{"ha":814,"x_min":36,"x_max":822,"o":"m 822 1031 l 678 0 l 486 0 l 488 106 q 394 12 449 47 q 268 -24 339 -24 q 95 55 154 -24 q 36 274 36 133 q 74 497 36 383 q 192 685 113 610 q 389 761 271 761 q 558 690 494 761 l 608 1053 l 822 1031 m 436 601 q 333 548 372 601 q 276 419 293 494 q 260 272 260 343 q 281 168 260 199 q 340 138 301 138 q 422 174 383 138 q 500 274 460 210 l 539 549 q 493 588 518 575 q 436 601 468 601 z "},"ð":{"ha":797,"x_min":33,"x_max":753,"o":"m 564 928 q 708 749 663 850 q 753 521 753 649 q 705 242 753 365 q 563 47 657 118 q 339 -24 469 -24 q 181 11 250 -24 q 73 112 113 46 q 33 269 33 178 q 72 456 33 364 q 185 606 110 547 q 367 665 261 665 q 467 649 424 665 q 544 600 510 632 q 508 716 533 667 q 433 811 483 765 l 347 733 l 218 797 l 308 881 q 189 910 257 897 l 249 1053 q 439 999 350 1035 l 556 1108 l 654 1010 l 564 928 m 354 136 q 480 218 442 136 q 533 456 518 300 q 410 513 489 513 q 290 438 326 513 q 253 264 253 363 q 354 136 253 136 z "},"ȸ":{"ha":1183,"x_min":36,"x_max":1147,"o":"m 939 761 q 1093 687 1039 761 q 1147 476 1147 613 q 1106 235 1146 350 q 990 48 1065 119 q 813 -24 914 -24 q 650 90 704 -24 l 625 0 l 458 0 l 460 99 q 367 8 419 39 q 254 -24 315 -24 q 94 54 151 -24 q 36 268 36 132 q 78 507 36 393 q 197 691 119 621 q 374 761 274 761 q 462 738 422 761 q 528 671 501 715 l 578 1031 l 797 1054 l 742 664 q 832 736 782 711 q 939 761 882 761 m 339 138 q 468 244 406 138 l 508 536 q 417 601 472 601 q 328 549 364 601 q 276 422 293 497 q 260 274 260 346 q 281 168 260 199 q 339 138 301 138 m 769 136 q 856 190 821 136 q 907 321 890 243 q 924 469 924 399 q 903 571 924 542 q 847 600 883 600 q 722 519 783 600 l 681 222 q 719 156 699 176 q 769 136 740 136 z "},"ď":{"ha":917,"x_min":36,"x_max":1051,"o":"m 822 1031 l 678 0 l 486 0 l 488 106 q 394 12 449 47 q 268 -24 339 -24 q 95 55 154 -24 q 36 274 36 133 q 74 497 36 383 q 192 685 113 610 q 389 761 271 761 q 558 690 494 761 l 608 1053 l 822 1031 m 436 601 q 333 548 372 601 q 276 419 293 494 q 260 272 260 343 q 281 168 260 199 q 340 138 301 138 q 422 174 383 138 q 500 274 460 210 l 539 549 q 493 588 518 575 q 436 601 468 601 m 892 1050 l 1051 1031 l 946 732 l 835 743 l 892 1050 z "},"ḓ":{"ha":814,"x_min":36,"x_max":822,"o":"m 822 1031 l 678 0 l 486 0 l 488 106 q 394 12 449 47 q 268 -24 339 -24 q 95 55 154 -24 q 36 274 36 133 q 74 497 36 383 q 192 685 113 610 q 389 761 271 761 q 558 690 494 761 l 608 1053 l 822 1031 m 436 601 q 333 548 372 601 q 276 419 293 494 q 260 272 260 343 q 281 168 260 199 q 340 138 301 138 q 422 174 383 138 q 500 274 460 210 l 539 549 q 493 588 518 575 q 436 601 468 601 m 128 -368 l 58 -278 l 278 -87 l 408 -87 l 576 -278 l 488 -368 l 325 -240 l 128 -368 z "},"đ":{"ha":828,"x_min":36,"x_max":896,"o":"m 878 828 l 794 828 l 678 0 l 486 0 l 488 106 q 394 12 449 47 q 268 -24 339 -24 q 95 55 154 -24 q 36 274 36 133 q 74 497 36 383 q 192 685 113 610 q 389 761 271 761 q 558 690 494 761 l 578 828 l 400 828 l 400 956 l 594 956 l 608 1053 l 822 1031 l 811 956 l 896 956 l 878 828 m 539 549 q 493 588 518 575 q 436 601 468 601 q 333 548 372 601 q 276 419 293 494 q 260 272 260 343 q 281 168 260 199 q 340 138 301 138 q 422 174 383 138 q 500 274 460 210 l 539 549 z "},"ȡ":{"ha":1082,"x_min":36,"x_max":1067,"o":"m 913 340 q 1024 302 981 340 q 1067 200 1067 264 q 985 36 1067 96 q 779 -24 903 -24 q 701 -17 740 -24 l 644 -117 l 546 -74 l 603 18 q 507 126 536 57 q 268 -24 404 -24 q 94 54 153 -24 q 36 274 36 132 q 73 498 36 386 q 191 685 110 610 q 396 761 272 761 q 487 742 444 761 q 558 690 529 722 l 608 1053 l 822 1031 l 711 243 q 708 197 708 225 l 710 199 q 799 306 751 271 q 913 340 846 340 m 538 547 q 493 588 517 575 q 436 601 469 601 q 333 548 372 601 q 276 419 293 494 q 260 272 260 343 q 281 168 260 199 q 342 138 303 138 q 422 174 383 138 q 499 274 460 211 l 538 547 m 821 133 q 891 150 864 133 q 918 194 918 167 q 910 216 918 208 q 886 224 901 224 q 842 204 863 224 q 790 135 821 185 q 821 133 799 133 z "},"ḋ":{"ha":814,"x_min":36,"x_max":822,"o":"m 822 1031 l 678 0 l 486 0 l 488 106 q 394 12 449 47 q 268 -24 339 -24 q 95 55 154 -24 q 36 274 36 133 q 74 497 36 383 q 192 685 113 610 q 389 761 271 761 q 558 690 494 761 l 608 1053 l 822 1031 m 436 601 q 333 548 372 601 q 276 419 293 494 q 260 272 260 343 q 281 168 260 199 q 340 138 301 138 q 422 174 383 138 q 500 274 460 210 l 539 549 q 493 588 518 575 q 436 601 468 601 m 492 1119 q 408 1151 440 1119 q 376 1231 376 1182 q 417 1329 376 1290 q 519 1368 458 1368 q 603 1338 571 1368 q 635 1258 635 1307 q 594 1159 635 1199 q 492 1119 553 1119 z "},"ḍ":{"ha":814,"x_min":36,"x_max":822,"o":"m 822 1031 l 678 0 l 486 0 l 488 106 q 394 12 449 47 q 268 -24 339 -24 q 95 55 154 -24 q 36 274 36 133 q 74 497 36 383 q 192 685 113 610 q 389 761 271 761 q 558 690 494 761 l 608 1053 l 822 1031 m 436 601 q 333 548 372 601 q 276 419 293 494 q 260 272 260 343 q 281 168 260 199 q 340 138 301 138 q 422 174 383 138 q 500 274 460 210 l 539 549 q 493 588 518 575 q 436 601 468 601 m 343 -83 q 426 -115 394 -83 q 458 -194 458 -146 q 417 -293 458 -254 q 315 -332 376 -332 q 232 -301 264 -332 q 200 -222 200 -271 q 241 -123 200 -162 q 343 -83 282 -83 z "},"ƍ":{"ha":792,"x_min":35,"x_max":756,"o":"m 300 -310 q 35 -207 133 -310 l 143 -101 q 215 -146 179 -132 q 296 -160 250 -160 q 374 -138 347 -160 q 400 -82 400 -117 q 376 -33 400 -53 q 281 19 353 -12 q 99 143 157 72 q 42 324 42 214 q 83 519 42 418 q 214 690 124 619 q 444 761 304 761 q 610 722 540 761 q 718 615 681 682 q 756 464 756 547 q 697 242 756 336 q 496 92 638 147 q 582 7 557 50 q 607 -85 607 -36 q 572 -192 607 -140 q 468 -277 538 -244 q 300 -310 399 -310 m 388 149 q 503 290 472 211 q 533 468 533 368 q 507 565 533 531 q 431 600 481 600 q 303 511 343 600 q 263 315 263 422 q 290 222 263 258 q 388 149 318 186 z "},"ʤ":{"ha":1386,"x_min":36,"x_max":1369,"o":"m 1350 588 l 1060 294 q 1250 225 1183 286 q 1317 57 1317 164 q 1263 -135 1317 -51 q 1116 -263 1210 -218 q 904 -308 1022 -308 q 600 -164 703 -308 l 726 -54 q 812 -121 771 -101 q 908 -140 853 -140 q 1044 -87 993 -140 q 1094 56 1094 -35 q 1058 142 1094 117 q 942 167 1021 167 l 813 167 l 814 168 l 831 294 l 1101 574 l 758 574 l 678 0 l 486 0 l 488 106 q 394 12 449 47 q 268 -24 339 -24 q 95 55 154 -24 q 36 274 36 133 q 74 497 36 383 q 192 685 113 610 q 389 761 271 761 q 558 690 494 761 l 608 1053 l 822 1031 l 781 738 l 1369 738 l 1350 588 m 539 549 q 493 588 518 575 q 436 601 468 601 q 333 548 372 601 q 276 419 293 494 q 260 272 260 343 q 281 168 260 199 q 340 138 301 138 q 422 174 383 138 q 500 274 460 210 l 539 549 z "},"ɗ":{"ha":813,"x_min":36,"x_max":1043,"o":"m 863 1054 q 1043 1000 964 1054 l 964 867 q 876 892 921 892 q 790 804 803 892 l 781 738 l 678 0 l 486 0 l 488 106 q 394 12 449 47 q 268 -24 339 -24 q 94 54 153 -24 q 36 274 36 132 q 73 498 36 386 q 191 685 110 610 q 396 761 272 761 q 487 742 444 761 q 558 690 529 722 l 565 738 l 574 803 q 665 986 590 918 q 863 1054 740 1054 m 538 547 q 493 588 517 575 q 436 601 469 601 q 333 548 372 601 q 276 419 293 494 q 260 272 260 343 q 281 168 260 199 q 342 138 303 138 q 422 174 383 138 q 500 274 460 210 l 538 547 z "},"ḏ":{"ha":814,"x_min":36,"x_max":822,"o":"m 822 1031 l 678 0 l 486 0 l 488 106 q 394 12 449 47 q 268 -24 339 -24 q 95 55 154 -24 q 36 274 36 133 q 74 497 36 383 q 192 685 113 610 q 389 761 271 761 q 558 690 494 761 l 608 1053 l 822 1031 m 436 601 q 333 548 372 601 q 276 419 293 494 q 260 272 260 343 q 281 168 260 199 q 340 138 301 138 q 422 174 383 138 q 500 274 460 210 l 539 549 q 493 588 518 575 q 436 601 468 601 m 144 -112 l 563 -112 l 542 -265 l 124 -265 l 144 -112 z "},"ɖ":{"ha":825,"x_min":36,"x_max":893,"o":"m 893 -251 q 692 -308 804 -308 q 517 -253 581 -308 q 454 -90 454 -197 q 457 -42 454 -58 l 463 0 l 476 93 q 392 10 446 44 q 268 -24 338 -24 q 94 54 153 -24 q 36 274 36 132 q 73 498 36 386 q 191 685 110 610 q 396 761 272 761 q 487 742 444 761 q 558 690 529 722 l 608 1053 l 822 1031 l 678 0 l 669 -65 q 668 -86 668 -74 q 732 -149 668 -149 q 783 -142 761 -149 q 835 -121 804 -136 l 893 -251 m 342 138 q 422 174 383 138 q 500 274 460 210 l 538 547 q 493 588 517 575 q 436 601 469 601 q 333 548 372 601 q 276 419 293 494 q 260 272 260 343 q 281 168 260 199 q 342 138 303 138 z "},"ƌ":{"ha":814,"x_min":36,"x_max":822,"o":"m 678 0 l 486 0 l 488 106 q 394 12 449 47 q 268 -24 339 -24 q 94 54 153 -24 q 36 274 36 132 q 73 492 36 383 q 190 672 110 600 q 389 744 269 744 q 484 725 442 744 q 556 672 526 706 l 583 874 l 293 874 l 315 1031 l 822 1031 l 678 0 m 536 529 q 491 572 515 558 q 433 585 467 585 q 333 535 372 585 q 277 414 294 486 q 260 272 260 342 q 281 168 260 199 q 342 138 303 138 q 422 174 383 138 q 500 274 460 210 l 536 529 z "},"ǳ":{"ha":1438,"x_min":36,"x_max":1460,"o":"m 822 1031 l 678 0 l 486 0 l 488 106 q 394 12 449 47 q 268 -24 339 -24 q 95 55 154 -24 q 36 274 36 133 q 74 497 36 383 q 192 685 113 610 q 389 761 271 761 q 558 690 494 761 l 608 1053 l 822 1031 m 436 601 q 333 548 372 601 q 276 419 293 494 q 260 272 260 343 q 281 168 260 199 q 340 138 301 138 q 422 174 383 138 q 500 274 460 210 l 539 549 q 493 588 518 575 q 436 601 468 601 m 1460 738 l 1439 583 l 1069 167 l 1388 167 l 1344 0 l 778 0 l 799 156 l 1169 572 l 886 572 l 910 738 l 1460 738 z "},"ʣ":{"ha":1335,"x_min":36,"x_max":1357,"o":"m 1336 583 l 953 167 l 1285 167 l 1242 0 l 486 0 l 488 106 q 394 12 449 47 q 268 -24 339 -24 q 95 55 154 -24 q 36 274 36 133 q 74 497 36 383 q 192 685 113 610 q 389 761 271 761 q 558 690 494 761 l 608 1053 l 822 1031 l 781 738 l 1357 738 l 1336 583 m 539 549 q 493 588 518 575 q 436 601 468 601 q 333 548 372 601 q 276 419 293 494 q 260 272 260 343 q 281 168 260 199 q 340 138 301 138 q 422 174 383 138 q 500 274 460 210 l 539 549 m 700 156 l 1075 572 l 758 572 l 700 156 z "},"ǆ":{"ha":1438,"x_min":36,"x_max":1482,"o":"m 822 1031 l 678 0 l 486 0 l 488 106 q 394 12 449 47 q 268 -24 339 -24 q 95 55 154 -24 q 36 274 36 133 q 74 497 36 383 q 192 685 113 610 q 389 761 271 761 q 558 690 494 761 l 608 1053 l 822 1031 m 436 601 q 333 548 372 601 q 276 419 293 494 q 260 272 260 343 q 281 168 260 199 q 340 138 301 138 q 422 174 383 138 q 500 274 460 210 l 539 549 q 493 588 518 575 q 436 601 468 601 m 1460 738 l 1439 583 l 1069 167 l 1388 167 l 1344 0 l 778 0 l 799 156 l 1169 572 l 886 572 l 910 738 l 1460 738 m 1413 1129 l 1482 1039 l 1264 849 l 1132 849 l 965 1039 l 1049 1129 l 1211 1003 l 1413 1129 z "},"ʥ":{"ha":1450,"x_min":36,"x_max":1458,"o":"m 1300 369 q 1415 331 1371 369 q 1458 226 1458 293 q 1375 54 1458 110 q 1147 0 1292 -1 l 1163 50 l 1144 11 l 1143 7 q 1125 -74 1133 -26 q 1114 -140 1117 -121 q 1108 -181 1111 -165 l 985 -175 q 1017 0 997 -81 l 486 0 l 488 106 q 394 12 449 47 q 268 -24 339 -24 q 95 55 154 -24 q 36 274 36 133 q 74 497 36 383 q 192 685 113 610 q 389 761 271 761 q 558 690 494 761 l 608 1053 l 822 1031 l 781 738 l 1356 738 l 1336 592 l 944 167 l 1063 167 q 1300 369 1140 369 m 539 549 q 493 588 518 575 q 436 601 468 601 q 333 548 372 601 q 276 419 293 494 q 260 272 260 343 q 281 168 260 199 q 340 138 301 138 q 422 174 383 138 q 500 274 460 210 l 539 549 m 758 572 l 700 160 l 1082 572 l 758 572 m 1199 167 q 1283 180 1254 167 q 1311 224 1311 193 q 1303 246 1311 238 q 1278 254 1294 254 q 1189 167 1224 254 l 1199 167 z "},"e":{"ha":740,"x_min":38,"x_max":728,"o":"m 728 560 q 597 354 728 419 q 254 268 465 289 q 386 138 261 138 q 477 154 432 138 q 574 206 522 171 l 651 75 q 358 -24 515 -24 q 119 60 201 -24 q 38 289 38 144 q 80 508 38 400 q 217 689 122 617 q 456 761 311 761 q 656 704 585 761 q 728 560 728 647 m 264 401 q 451 451 393 410 q 510 550 510 492 q 493 596 510 576 q 439 615 476 615 q 324 554 367 615 q 264 401 281 493 z "},"é":{"ha":740,"x_min":38,"x_max":728,"o":"m 728 560 q 597 354 728 419 q 254 268 465 289 q 386 138 261 138 q 477 154 432 138 q 574 206 522 171 l 651 75 q 358 -24 515 -24 q 119 60 201 -24 q 38 289 38 144 q 80 508 38 400 q 217 689 122 617 q 456 761 311 761 q 656 704 585 761 q 728 560 728 647 m 264 401 q 451 451 393 410 q 510 550 510 492 q 493 596 510 576 q 439 615 476 615 q 324 554 367 615 q 264 401 281 493 m 601 1160 l 668 996 l 328 864 l 279 976 l 601 1160 z "},"ĕ":{"ha":740,"x_min":38,"x_max":728,"o":"m 728 560 q 597 354 728 419 q 254 268 465 289 q 386 138 261 138 q 477 154 432 138 q 574 206 522 171 l 651 75 q 358 -24 515 -24 q 119 60 201 -24 q 38 289 38 144 q 80 508 38 400 q 217 689 122 617 q 456 761 311 761 q 656 704 585 761 q 728 560 728 647 m 264 401 q 451 451 393 410 q 510 550 510 492 q 493 596 510 576 q 439 615 476 615 q 324 554 367 615 q 264 401 281 493 m 451 878 q 294 947 347 878 q 246 1119 240 1015 l 367 1138 q 464 1031 375 1031 q 546 1060 511 1031 q 600 1140 581 1089 l 715 1115 q 624 944 693 1011 q 451 878 554 878 z "},"ě":{"ha":740,"x_min":38,"x_max":735,"o":"m 728 560 q 597 354 728 419 q 254 268 465 289 q 386 138 261 138 q 477 154 432 138 q 574 206 522 171 l 651 75 q 358 -24 515 -24 q 119 60 201 -24 q 38 289 38 144 q 80 508 38 400 q 217 689 122 617 q 456 761 311 761 q 656 704 585 761 q 728 560 728 647 m 264 401 q 451 451 393 410 q 510 550 510 492 q 493 596 510 576 q 439 615 476 615 q 324 554 367 615 q 264 401 281 493 m 665 1129 l 735 1039 l 517 849 l 385 849 l 218 1039 l 301 1129 l 464 1003 l 665 1129 z "},"ȩ":{"ha":740,"x_min":38,"x_max":728,"o":"m 728 560 q 597 354 728 419 q 254 268 465 289 q 386 138 261 138 q 477 154 432 138 q 574 206 522 171 l 651 75 q 406 -21 535 -10 l 397 -67 q 492 -106 460 -74 q 524 -192 524 -139 q 501 -273 524 -233 q 428 -338 478 -312 q 303 -364 378 -364 q 151 -319 211 -364 l 213 -221 q 297 -244 251 -244 q 348 -233 329 -244 q 368 -199 367 -222 q 341 -165 368 -175 q 249 -156 314 -156 l 283 -18 q 100 82 163 1 q 38 289 38 163 q 80 508 38 400 q 217 689 122 617 q 456 761 311 761 q 656 704 585 761 q 728 560 728 647 m 264 401 q 451 451 393 410 q 510 550 510 492 q 493 596 510 576 q 439 615 476 615 q 324 554 367 615 q 264 401 281 493 z "},"ê":{"ha":740,"x_min":38,"x_max":728,"o":"m 728 560 q 597 354 728 419 q 254 268 465 289 q 386 138 261 138 q 477 154 432 138 q 574 206 522 171 l 651 75 q 358 -24 515 -24 q 119 60 201 -24 q 38 289 38 144 q 80 508 38 400 q 217 689 122 617 q 456 761 311 761 q 656 704 585 761 q 728 560 728 647 m 264 401 q 451 451 393 410 q 510 550 510 492 q 493 596 510 576 q 439 615 476 615 q 324 554 367 615 q 264 401 281 493 m 275 861 l 206 951 l 424 1142 l 556 1142 l 722 951 l 635 861 l 472 989 l 275 861 z "},"ế":{"ha":740,"x_min":38,"x_max":919,"o":"m 919 1213 l 678 1017 l 603 1092 l 815 1328 l 919 1213 m 461 929 l 265 813 l 194 903 l 413 1082 l 544 1082 l 713 903 l 628 813 l 461 929 m 456 761 q 656 704 585 761 q 728 560 728 647 q 597 354 728 419 q 254 268 465 289 q 386 138 261 138 q 477 154 432 138 q 574 206 522 171 l 651 75 q 358 -24 515 -24 q 119 60 201 -24 q 38 289 38 144 q 80 508 38 400 q 217 689 122 617 q 456 761 311 761 m 264 401 q 451 451 393 410 q 510 550 510 492 q 493 596 510 576 q 439 615 476 615 q 324 554 367 615 q 264 401 281 493 z "},"ệ":{"ha":740,"x_min":38,"x_max":728,"o":"m 728 560 q 597 354 728 419 q 254 268 465 289 q 386 138 261 138 q 477 154 432 138 q 574 206 522 171 l 651 75 q 358 -24 515 -24 q 119 60 201 -24 q 38 289 38 144 q 80 508 38 400 q 217 689 122 617 q 456 761 311 761 q 656 704 585 761 q 728 560 728 647 m 264 401 q 451 451 393 410 q 510 550 510 492 q 493 596 510 576 q 439 615 476 615 q 324 554 367 615 q 264 401 281 493 m 275 861 l 206 951 l 424 1142 l 556 1142 l 722 951 l 635 861 l 472 989 l 275 861 m 333 -83 q 417 -115 385 -83 q 449 -194 449 -146 q 408 -293 449 -254 q 306 -332 367 -332 q 222 -301 254 -332 q 190 -222 190 -271 q 231 -123 190 -162 q 333 -83 272 -83 z "},"ề":{"ha":740,"x_min":38,"x_max":728,"o":"m 343 1085 l 257 1017 l 67 1218 l 196 1325 l 343 1085 m 267 813 l 196 903 l 414 1082 l 546 1082 l 714 903 l 629 813 l 463 929 l 267 813 m 728 560 q 597 354 728 419 q 254 268 465 289 q 386 138 261 138 q 477 154 432 138 q 574 206 522 171 l 651 75 q 358 -24 515 -24 q 119 60 201 -24 q 38 289 38 144 q 80 508 38 400 q 217 689 122 617 q 456 761 311 761 q 656 704 585 761 q 728 560 728 647 m 264 401 q 451 451 393 410 q 510 550 510 492 q 493 596 510 576 q 439 615 476 615 q 324 554 367 615 q 264 401 281 493 z "},"ể":{"ha":740,"x_min":38,"x_max":890,"o":"m 728 560 q 597 354 728 419 q 254 268 465 289 q 386 138 261 138 q 477 154 432 138 q 574 206 522 171 l 651 75 q 358 -24 515 -24 q 119 60 201 -24 q 38 289 38 144 q 80 508 38 400 q 217 689 122 617 q 456 761 311 761 q 656 704 585 761 q 728 560 728 647 m 264 401 q 451 451 393 410 q 510 550 510 492 q 493 596 510 576 q 439 615 476 615 q 324 554 367 615 q 264 401 281 493 m 258 813 l 188 903 l 406 1082 l 538 1082 l 706 903 l 621 813 l 454 929 l 258 813 m 633 1183 q 715 1200 688 1186 q 742 1244 742 1214 q 693 1279 742 1279 q 610 1260 653 1279 l 583 1354 q 729 1389 650 1389 q 849 1351 807 1389 q 890 1256 890 1314 q 756 1118 890 1143 l 746 1046 l 618 1046 l 633 1183 z "},"ễ":{"ha":740,"x_min":38,"x_max":763,"o":"m 422 1172 q 381 1158 399 1172 q 339 1113 363 1143 l 240 1167 q 326 1276 276 1233 q 432 1318 376 1318 q 483 1308 461 1318 q 529 1282 506 1299 q 543 1274 532 1281 q 563 1263 554 1267 q 581 1260 572 1260 q 621 1274 603 1260 q 663 1318 639 1288 l 763 1264 q 676 1155 726 1196 q 572 1114 626 1114 q 524 1123 546 1114 q 478 1149 503 1132 q 449 1165 463 1158 q 422 1172 435 1172 m 458 924 l 263 807 l 192 897 l 410 1076 l 542 1076 l 710 897 l 625 807 l 458 924 m 456 761 q 656 704 585 761 q 728 560 728 647 q 597 354 728 419 q 254 268 465 289 q 386 138 261 138 q 477 154 432 138 q 574 206 522 171 l 651 75 q 358 -24 515 -24 q 119 60 201 -24 q 38 289 38 144 q 80 508 38 400 q 217 689 122 617 q 456 761 311 761 m 264 401 q 451 451 393 410 q 510 550 510 492 q 493 596 510 576 q 439 615 476 615 q 324 554 367 615 q 264 401 281 493 z "},"ȅ":{"ha":740,"x_min":38,"x_max":728,"o":"m 728 560 q 597 354 728 419 q 254 268 465 289 q 386 138 261 138 q 477 154 432 138 q 574 206 522 171 l 651 75 q 358 -24 515 -24 q 119 60 201 -24 q 38 289 38 144 q 80 508 38 400 q 217 689 122 617 q 456 761 311 761 q 656 704 585 761 q 728 560 728 647 m 264 401 q 451 451 393 410 q 510 550 510 492 q 493 596 510 576 q 439 615 476 615 q 324 554 367 615 q 264 401 281 493 m 324 1194 l 419 921 l 300 868 l 169 1121 l 324 1194 m 563 1194 l 646 921 l 528 875 l 408 1125 l 563 1194 z "},"ë":{"ha":740,"x_min":38,"x_max":746,"o":"m 728 560 q 597 354 728 419 q 254 268 465 289 q 386 138 261 138 q 477 154 432 138 q 574 206 522 171 l 651 75 q 358 -24 515 -24 q 119 60 201 -24 q 38 289 38 144 q 80 508 38 400 q 217 689 122 617 q 456 761 311 761 q 656 704 585 761 q 728 560 728 647 m 264 401 q 451 451 393 410 q 510 550 510 492 q 493 596 510 576 q 439 615 476 615 q 324 554 367 615 q 264 401 281 493 m 304 892 q 231 919 258 892 q 203 988 203 946 q 239 1075 203 1040 q 328 1110 275 1110 q 401 1082 374 1110 q 429 1013 429 1054 q 393 926 429 961 q 304 892 357 892 m 619 892 q 547 919 574 892 q 519 988 519 946 q 556 1075 519 1040 q 644 1110 592 1110 q 718 1082 690 1110 q 746 1013 746 1054 q 709 926 746 961 q 619 892 672 892 z "},"ė":{"ha":740,"x_min":38,"x_max":728,"o":"m 728 560 q 597 354 728 419 q 254 268 465 289 q 386 138 261 138 q 477 154 432 138 q 574 206 522 171 l 651 75 q 358 -24 515 -24 q 119 60 201 -24 q 38 289 38 144 q 80 508 38 400 q 217 689 122 617 q 456 761 311 761 q 656 704 585 761 q 728 560 728 647 m 264 401 q 451 451 393 410 q 510 550 510 492 q 493 596 510 576 q 439 615 476 615 q 324 554 367 615 q 264 401 281 493 m 461 876 q 378 908 410 876 q 346 988 346 939 q 387 1086 346 1047 q 489 1125 428 1125 q 572 1094 540 1125 q 604 1015 604 1064 q 563 916 604 956 q 461 876 522 876 z "},"ẹ":{"ha":740,"x_min":38,"x_max":728,"o":"m 728 560 q 597 354 728 419 q 254 268 465 289 q 386 138 261 138 q 477 154 432 138 q 574 206 522 171 l 651 75 q 358 -24 515 -24 q 119 60 201 -24 q 38 289 38 144 q 80 508 38 400 q 217 689 122 617 q 456 761 311 761 q 656 704 585 761 q 728 560 728 647 m 264 401 q 451 451 393 410 q 510 550 510 492 q 493 596 510 576 q 439 615 476 615 q 324 554 367 615 q 264 401 281 493 m 333 -83 q 417 -115 385 -83 q 449 -194 449 -146 q 408 -293 449 -254 q 306 -332 367 -332 q 222 -301 254 -332 q 190 -222 190 -271 q 231 -123 190 -162 q 333 -83 272 -83 z "},"è":{"ha":740,"x_min":38,"x_max":728,"o":"m 728 560 q 597 354 728 419 q 254 268 465 289 q 386 138 261 138 q 477 154 432 138 q 574 206 522 171 l 651 75 q 358 -24 515 -24 q 119 60 201 -24 q 38 289 38 144 q 80 508 38 400 q 217 689 122 617 q 456 761 311 761 q 656 704 585 761 q 728 560 728 647 m 264 401 q 451 451 393 410 q 510 550 510 492 q 493 596 510 576 q 439 615 476 615 q 324 554 367 615 q 264 401 281 493 m 394 1160 l 674 974 l 613 867 l 301 996 l 394 1160 z "},"ẻ":{"ha":740,"x_min":38,"x_max":728,"o":"m 728 560 q 597 354 728 419 q 254 268 465 289 q 386 138 261 138 q 477 154 432 138 q 574 206 522 171 l 651 75 q 358 -24 515 -24 q 119 60 201 -24 q 38 289 38 144 q 80 508 38 400 q 217 689 122 617 q 456 761 311 761 q 656 704 585 761 q 728 560 728 647 m 264 401 q 451 451 393 410 q 510 550 510 492 q 493 596 510 576 q 439 615 476 615 q 324 554 367 615 q 264 401 281 493 m 404 978 q 485 994 458 981 q 513 1039 513 1008 q 464 1074 513 1074 q 381 1054 424 1074 l 354 1149 q 500 1183 421 1183 q 619 1146 578 1183 q 661 1050 661 1108 q 526 913 661 938 l 517 840 l 389 840 l 404 978 z "},"ȇ":{"ha":740,"x_min":38,"x_max":728,"o":"m 728 560 q 597 354 728 419 q 254 268 465 289 q 386 138 261 138 q 477 154 432 138 q 574 206 522 171 l 651 75 q 358 -24 515 -24 q 119 60 201 -24 q 38 289 38 144 q 80 508 38 400 q 217 689 122 617 q 456 761 311 761 q 656 704 585 761 q 728 560 728 647 m 264 401 q 451 451 393 410 q 510 550 510 492 q 493 596 510 576 q 439 615 476 615 q 324 554 367 615 q 264 401 281 493 m 217 860 q 310 1030 239 964 q 486 1096 382 1096 q 646 1027 592 1096 q 694 854 700 958 l 571 838 q 471 943 560 943 q 335 833 378 943 l 217 860 z "},"ē":{"ha":740,"x_min":38,"x_max":728,"o":"m 728 560 q 597 354 728 419 q 254 268 465 289 q 386 138 261 138 q 477 154 432 138 q 574 206 522 171 l 651 75 q 358 -24 515 -24 q 119 60 201 -24 q 38 289 38 144 q 80 508 38 400 q 217 689 122 617 q 456 761 311 761 q 656 704 585 761 q 728 560 728 647 m 264 401 q 451 451 393 410 q 510 550 510 492 q 493 596 510 576 q 439 615 476 615 q 324 554 367 615 q 264 401 281 493 m 671 910 l 253 910 l 274 1063 l 692 1063 l 671 910 z "},"ę":{"ha":740,"x_min":38,"x_max":728,"o":"m 728 560 q 597 354 728 419 q 254 268 465 289 q 386 138 261 138 q 477 154 432 138 q 574 206 522 171 l 651 75 q 485 -7 576 19 q 354 -132 363 -61 q 421 -193 350 -193 q 508 -182 457 -193 l 481 -318 q 383 -329 433 -329 q 245 -289 299 -329 q 192 -181 192 -249 q 300 -21 192 -81 q 104 76 171 -6 q 38 289 38 158 q 80 508 38 400 q 217 689 122 617 q 456 761 311 761 q 656 704 585 761 q 728 560 728 647 m 264 401 q 451 451 393 410 q 510 550 510 492 q 493 596 510 576 q 439 615 476 615 q 324 554 367 615 q 264 401 281 493 z "},"ɛ":{"ha":676,"x_min":21,"x_max":671,"o":"m 317 -24 q 102 34 183 -24 q 21 194 21 92 q 78 331 21 278 q 244 393 136 383 q 100 546 100 428 q 181 701 100 642 q 404 761 261 761 q 671 668 572 761 l 572 563 q 503 598 538 586 q 424 610 468 610 q 342 586 371 610 q 313 524 313 563 q 335 469 313 489 q 403 450 358 450 l 496 450 l 456 308 l 376 308 q 274 282 306 308 q 243 211 243 256 q 272 154 243 175 q 360 133 301 133 q 445 148 403 133 q 543 194 488 163 l 615 69 q 481 1 558 25 q 317 -24 403 -24 z "},"ʚ":{"ha":786,"x_min":21,"x_max":746,"o":"m 321 -24 q 103 34 185 -24 q 21 197 21 92 q 78 331 21 279 q 246 393 136 383 q 141 447 178 410 q 104 540 104 485 q 142 653 104 603 q 253 732 181 703 q 424 761 325 761 q 662 676 578 761 q 746 443 746 590 q 696 200 746 306 q 550 35 646 94 q 321 -24 454 -24 m 347 133 q 488 224 443 133 q 533 440 533 315 q 503 570 533 531 q 415 610 474 610 q 342 587 368 610 q 315 525 315 564 q 338 470 315 490 q 403 450 360 450 l 443 450 l 401 308 l 378 308 q 275 282 307 308 q 243 211 243 256 q 269 153 243 174 q 347 133 296 133 z "},"ɜ":{"ha":678,"x_min":-25,"x_max":626,"o":"m 365 761 q 553 710 479 761 q 626 574 626 660 q 579 457 626 504 q 443 392 532 410 q 571 338 526 382 q 615 224 615 294 q 578 102 615 158 q 463 11 542 46 q 264 -24 383 -24 q -25 68 89 -24 l 79 189 q 167 147 124 160 q 260 133 210 133 q 358 160 325 133 q 392 231 392 188 q 279 308 392 308 l 164 308 l 196 450 l 279 450 q 374 476 340 450 q 407 542 407 501 q 321 610 407 610 q 235 597 274 610 q 151 558 197 585 l 67 676 q 206 740 133 719 q 365 761 278 761 z "},"ɞ":{"ha":783,"x_min":39,"x_max":733,"o":"m 363 -24 q 122 56 204 -24 q 39 286 39 136 q 90 532 39 424 q 235 701 140 640 q 461 761 331 761 q 656 708 579 761 q 733 569 733 656 q 686 456 733 501 q 549 392 639 410 q 676 338 632 382 q 721 224 721 294 q 683 102 721 158 q 565 11 646 46 q 363 -24 485 -24 m 369 133 q 469 161 436 133 q 501 235 501 189 q 473 291 501 274 q 385 308 444 308 l 346 308 l 379 450 l 386 450 q 482 476 449 450 q 515 544 515 503 q 495 593 515 576 q 438 610 475 610 q 331 559 374 610 q 270 433 289 508 q 251 281 251 357 q 279 167 251 200 q 369 133 307 133 z "},"ɝ":{"ha":1047,"x_min":-25,"x_max":1081,"o":"m 1081 476 q 903 426 1003 426 q 760 471 808 426 q 708 592 711 515 l 708 603 l 626 558 q 574 451 621 494 q 443 392 528 408 q 571 338 526 382 q 615 224 615 294 q 578 102 615 158 q 463 11 542 46 q 264 -24 383 -24 q -25 68 89 -24 l 79 189 q 167 147 124 160 q 260 133 210 133 q 358 160 325 133 q 392 231 392 188 q 279 308 392 308 l 164 308 l 196 450 l 279 450 q 374 476 340 450 q 407 542 407 501 q 321 610 407 610 q 235 597 274 610 q 151 558 197 585 l 67 676 q 206 740 133 719 q 365 761 278 761 q 498 739 439 761 q 590 676 557 717 l 717 738 l 897 738 l 886 653 q 885 633 885 646 q 942 579 885 579 q 986 584 968 579 q 1032 601 1004 589 l 1081 476 z "},"ɘ":{"ha":744,"x_min":14,"x_max":704,"o":"m 381 761 q 627 670 550 761 q 703 436 704 579 q 655 199 704 303 q 511 35 606 94 q 289 -24 417 -24 q 14 79 121 -24 l 113 199 q 196 152 156 167 q 288 138 236 138 q 461 268 414 138 q 163 335 269 279 q 57 508 57 390 q 97 637 57 579 q 211 728 138 694 q 381 761 285 761 m 278 515 q 327 435 278 464 q 488 400 376 406 q 489 457 489 418 q 376 615 489 615 q 304 588 331 615 q 278 515 278 561 z "},"ʃ":{"ha":386,"x_min":-247,"x_max":614,"o":"m 433 1054 q 614 1000 535 1054 l 535 867 q 447 892 492 892 q 361 804 374 892 l 351 738 l 249 0 l 242 -47 q 142 -242 221 -175 q -60 -308 63 -308 q -247 -247 -172 -308 l -160 -121 q -113 -142 -132 -136 q -69 -149 -94 -149 q -6 -126 -31 -149 q 24 -61 18 -104 l 33 0 l 136 738 l 144 803 q 236 986 161 918 q 433 1054 311 1054 z "},"ʆ":{"ha":468,"x_min":-179,"x_max":696,"o":"m 515 1054 q 696 1000 617 1054 l 617 867 q 529 892 572 892 q 443 804 456 892 l 433 738 l 332 21 l 328 -8 q 457 -62 394 -28 l 408 -151 q 300 -111 363 -129 q 192 -258 264 -210 q 7 -307 121 -307 q -130 -265 -81 -307 q -179 -149 -179 -222 q -117 -15 -179 -65 q 40 35 -54 35 q 119 31 94 35 l 218 738 l 226 803 q 318 986 243 918 q 515 1054 393 1054 m 3 -193 q 67 -165 43 -193 q 104 -75 92 -137 q 42 -71 79 -71 q -26 -90 -3 -71 q -50 -143 -50 -110 q 3 -193 -50 -193 z "},"ƪ":{"ha":553,"x_min":10,"x_max":628,"o":"m 628 -251 q 426 -308 539 -308 q 252 -253 315 -308 q 189 -90 189 -197 q 192 -42 189 -58 l 197 0 l 282 600 q 190 581 239 581 q 62 636 114 581 q 10 781 10 692 q 47 922 10 860 q 148 1019 83 985 q 293 1054 213 1054 q 464 997 403 1054 q 525 832 525 939 q 521 772 525 804 l 413 0 l 404 -65 q 403 -86 403 -74 q 467 -149 403 -149 q 517 -142 496 -149 q 569 -121 539 -136 l 628 -251 m 251 732 q 301 740 276 732 l 313 821 q 315 853 315 846 q 306 890 315 879 q 274 901 296 901 q 215 868 235 901 q 197 789 196 835 q 251 732 197 732 z "},"ʅ":{"ha":689,"x_min":33,"x_max":656,"o":"m 656 33 q 454 -24 567 -24 q 280 32 343 -24 q 217 194 217 88 q 219 243 217 226 l 225 285 l 249 454 l 257 519 q 258 540 258 528 q 194 603 258 603 q 144 597 165 603 q 92 575 122 590 l 33 706 q 235 763 122 763 q 409 707 346 763 q 472 544 472 651 q 469 496 472 513 l 464 454 l 440 285 l 432 219 q 431 199 431 211 q 494 136 431 136 q 545 142 524 136 q 597 164 567 149 l 656 33 z "},"ɇ":{"ha":740,"x_min":38,"x_max":728,"o":"m 728 560 q 628 374 728 439 q 363 282 528 310 l 310 151 q 386 138 339 138 q 477 154 432 138 q 574 206 522 171 l 651 75 q 358 -24 515 -24 q 243 -10 301 -24 l 206 -103 l 132 -85 l 174 18 q 72 126 107 57 q 38 289 38 196 q 80 508 38 400 q 217 689 122 617 q 456 761 311 761 l 476 761 l 507 835 l 581 815 l 554 750 q 683 679 638 731 q 728 560 728 628 m 419 621 q 308 544 349 607 q 254 393 268 482 q 329 400 286 394 l 419 621 m 528 553 q 497 613 528 596 l 419 422 q 528 553 528 460 m 276 271 l 246 268 q 256 217 249 238 l 276 271 z "},"ẽ":{"ha":740,"x_min":38,"x_max":739,"o":"m 728 560 q 597 354 728 419 q 254 268 465 289 q 386 138 261 138 q 477 154 432 138 q 574 206 522 171 l 651 75 q 358 -24 515 -24 q 119 60 201 -24 q 38 289 38 144 q 80 508 38 400 q 217 689 122 617 q 456 761 311 761 q 656 704 585 761 q 728 560 728 647 m 264 401 q 451 451 393 410 q 510 550 510 492 q 493 596 510 576 q 439 615 476 615 q 324 554 367 615 q 264 401 281 493 m 546 882 q 499 891 518 882 q 449 919 479 900 q 419 938 431 932 q 394 944 407 944 q 351 929 369 944 q 310 881 333 914 l 210 939 q 297 1056 247 1011 q 404 1100 347 1100 q 456 1090 435 1100 q 504 1061 478 1079 q 531 1043 519 1049 q 554 1038 542 1038 q 595 1052 576 1038 q 638 1100 614 1067 l 739 1043 q 650 926 700 969 q 546 882 600 882 z "},"ǝ":{"ha":740,"x_min":13,"x_max":703,"o":"m 382 761 q 621 677 539 761 q 703 449 703 593 q 660 229 703 338 q 524 49 618 121 q 285 -24 429 -24 q 84 33 156 -24 q 13 178 13 90 q 144 383 13 318 q 486 469 275 449 q 354 600 479 600 q 263 583 308 600 q 167 532 218 567 l 89 663 q 382 761 225 761 m 301 122 q 417 183 374 122 q 476 336 460 244 q 289 287 347 328 q 231 188 231 246 q 247 142 231 161 q 301 122 264 122 z "},"ə":{"ha":740,"x_min":13,"x_max":703,"o":"m 382 761 q 621 677 539 761 q 703 449 703 593 q 660 229 703 338 q 524 49 618 121 q 285 -24 429 -24 q 84 33 156 -24 q 13 178 13 90 q 144 383 13 318 q 486 469 275 449 q 354 600 479 600 q 263 583 308 600 q 167 532 218 567 l 89 663 q 382 761 225 761 m 301 122 q 417 183 374 122 q 476 336 460 244 q 289 287 347 328 q 231 188 231 246 q 247 142 231 161 q 301 122 264 122 z "},"ɚ":{"ha":1119,"x_min":13,"x_max":1153,"o":"m 1153 476 q 975 426 1075 426 q 832 471 881 426 q 781 592 783 515 l 781 603 l 690 554 q 703 449 703 507 q 660 229 703 338 q 524 49 618 121 q 285 -24 429 -24 q 84 33 156 -24 q 13 178 13 90 q 144 383 13 318 q 486 469 275 449 q 354 600 479 600 q 263 583 308 600 q 167 532 218 567 l 89 663 q 382 761 225 761 q 635 663 551 761 l 789 738 l 969 738 l 958 653 q 957 633 957 646 q 1014 579 957 579 q 1058 584 1040 579 q 1104 601 1076 589 l 1153 476 m 301 122 q 417 183 374 122 q 476 336 460 244 q 289 287 347 328 q 231 188 231 246 q 247 142 231 161 q 301 122 264 122 z "},"ʒ":{"ha":694,"x_min":-92,"x_max":678,"o":"m 658 588 l 368 294 q 558 225 492 286 q 625 57 625 164 q 572 -135 625 -51 q 424 -263 518 -218 q 213 -308 331 -308 q -92 -164 11 -308 l 35 -54 q 120 -121 79 -101 q 217 -140 161 -140 q 352 -87 301 -140 q 403 56 403 -35 q 366 142 403 117 q 250 167 329 167 l 121 167 l 122 168 l 139 294 l 410 574 l 64 574 l 88 738 l 678 738 l 658 588 z "},"ǯ":{"ha":694,"x_min":-92,"x_max":679,"o":"m 658 588 l 368 294 q 558 225 492 286 q 625 57 625 164 q 572 -135 625 -51 q 424 -263 518 -218 q 213 -308 331 -308 q -92 -164 11 -308 l 35 -54 q 120 -121 79 -101 q 217 -140 161 -140 q 352 -87 301 -140 q 403 56 403 -35 q 366 142 403 117 q 250 167 329 167 l 121 167 l 122 168 l 139 294 l 410 574 l 64 574 l 88 738 l 678 738 l 658 588 m 610 1129 l 679 1039 l 461 849 l 329 849 l 163 1039 l 246 1129 l 408 1003 l 610 1129 z "},"ʓ":{"ha":701,"x_min":-96,"x_max":685,"o":"m 665 588 l 374 303 q 564 234 497 296 q 631 61 631 172 q 557 -157 631 -67 q 353 -285 483 -247 l 378 -361 l 264 -403 l 235 -306 q 171 -308 193 -308 q -25 -258 46 -308 q -96 -115 -96 -207 q -40 25 -96 -28 q 97 78 17 78 q 219 34 175 78 q 296 -115 264 -10 l 297 -119 q 410 60 410 -75 q 373 149 410 124 q 257 175 336 175 l 128 175 l 129 176 l 146 303 l 418 574 l 71 574 l 94 738 l 685 738 l 665 588 m 56 -86 q 81 -127 56 -114 q 171 -140 106 -140 l 188 -140 q 151 -62 169 -83 q 104 -40 133 -40 q 69 -53 82 -40 q 56 -86 56 -65 z "},"ƹ":{"ha":699,"x_min":-29,"x_max":711,"o":"m 689 574 l 326 574 l 533 290 l 518 167 l 515 168 l 517 167 l 392 167 q 246 120 297 167 q 194 -11 194 74 q 229 -108 194 -76 q 328 -140 264 -140 q 435 -120 386 -140 q 542 -54 485 -100 l 640 -168 q 299 -308 503 -308 q 122 -272 196 -308 q 10 -172 49 -236 q -29 -25 -29 -108 q 14 139 -29 68 q 136 251 57 210 q 321 296 215 292 l 322 296 l 100 588 l 121 738 l 711 738 l 689 574 z "},"ƺ":{"ha":697,"x_min":-28,"x_max":671,"o":"m 163 -308 q 23 -226 74 -275 q -28 -114 -28 -176 q 40 19 -28 -28 q 235 92 108 67 q 379 135 338 113 q 421 203 421 158 q 398 248 421 235 q 322 261 375 261 l 139 261 l 156 381 l 396 582 l 61 582 l 83 738 l 671 738 l 653 596 l 390 389 l 422 389 q 584 342 526 389 q 643 210 642 294 q 563 37 643 97 q 339 -53 483 -24 q 232 -78 268 -67 q 183 -101 196 -90 q 169 -128 169 -112 q 183 -160 169 -146 q 228 -190 197 -174 l 163 -308 z "},"f":{"ha":481,"x_min":-111,"x_max":681,"o":"m 493 892 q 419 868 444 892 q 386 792 393 844 l 379 738 l 550 738 l 506 585 l 357 585 l 286 81 q 225 -109 271 -35 q 111 -228 179 -183 q -57 -308 43 -272 l -111 -150 q 15 -71 -26 -118 q 69 72 57 -24 l 142 585 l 32 585 l 53 738 l 163 738 l 172 806 q 267 985 188 917 q 475 1054 346 1054 q 681 993 589 1054 l 604 863 q 493 892 558 892 z "}}}
